<svg width="715" height="132" viewBox="0 0 715 132" fill="none" xmlns="http://www.w3.org/2000/svg">
<path d="M94.7353 3.05394C98.3618 3.05394 102.306 1.71784 102.306 1.71784L95.117 30.9846C92.254 24.7495 86.4006 23.0317 79.7202 23.0317C76.2845 23.0317 72.149 23.4134 68.5224 24.5586V100.271C68.5224 111.086 69.095 119.612 77.4297 127.183V127.565H25.2585V127.183C34.5475 121.33 33.784 110.45 33.784 100.652V24.6859C30.1575 23.5407 26.2129 23.1589 22.7772 23.1589C13.679 23.1589 4.96263 27.7398 0 31.3027L7.95293 1.71784C7.95293 1.71784 11.1977 3.05394 13.8063 3.05394H94.7353ZM157.404 100.78V30.0303C157.404 20.1686 156.45 9.16178 165.739 3.2448V3.05394H114.331V3.2448C123.811 9.28902 122.666 20.1686 122.666 30.0303V100.78C122.666 110.641 123.62 121.266 114.331 127.12V127.501H165.93V127.12C156.45 121.266 157.404 110.641 157.404 100.78ZM328.933 98.4891L320.408 17.6873C319.644 10.6887 322.698 6.87133 327.024 3.2448V3.05394H281.852L259.456 76.4754L231.208 3.05394H187.562V3.2448C193.097 7.44394 196.087 12.1521 195.133 20.8685L185.653 104.342C184.508 114.777 182.408 121.584 175.791 127.12V127.501H213.711V127.12C208.049 124.257 204.231 118.785 204.804 112.295L211.421 46.0634H211.802L230.762 97.2802C234.77 107.714 237.824 115.858 245.968 121.393C251.313 125.02 257.166 128.01 263.274 129.537L288.341 46.0634H288.723L295.722 113.695C296.294 119.039 292.668 124.32 289.232 127.183V127.565H339.876V127.183C331.351 119.739 330.078 109.114 328.933 98.4891ZM395.929 100.78V30.0303C395.929 20.1686 394.974 9.16178 404.263 3.2448V3.05394H352.855V3.2448C362.335 9.35265 361.19 20.1686 361.19 30.0303V100.78C361.19 110.641 362.145 121.266 352.855 127.12V127.501H404.454V127.12C394.974 121.266 395.929 110.641 395.929 100.78ZM507.079 3.2448C515.413 11.0069 515.795 19.596 515.795 30.6029V80.2928L457.007 3.05394H417.751V3.43568C426.086 10.6251 429.14 16.3512 429.14 30.921V99.9524C429.14 110.959 428.567 119.548 420.233 127.12V127.501H457.389V127.12C449.054 119.358 448.481 110.959 448.481 99.9524V49.1173H448.863L485.892 98.2346C495.754 111.341 500.144 117.067 512.232 123.684C518.086 127.12 528.202 131.255 535.2 131.446V30.6029C535.2 19.596 535.773 11.0705 543.917 3.2448V3.05394H507.079V3.2448ZM600.414 100.78V30.0303C600.414 20.1686 599.46 9.16178 608.749 3.2448V3.05394H557.341V3.2448C566.821 9.28902 565.676 20.1686 565.676 30.0303V100.78C565.676 110.641 566.63 121.266 557.341 127.12V127.501H608.94V127.12C599.46 121.266 600.414 110.641 600.414 100.78ZM701.893 61.333C694.513 54.907 685.033 50.8987 675.872 46.8905C668.873 43.8365 657.675 40.2736 657.675 30.9846C657.675 21.8865 666.964 18.6417 674.408 18.6417C683.888 18.6417 692.986 22.2682 700.939 27.3581V5.72611C691.268 1.9087 679.88 0 669.255 0C657.675 0 646.096 2.29045 636.425 9.09816C627.709 15.206 622.364 25.6402 622.364 36.3926C622.364 78.7022 680.262 73.7396 680.262 97.2802C680.262 108.096 668.491 110.959 659.966 110.959C646.478 110.959 631.144 103.961 620.519 95.2443H620.328L626.563 121.966C636.425 127.056 646.859 129.919 663.21 129.919C676.635 129.919 689.36 128.01 700.048 120.057C709.91 113.059 715 101.67 715 89.5182C715 77.4297 711.055 69.095 701.893 61.333Z" fill="black"/>
</svg>
