<svg xmlns="http://www.w3.org/2000/svg" fill="none" viewBox="0 0 178 28" height="28" width="178">
<g clip-path="url(#clip0_208_31299)">
<path fill="#D9172D" d="M107.508 9.98228L89.4469 28.0122L84.9306 23.508L98.4795 9.98228L95.5903 7.10229C94.6844 6.19801 93.2162 6.19801 92.3104 7.10229L84.9306 14.4908L77.5509 7.10229C76.6451 6.19801 75.1768 6.19801 74.271 7.10229L71.3818 9.98228L84.9306 23.508L80.4144 28.0122L62.3535 9.98228L69.8406 2.5123C73.1935 -0.83483 78.6284 -0.83483 81.9813 2.5123L84.9306 5.47372L87.88 2.5123C91.2328 -0.83483 96.6678 -0.83483 100.016 2.5123L107.508 9.98228Z"></path>
<path fill="#1E1E1E" d="M125.084 16.3466V20.4438H111.342V1.42383H115.914V16.3424H125.084V16.3466Z"></path>
<path fill="#1E1E1E" d="M125.787 5.31641H129.595V12.9235C129.595 13.9178 130.269 16.6092 133.025 16.6092C136.043 16.6092 136.455 13.8878 136.455 12.8935V5.31641H140.559V20.4406H136.455V18.8592C135.343 20.0892 134.111 20.4406 132.763 20.4406C128.895 20.4707 125.787 17.3121 125.787 13.215V5.31641Z"></path>
<path fill="#1E1E1E" d="M146.387 3.5031H142.312V0.0488281H146.387V3.49882V3.5031ZM146.417 20.4402H142.312V5.40596H146.417V20.4445V20.4402Z"></path>
<path fill="#1E1E1E" d="M151.602 19.9727C150.958 19.737 150.37 19.3598 149.726 18.7727C148.67 17.7784 148.116 16.4027 148.202 14.8513V14.5298L151.482 14.5898H151.744V14.8255C151.744 14.8255 151.774 15.5584 152.066 16.0255C152.418 16.6127 153.178 16.8741 154.264 16.8741C155.174 16.8741 155.848 16.7884 156.286 16.5527C156.754 16.317 156.814 16.0255 156.814 15.8498C156.814 14.9155 155.114 14.5898 154.118 14.4741C152.976 14.3584 151.98 14.1227 151.186 13.7713C150.396 13.4498 149.752 13.0084 149.25 12.4855C148.545 11.697 148.193 10.7884 148.193 9.73413C148.193 8.32842 148.752 7.36413 149.25 6.80699C150.306 5.607 152.006 4.99414 154.32 4.99414C157.368 4.99414 158.892 6.33985 159.626 7.47985C160.446 8.73556 160.446 10.1713 160.446 10.347V10.6084H156.9V10.347C156.9 10.2013 156.87 9.73413 156.638 9.4127C156.226 8.85556 155.406 8.53413 154.324 8.53413C153.092 8.53413 151.864 8.85556 151.864 9.55841C151.864 9.90984 152.04 10.1713 152.448 10.407C152.886 10.6684 153.59 10.8441 154.53 10.9641C156.758 11.1998 158.428 11.9284 159.424 13.0984C160.098 13.887 160.45 14.8255 160.45 15.8498C160.45 16.317 160.45 17.547 159.454 18.687C158.956 19.2741 158.252 19.7112 157.402 20.0027C156.522 20.2941 155.496 20.4398 154.268 20.4398C153.272 20.4398 152.392 20.2941 151.602 19.9727Z"></path>
<path fill="#1E1E1E" d="M177.155 5.31641V20.4406H173.051V18.7435C172.14 19.9135 170.616 20.3807 169.243 20.3807C165.083 20.4107 161.683 17.0464 161.653 12.8935C161.622 8.74068 164.993 5.34641 169.152 5.31641C170.586 5.31641 172.14 5.84355 173.051 6.98355V5.31641H177.155ZM172.909 12.8335C172.909 11.8392 172.527 10.905 171.797 10.2021C171.093 9.49925 170.157 9.11782 169.191 9.14782C168.195 9.14782 167.255 9.52925 166.555 10.2321C165.851 10.935 165.469 11.8692 165.469 12.8635C165.469 13.8578 165.881 14.7921 166.581 15.495C167.285 16.1978 168.221 16.5792 169.217 16.5792C170.213 16.5492 171.149 16.1678 171.823 15.4692C172.527 14.7664 172.909 13.8321 172.909 12.8378V12.8335Z"></path>
<path fill="#1E1E1E" d="M13.7264 16.3498V20.4469H-0.015625V1.43555H4.55647V16.3541H13.7264V16.3498Z"></path>
<path fill="#1E1E1E" d="M14.4258 5.32422H18.2337V12.9313C18.2337 13.9256 18.9077 16.617 21.6639 16.617C24.6819 16.617 25.0897 13.8956 25.0897 12.9013V5.32422H29.1939V20.4485H25.0897V18.867C23.9778 20.097 22.7457 20.4485 21.3977 20.4485C17.5297 20.4785 14.4258 17.3199 14.4258 13.2228V5.32422Z"></path>
<path fill="#1E1E1E" d="M35.0233 3.51054H30.9492V0.0605469H35.0233V3.51054ZM35.0534 20.4476H30.9535V5.41339H35.0534V20.4476Z"></path>
<path fill="#1E1E1E" d="M51.9 5.35352V20.4178C51.9 24.5406 48.5601 27.9049 44.4301 27.9349C40.5321 27.9649 37.338 25.0677 36.9001 21.3263H40.7682C40.9141 21.9692 41.2662 22.5563 41.7642 23.0535C42.4682 23.7563 43.4041 24.1377 44.4001 24.1377C45.3961 24.1377 46.332 23.7263 47.006 23.0278C47.71 22.3249 48.0921 21.4206 48.0921 20.4263L48.0621 18.9349C47.1519 19.8435 45.7481 20.4263 44.4301 20.4263C40.2401 20.4563 36.84 17.0921 36.84 12.9392C36.81 8.78636 40.15 5.39209 44.34 5.36209C45.688 5.36209 47.1519 5.77351 48.0621 6.91351V5.36209H51.9V5.35352ZM48.0621 12.4635C47.9719 11.6149 47.5941 10.8564 46.9759 10.2392C46.2719 9.56636 45.336 9.18493 44.34 9.18493C43.344 9.18493 42.4339 9.56636 41.7341 10.2692C41.0301 11.0021 40.648 11.9064 40.648 12.9006C40.648 13.8949 41.0601 14.8292 41.7599 15.5321C42.4639 16.2349 43.3998 16.6163 44.3958 16.6163C45.3918 16.5863 46.3277 16.2049 47.0017 15.5063C47.5898 14.9192 47.9676 14.1606 48.0578 13.3421V12.4635H48.0621Z"></path>
<path fill="#1E1E1E" d="M57.7343 3.51054H53.6602V0.0605469H57.7343V3.51054ZM57.76 20.4476H53.6602V5.41339H57.76V20.4476Z"></path>
</g>
<defs>
<clipPath id="clip0_208_31299">
<rect fill="white" height="28" width="177.154"></rect>
</clipPath>
</defs>
</svg>
