<?xml version="1.0" encoding="UTF-8"?>
<svg width="250px" height="45px" viewBox="0 0 250 45" version="1.1" xmlns="http://www.w3.org/2000/svg" xmlns:xlink="http://www.w3.org/1999/xlink">
    <!-- Generator: sketchtool 48.2 (47327) - http://www.bohemiancoding.com/sketch -->
    <title>94ECE0DF-AB09-4951-9407-7CC06B8C2754</title>
    <desc>Created with sketchtool.</desc>
    <defs></defs>
    <g id="Symbols" stroke="none" stroke-width="1" fill="none" fill-rule="evenodd">
        <g id="logo/black" fill="#010005">
            <path d="M78.0500908,24.7198425 C78.0875658,23.8162065 78.5659422,22.1839264 78.8680232,21.3627354 C79.7263633,19.0304876 80.5472285,17.873651 81.9699746,16.086257 L82.9912495,15.0011117 C84.0170865,14.0075358 85.3371837,13.0426363 86.6005796,12.3400617 C87.4999793,11.8398521 88.4358764,11.4152442 89.4822433,11.0567878 C94.9679298,9.17945382 101.411021,10.1951889 105.924639,13.7611784 C107.222577,14.7873414 108.036273,15.5909355 109.053637,16.9022342 C111.441935,19.9800712 112.70533,24.0032556 112.440399,28.0459921 C112.080965,28.1854643 100.198135,28.0518578 98.6955505,28.051206 C98.0082918,28.0505543 85.2534353,28.0792308 84.9135534,27.9879874 C84.799825,27.7556424 84.8682576,23.8689974 84.8754267,23.7656968 L106.990884,23.8171841 C106.796339,22.5958254 105.879017,20.8801227 105.301576,20.0364467 C102.020397,15.2435586 95.7425215,13.2407649 90.0658755,15.6997759 C89.4085968,15.9842599 88.8510341,16.2948135 88.2983595,16.6565286 C88.0018183,16.8507468 87.7880479,16.9986915 87.5126882,17.2078997 C86.202693,18.2050603 85.2211742,19.3618969 84.370329,20.7989812 C83.281925,22.6378626 83.0818412,24.4659902 82.9130408,24.751126 L78.0500908,24.7198425 Z M22.3658758,24.5810873 C22.8449039,20.3783489 25.3283551,16.3783013 28.4228115,13.8981088 C29.8960673,12.7171579 31.646638,11.6346195 33.8175804,10.9154256 C38.3181635,9.4248987 43.4574508,9.70514643 47.6686618,11.9722203 C48.6286733,12.4890492 49.4840806,13.031296 50.236839,13.6185128 L51.9134374,15.0774304 C52.1040711,15.2683899 52.2207323,15.4225261 52.4028934,15.6170702 C54.9091554,18.2950654 57.1491821,22.7392731 56.7584646,27.9447119 L29.1889306,27.8531426 L29.2130449,23.6236829 L51.3161187,23.6787548 C51.1189677,22.4616324 50.1866551,20.7038925 49.6212716,19.8866119 C47.26882,16.483883 43.3825008,14.3253237 38.8020797,14.5231264 C36.5076328,14.6221907 34.4530258,15.3452951 32.6281568,16.5083232 C30.485891,17.8737162 28.7656261,20.0120716 27.8310325,22.504973 C27.5784837,23.1775676 27.3262607,24.4507395 27.2372984,24.6104156 L22.3658758,24.5810873 Z M16.0634301,43.5286042 C14.2173796,43.5458753 11.2917235,42.5135208 9.82107466,41.8370158 C8.40745294,41.1859287 7.32719567,40.4328443 6.1638417,39.5308377 C5.95658872,39.3705099 5.83797224,39.2483088 5.64505752,39.0752722 L4.15192364,37.585397 C2.5528822,35.7937667 1.28525,33.5882822 0.59962065,31.2205147 C0.406380059,30.553134 -0.0768843513,28.5431712 0.0104486643,27.8875218 L5.12203703,27.926952 C5.43975976,31.0487815 7.0345649,33.5869787 8.58831049,35.1042269 C10.3163962,36.7922307 12.6447335,38.107114 16.0904772,38.1849968 L16.0634301,43.5286042 Z M94.1696474,43.7532912 C92.0733291,43.7226595 89.3959856,42.9366623 87.7523001,42.1506652 C85.7957798,41.2157457 84.2889594,40.1247348 83.0102477,38.9252093 C82.6361495,38.5735961 82.3930509,38.2477267 82.040786,37.8908996 C80.6030499,36.4326338 79.080262,33.5030673 78.5155302,31.4458534 C78.3105583,30.697983 77.8807365,28.8714847 77.9449328,28.094286 L82.8368851,28.1040621 C82.9682105,28.5387719 83.019372,29.3436695 83.3383982,30.376024 C84.3616283,33.6868577 86.7417789,36.207458 89.7935464,37.6947262 C91.2720161,38.4158753 92.4040866,38.5921707 94.1491176,38.8447195 C94.2511147,39.1510368 94.1787717,43.1015523 94.1696474,43.7532912 Z M38.4968703,43.6139168 C36.2822615,43.6080512 33.8731085,42.7845791 32.0994011,42.0239997 C30.154938,41.1897739 27.785867,39.4291012 26.3849542,37.7661894 C25.3864902,36.5803504 24.7197612,35.6982218 23.9712391,34.2204038 C23.1063815,32.5128478 22.3617698,30.1502942 22.2578175,27.9506753 L27.1787722,27.9708792 C27.9650952,33.9118054 32.4708922,38.1748297 38.5053429,38.7011088 L38.4968703,43.6139168 Z M0.108730894,24.4133949 C0.1289348,23.6414102 0.589714218,22.0404135 0.845195876,21.3267594 C1.79412775,18.6793959 3.21459273,16.5208366 5.21021731,14.6408956 C6.02619444,13.8721696 6.62025446,13.3801067 7.61480806,12.7290195 C10.0676275,11.1237865 13.0617161,10.0040991 16.1545432,9.77305763 C16.1597571,10.4567318 16.2004908,14.4466774 16.1164164,14.7999199 C12.5461906,14.8038304 9.61336546,16.4217722 7.52910439,19.0668547 C5.53347981,21.5991862 5.40150268,23.9721677 5.18284427,24.4339247 L0.108730894,24.4133949 Z M64.2256655,24.7218629 L64.2256655,1.00019552 L68.7021343,1.00019552 L68.7021343,24.7218629 L64.2256655,24.7218629 Z M177.689176,5.4681917 L177.689176,1.00019552 L182.165318,1.00019552 L182.165318,5.4681917 L177.689176,5.4681917 Z M177.689176,24.938892 L177.689176,11.239014 L182.165318,11.239014 L182.165318,24.938892 L177.689176,24.938892 Z M168.941405,11.9071767 L168.928045,15.7967546 L156.442682,15.7667746 L156.442682,24.9386965 L151.966213,24.9386965 L151.966213,15.7543916 L145.666505,15.7407051 L145.68508,11.8478685 L151.966213,11.846565 L151.966213,1 L156.442682,1 L156.442682,11.8778485 L168.941405,11.9071767 Z M64.2256655,42.9679458 L64.2256655,28.094286 L68.7021343,28.094286 L68.7021343,42.9679458 L64.2256655,42.9679458 Z M245.648013,28.3241217 L250,28.3254252 C249.907779,29.1935414 249.731484,30.0522075 249.518365,30.8629707 C247.416833,38.8428621 241.246169,43.4223056 232.569243,43.4190469 C229.593077,43.4177434 226.523386,42.5216024 223.609136,40.7286686 C223.195607,40.4741646 222.802283,40.1975014 222.426556,39.9058482 C221.334567,39.0592394 220.253658,38.0314471 219.422365,36.948257 C217.745441,34.7619988 216.072753,31.2735662 215.9499,28.3247735 L220.526737,28.3247735 C220.70238,29.2000588 220.841852,29.990944 221.121774,30.8303837 C221.906142,33.1841389 223.484328,35.2983799 225.428139,36.7514319 C229.03193,39.4450688 233.753778,40.0345667 237.978676,38.3185381 C240.658626,37.2301341 242.685208,35.3436758 244.13435,32.8589211 C244.484659,32.2586696 244.782504,31.5381722 245.035705,30.832339 C245.330291,30.0082151 245.583817,28.5470164 245.648013,28.3241217 Z M220.60954,24.9387942 L216.023253,24.9387942 C216.081584,23.2455765 217.134468,20.476012 217.931871,19.05294 C218.403404,18.2102416 219.734906,16.2625198 220.479844,15.5863407 C220.715773,15.3715927 220.766609,15.3324884 220.969626,15.1017728 C221.132235,14.9173307 221.307878,14.8107714 221.487758,14.6416451 C222.745614,13.4646046 224.471093,12.4061806 226.407084,11.5947657 C231.510199,9.45575854 237.706933,10.0498186 242.309187,12.9933974 C243.342845,13.6542607 244.821315,14.7775327 245.583198,15.6814946 C246.636408,16.9302264 247.135966,17.310516 248.099562,19.1272383 C248.890121,20.6184169 249.80223,22.9369781 249.969075,24.9387942 L245.547352,24.9387942 C245.332278,23.3997128 244.768524,22.0098795 244.108964,20.8035108 C243.254861,19.2399891 242.599863,18.6931801 241.510481,17.5950001 C240.701999,16.7800005 239.000309,15.8111906 237.930805,15.3657271 C230.447213,12.2500892 221.816235,16.9950744 220.60954,24.9387942 Z M196.098682,24.9387942 L191.24453,24.9387942 L191.283309,10.0889229 C195.685479,10.1052164 200.455883,11.6755813 203.759873,14.2711316 C204.593447,14.9258033 205.170888,15.5788457 205.862709,16.33193 C207.717232,18.3484103 209.305845,22.0359491 209.59815,24.9387942 L204.67687,24.9387942 L204.275398,23.212012 C203.783336,21.5139062 203.085649,19.9829715 202.036349,18.6654812 C200.922528,17.2668495 198.235408,15.4364408 196.222838,15.4168886 C196.204915,15.6736737 196.18406,15.5599453 196.152125,15.673022 C196.075219,15.9470782 196.109436,19.8930315 196.109436,20.2156423 C196.109436,21.2463674 196.152125,23.9778052 196.098682,24.9387942 Z M177.68885,42.9506747 L177.68885,28.3246757 L182.164993,28.3246757 L182.164993,42.9506747 L177.68885,42.9506747 Z M160.664842,35.3354313 C161.417927,35.8942974 161.48082,35.97772 162.349588,36.4766261 C163.886714,37.3594065 166.788256,38.4966909 168.547951,38.6029244 L168.540456,43.139679 C166.696034,43.1230597 163.797426,42.1995456 162.295493,41.5168491 C160.270215,40.5965937 157.973161,39.2116485 156.458519,37.5357019 C156.143404,37.1870216 155.846211,36.8872217 155.529791,36.5108424 C153.817022,34.4761135 152.3379,31.2679287 152.081441,28.5221526 L156.600924,28.5221526 C157.104393,30.2971635 157.666518,31.6974246 158.686163,33.1504765 C158.908732,33.4675475 159.065475,33.6493827 159.287392,33.9364737 C159.596968,34.3356638 160.264023,35.0375866 160.664842,35.3354313 Z M127.792109,24.9387942 L122.330537,24.9387942 C122.647282,23.1892011 123.524197,20.7363817 124.284776,19.3814165 C125.277374,17.6132488 126.095307,16.5789391 127.51349,15.2591678 C129.41559,13.4880672 132.265971,12.2585618 135.003926,11.6491859 C135.743975,11.4842959 137.423181,11.1287723 138.170399,11.1727647 L138.148566,15.9278519 C137.91557,16.0285456 137.389942,16.0529858 137.102199,16.104799 C133.71055,16.7079834 130.97455,18.5351335 129.211922,21.4800158 C128.74821,22.2555851 128.022499,23.8653802 127.792109,24.9387942 Z M121.682219,28.5220874 L126.973688,28.5220874 C126.673236,32.0473433 125.31436,35.2297844 122.997103,37.7233375 L122.011673,38.6400083 C120.764245,39.7557854 119.098726,40.7356748 117.220089,41.5060302 C115.830581,42.0749983 112.523984,43.0245819 111.051706,42.9610374 C111.018141,41.923469 111.04747,40.8357167 111.049099,39.7932603 C111.051706,37.8373918 110.877366,38.1772737 111.701164,38.0423637 C113.793571,37.6992232 115.302347,37.1234118 116.936582,36.1353756 C118.213991,35.3633909 119.493354,34.2642332 120.218088,33.0441779 C120.963351,31.7902322 121.574031,30.2469145 121.682219,28.5220874 Z M191.20233,42.9506747 L191.20233,28.3246757 L196.089721,28.3246757 L196.089721,42.9506747 L191.20233,42.9506747 Z M204.984327,42.9506747 L204.984327,28.3246757 L209.871066,28.3246757 L209.871066,42.9506747 L204.984327,42.9506747 Z" id="logo"></path>
        </g>
    </g>
</svg>