<svg id="Foreground" xmlns="http://www.w3.org/2000/svg" viewBox="0 0 337.32 96.38"><defs><style>.cls-1{fill:#4c2c14;}.cls-1,.cls-2,.cls-3{fill-rule:evenodd;}.cls-2{fill:#fff;stroke:#fff;stroke-miterlimit:3.86;stroke-width:4.96px;}.cls-3{fill:#e78b39;}</style></defs><title>Vector</title><path class="cls-1" d="M16.85,30.41c5.56,2.45,10,5.64,10,12.18s-6,10.63-12.18,10.63c-7.44,0-11.2-4.41-12-11.44-0.08-.65-0.08-2.7-1.14-2.7-0.9,0-1.14,1-1.23,1.63A54,54,0,0,0,0,47c0,1.47-.25,3.68,1.14,4.58A25.93,25.93,0,0,0,13.5,54.77a20.27,20.27,0,0,0,13.08-4.25A15.13,15.13,0,0,0,32.3,38.91a14.94,14.94,0,0,0-3.92-9.73c-2-2.12-5.39-3.84-8.09-5.07C15,21.83,6,19,6,11.94c0-6,5.15-8.75,10.54-8.75,6.37,0,8.83,3,10.63,8.66,0.25,0.57.41,1.88,1.31,1.88a0.88,0.88,0,0,0,.9-1c-0.08-2.13-.25-4.25-0.33-6.38-0.08-1.47.08-2.45-1.47-3a33.44,33.44,0,0,0-11-1.8C8.6,1.56.83,6.79,0.83,15.37c0,7.27,5.88,10.63,11.85,13.24Z"/><path class="cls-1" d="M98,11.78c0-5.15-.41-6.7,5.31-6.7,0.74,0,2.13,0,2.13-1.06a1.15,1.15,0,0,0-1.39-1.14c-3.11,0-6.21.33-9.32,0.33s-6-.33-9.15-0.33c-0.82,0-1.39.25-1.39,1.14,0,1.06,1.31,1.06,2,1.06,5.72,0,5.31,1.55,5.31,6.7V45.21c0,5.15.41,6.7-5.23,6.7-0.82,0-2.13,0-2.13,1.06a1.19,1.19,0,0,0,1.39,1.14c2.78,0,5.39-.33,8.17-0.33,7.85,0,15.86.33,23.7,0.33,2.21,0,2-1,2.13-3.11,0.08-2.86.9-5.72,0.9-8.5,0-.57,0-1.14-0.74-1.14a1.44,1.44,0,0,0-1,1.06c-0.9,2.21-2.37,5.23-4.25,6.78-2.29,1.88-6,2.7-9,2.7C98.2,51.91,98,49,98,42.75v-31Z"/><path class="cls-1" d="M35.41,24.44c0,12.94,12,23.18,24.81,23.18C73.73,47.62,85,38.16,85,24.44S73.73,1.33,60.22,1.33C47.42,1.33,35.41,11.5,35.41,24.44Zm43.08,0c0,5.33-1.07,10.1-4.41,14.36a17.68,17.68,0,0,1-27.51.5c-3.48-4.12-4.76-9.53-4.76-14.86,0-5.12,1.21-10.45,4.48-14.5A17.65,17.65,0,0,1,60.36,3.25,17.37,17.37,0,0,1,73.8,9.72C77.35,14.06,78.49,19,78.49,24.44Z"/><path class="cls-1" d="M328.17,37.44c0,4.09.08,7.76-2.94,10.87-3.35,3.35-8.58,4.41-13.24,4.41-4.5,0-10.71-1.14-13.24-5.31-1.88-3-1.72-9-1.72-12.59v-23c0-5.15-.41-6.7,5.31-6.7,0.74,0,2.13,0,2.13-1.06a1.15,1.15,0,0,0-1.39-1.14c-3.11,0-6.21.33-9.32,0.33s-6-.33-9.15-0.33c-0.82,0-1.39.25-1.39,1.14,0,1.06,1.31,1.06,2,1.06,5.72,0,5.31,1.55,5.31,6.7V37.44c0,5.39-.16,10.14,4.82,13.57,4,2.94,10.38,3.76,15.2,3.76,5.39,0,11.28-.82,15.37-4.33,4.41-3.84,4.5-7.76,4.5-13V11.94c0.16-3.76-.41-6.87,4.25-6.87,0.74,0,2.62,0,2.62-1.14,0-1-1.06-1.06-1.72-1.06-2.13,0-4.25.33-6.38,0.33-2.45,0-4.9-.33-7.36-0.33-0.82,0-1.72.25-1.72,1.14,0,1.14,1.47,1.06,2.21,1.06,1.88,0,3.92.08,4.9,1.88,1,1.63.9,6.13,0.9,8.09v22.4Z"/><path class="cls-1" d="M119.33,24.44c0,12.94,12,23.18,24.81,23.18,13.51,0,24.74-9.46,24.74-23.18S157.65,1.33,144.14,1.33C131.34,1.33,119.33,11.5,119.33,24.44Zm43.08,0c0,5.33-1.07,10.1-4.41,14.36a17.68,17.68,0,0,1-27.51.5c-3.48-4.12-4.76-9.53-4.76-14.86,0-5.12,1.21-10.45,4.48-14.5a17.65,17.65,0,0,1,14.08-6.68,17.37,17.37,0,0,1,13.44,6.47C161.27,14.06,162.41,19,162.41,24.44Z"/><path class="cls-1" d="M231.91,24.44c0,12.94,12,23.18,24.81,23.18,13.51,0,24.74-9.46,24.74-23.18S270.23,1.33,256.72,1.33C243.92,1.33,231.91,11.5,231.91,24.44Zm43.08,0c0,5.33-1.07,10.1-4.41,14.36a17.68,17.68,0,0,1-27.51.5c-3.48-4.12-4.76-9.53-4.76-14.86,0-5.12,1.21-10.45,4.48-14.5a17.65,17.65,0,0,1,14.08-6.68A17.37,17.37,0,0,1,270.3,9.72C273.85,14.06,275,19,275,24.44Z"/><path class="cls-2" d="M304,23c11.38-7.59-15.57,6.65-28.92,22.89,0,0-16.86,18.25-20.88,49.18a230.55,230.55,0,0,1,20.27-40.51C282.76,41.65,294.05,29.61,304,23Z"/><path class="cls-3" d="M304,23c11.38-7.59-15.57,6.65-28.92,22.89,0,0-16.86,18.25-20.88,49.18a230.55,230.55,0,0,1,20.27-40.51C282.76,41.65,294.05,29.61,304,23Z"/><polygon class="cls-1" points="5.23 79.83 2.07 72.92 0.72 81.56 1.65 81.56 2.46 75.86 5.23 81.9 8.02 75.88 8.78 81.56 9.7 81.56 8.44 72.92 5.23 79.83"/><path class="cls-1" d="M19.28,73.24a4.23,4.23,0,1,0,4.24,4.23A4.27,4.27,0,0,0,19.28,73.24Zm3.32,4.24a3.35,3.35,0,1,1-3.33-3.38A3.34,3.34,0,0,1,22.6,77.48Z"/><path class="cls-1" d="M33.6,81.56L31,77.9A2.15,2.15,0,0,0,33,75.63c0-1.74-1.4-2.26-2.87-2.26H28.83v8.19h0.93V78H30l2.47,3.58H33.6Zm-3.83-7.33c1,0,2.36,0,2.36,1.4s-1.19,1.54-2.36,1.54V74.23Z"/><polygon class="cls-1" points="39.29 76.66 39.29 74.23 42.62 74.23 42.62 73.37 38.36 73.37 38.36 81.56 42.62 81.56 42.62 80.71 39.29 80.71 39.29 77.51 42.52 77.51 42.52 76.66 39.29 76.66"/><polygon class="cls-1" points="59.39 81.56 60.32 81.56 60.32 74.23 62.3 74.23 62.3 73.37 57.42 73.37 57.42 74.23 59.39 74.23 59.39 81.56"/><polygon class="cls-1" points="72.43 73.37 72.43 76.71 68.25 76.71 68.25 73.37 67.34 73.37 67.34 81.56 68.25 81.56 68.25 77.55 72.43 77.55 72.43 81.56 73.36 81.56 73.36 73.37 72.43 73.37"/><path class="cls-1" d="M79.68,79.23H83.2l1,2.33h1L81.48,73l-3.77,8.6h1Zm0.39-.85,1.4-3.27,1.36,3.27H80.07Z"/><polygon class="cls-1" points="96.24 79.72 89.84 73.03 89.84 81.56 90.78 81.56 90.78 75.25 97.15 81.93 97.15 73.37 96.24 73.37 96.24 79.72"/><path class="cls-1" d="M114.15,82.1A2.18,2.18,0,0,0,115,80V73.37H114V80c0,1.1-.27,1.56-0.89,1.56a1.26,1.26,0,0,1-1-.45l-0.51.7a2.23,2.23,0,0,0,1.5.61A1.71,1.71,0,0,0,114.15,82.1Z"/><path class="cls-1" d="M121.8,80a2.76,2.76,0,0,1-.28-1.58v-5h-0.92v5.27a3,3,0,0,0,.53,1.94,3.1,3.1,0,0,0,4.78,0,2.94,2.94,0,0,0,.53-1.94V73.37h-0.91v5a2.78,2.78,0,0,1-.27,1.58A2.14,2.14,0,0,1,121.8,80Z"/><path class="cls-1" d="M134.28,74.1a1.44,1.44,0,0,1,1.34.89l0.73-.48a2.31,2.31,0,0,0-2-1.26,2.15,2.15,0,0,0-2.36,2.09c0,2.38,3.78,2,3.78,3.85A1.62,1.62,0,0,1,134,80.84a1.63,1.63,0,0,1-1.64-1.5l-0.89.26a2.59,2.59,0,0,0,5.13-.41c0-2.54-3.8-2.15-3.8-3.88A1.3,1.3,0,0,1,134.28,74.1Z"/><polygon class="cls-1" points="143.56 81.56 144.49 81.56 144.49 74.23 146.47 74.23 146.47 73.37 141.59 73.37 141.59 74.23 143.56 74.23 143.56 81.56"/><path class="cls-1" d="M162.33,79.23h3.51l1,2.33h1L164.12,73l-3.77,8.6h1Zm0.39-.85,1.4-3.27,1.36,3.27h-2.75Z"/><path class="cls-1" d="M189.64,80.24a4.23,4.23,0,0,0,.77-2.79H187v0.86h2.44a2.34,2.34,0,0,1-.33,1.15,3.1,3.1,0,0,1-2.53,1.38,3.37,3.37,0,1,1,.08-6.74,3.43,3.43,0,0,1,2.72,1.53l0.69-.62a4.37,4.37,0,0,0-3.4-1.77,4.26,4.26,0,0,0-4.33,4.13,4.22,4.22,0,0,0,4.27,4.34A4,4,0,0,0,189.64,80.24Z"/><path class="cls-1" d="M196.71,79.23h3.51l1,2.33h1L198.5,73l-3.77,8.6h1Zm0.39-.85,1.4-3.27,1.36,3.27H197.1Z"/><path class="cls-1" d="M211.63,81.56L209,77.9a2.15,2.15,0,0,0,2.07-2.27c0-1.74-1.4-2.26-2.87-2.26h-1.34v8.19h0.93V78H208l2.47,3.58h1.13Zm-3.83-7.33c1,0,2.36,0,2.36,1.4s-1.19,1.54-2.36,1.54V74.23Z"/><path class="cls-1" d="M216.36,73.37v8.19H218a4.18,4.18,0,0,0,3-.95,4.2,4.2,0,0,0,0-6.29,4.27,4.27,0,0,0-3-1h-1.68Zm5.17,4.1a3.17,3.17,0,0,1-3.45,3.24h-0.79V74.23h0.79A3.14,3.14,0,0,1,221.52,77.47Z"/><polygon class="cls-1" points="228.65 76.66 228.65 74.23 231.97 74.23 231.97 73.37 227.71 73.37 227.71 81.56 231.97 81.56 231.97 80.71 228.65 80.71 228.65 77.51 231.87 77.51 231.87 76.66 228.65 76.66"/><polygon class="cls-1" points="243.62 79.72 237.23 73.03 237.23 81.56 238.16 81.56 238.16 75.25 244.53 81.93 244.53 73.37 243.62 73.37 243.62 79.72"/><path class="cls-1" d="M283.64,74.1a3.55,3.55,0,0,1,2.49,1.08V74a3.75,3.75,0,0,0-2.44-.8,4.28,4.28,0,0,0-4.27,4.2,4.23,4.23,0,0,0,4.27,4.27,4.16,4.16,0,0,0,2.44-.79V79.78a3.71,3.71,0,0,1-2.41,1.06,3.35,3.35,0,0,1-3.38-3.37A3.39,3.39,0,0,1,283.64,74.1Z"/><polygon class="cls-1" points="292.37 76.66 292.37 74.23 295.69 74.23 295.69 73.37 291.44 73.37 291.44 81.56 295.69 81.56 295.69 80.71 292.37 80.71 292.37 77.51 295.6 77.51 295.6 76.66 292.37 76.66"/><polygon class="cls-1" points="307.35 79.72 300.95 73.03 300.95 81.56 301.89 81.56 301.89 75.25 308.26 81.93 308.26 73.37 307.35 73.37 307.35 79.72"/><polygon class="cls-1" points="315.15 81.56 316.08 81.56 316.08 74.23 318.06 74.23 318.06 73.37 313.18 73.37 313.18 74.23 315.15 74.23 315.15 81.56"/><path class="cls-1" d="M327.72,81.56L325.1,77.9a2.15,2.15,0,0,0,2.07-2.27c0-1.74-1.4-2.26-2.87-2.26H323v8.19h0.93V78h0.22l2.47,3.58h1.14Zm-3.83-7.33c1,0,2.36,0,2.36,1.4s-1.19,1.54-2.36,1.54V74.23Z"/><polygon class="cls-1" points="333.42 76.66 333.42 74.23 336.74 74.23 336.74 73.37 332.48 73.37 332.48 81.56 336.74 81.56 336.74 80.71 333.42 80.71 333.42 77.51 336.64 77.51 336.64 76.66 333.42 76.66"/><path class="cls-1" d="M182.82,5.24c-0.49-1.31-.57-2.37-2.13-2.37h-9.48c-0.9,0-2.37-.41-2.37.9,0,1.14,1.14,1.31,2,1.31,4.41,0,4.74.49,4.41,4.66l0.09,36.21c-0.25,4-.49,6.13-5.07,6.13-0.74,0-2.13.08-2.13,1.06,0,0.82.57,1,1.31,1,2.37,0,4.82-.33,7.27-0.33s4.9,0.33,7.36.33c0.74,0,1.8,0,1.8-1,0-1.14-1.72-1.06-2.53-1.06-5.8,0-5.72-4.17-5.39-9.15L177.67,9.24h0.57l18,41.44c0.16,0.57.41,1.55,1.23,1.55s1-.9,1.23-1.47l16.81-40.25h0l0,34.77c0,1.47.16,4.5-1.23,5.64a6.86,6.86,0,0,1-3.84,1.14c-0.82,0-2.53-.16-2.53,1.06,0,0.9.9,1,1.55,1,3.19,0,6.46-.33,9.73-0.33,2.62,0,5.23.33,7.85,0.33,0.65,0,1.55-.08,1.55-1,0-1.23-1.72-1.06-2.53-1.06A3.83,3.83,0,0,1,222.87,51c-1-1.14-.9-4.41-0.9-5.72V11.53c0-1.47-.33-4.66.65-5.8,0.74-.9,2.53-0.65,3.6-0.65,0.82,0,2-.16,2-1.31,0-1.31-1.47-.9-2.37-0.9h-9.07c-0.9,0-1.72,0-2.21,1.06L197.7,42.51Z"/><path class="cls-1" d="M214.47,8.41c-0.08-.08-0.59-1.69-0.94-0.57a16.48,16.48,0,0,0-.51,2.4l1.2,0.51A20.64,20.64,0,0,0,214.47,8.41Z"/></svg>