<?xml version="1.0" encoding="utf-8"?>
<!-- Generator: Adobe Illustrator 19.1.0, SVG Export Plug-In . SVG Version: 6.00 Build 0)  -->
<svg version="1.1" id="Layer_1" xmlns="http://www.w3.org/2000/svg" xmlns:xlink="http://www.w3.org/1999/xlink" x="0px" y="0px"
	 viewBox="0 0 227 74" style="enable-background:new 0 0 227 74;" xml:space="preserve">
<style type="text/css">
	.Arched_x0020_Green{fill:url(#SVGID_1_);stroke:#FFFFFF;stroke-width:0.25;stroke-miterlimit:1;}
	.st0{fill:#FFFFFF;}
</style>
<linearGradient id="SVGID_1_" gradientUnits="userSpaceOnUse" x1="-99.1001" y1="178.73" x2="-98.393" y2="178.0229">
	<stop  offset="0" style="stop-color:#20AC4B"/>
	<stop  offset="0.9831" style="stop-color:#19361A"/>
</linearGradient>
<path class="st0" d="M13.9,15.9C7.6,15.9,2.5,21,2.5,27.3v7.5l0,0v2c0,6.3,5.1,11.4,11.4,11.4c6.3,0,11.4-5.1,11.4-11.4v-7.5l0,0v-2
	C25.3,21,20.2,15.9,13.9,15.9z M24,28.7H13.7v-2.3h-1.2v3.5H24v6.9c0,5.6-4.6,10.1-10.1,10.1c-5.6,0-10.2-4.6-10.2-10.1v-1.4h10.3
	v2.3h1.2v-3.5H3.7v-6.9c0-5.6,4.6-10.1,10.2-10.1c5.6,0,10.1,4.6,10.1,10.1V28.7z"/>
<g>
	<path class="st0" d="M54.3,24.4v1.5c-2-1.1-4-1.7-5.9-1.7c-2.1,0-3.9,0.7-5.3,2.1c-1.4,1.4-2.1,3.2-2.1,5.3s0.7,3.9,2.1,5.3
		c1.4,1.4,3.3,2.1,5.7,2.1c1.7,0,3.2-0.3,4.6-1v-4.5h-3.5v-1.1h4.8v6.4c-2,0.9-3.9,1.4-5.9,1.4c-2.6,0-4.8-0.8-6.5-2.5
		c-1.7-1.6-2.6-3.7-2.6-6.1c0-2.4,0.9-4.5,2.6-6.1c1.7-1.6,3.8-2.4,6.4-2.4C50.3,23,52.3,23.4,54.3,24.4z"/>
	<path class="st0" d="M60,37.5v2.4h-1.6v-2.4H60z"/>
	<path class="st0" d="M78.5,24v1.4c-1.5-0.9-2.7-1.3-3.7-1.3c-1,0-1.8,0.3-2.5,0.9c-0.7,0.6-1,1.4-1,2.3c0,0.6,0.2,1.2,0.6,1.7
		c0.4,0.5,1.2,1,2.5,1.5s2.2,0.9,2.8,1.2s1.1,0.8,1.5,1.4s0.6,1.4,0.6,2.4c0,1.3-0.5,2.4-1.4,3.3c-0.9,0.9-2.1,1.3-3.4,1.3
		c-1.4,0-2.8-0.5-4.3-1.5v-1.5c1.6,1.2,3,1.8,4.2,1.8c1,0,1.8-0.3,2.5-1c0.7-0.6,1-1.4,1-2.4c0-0.7-0.2-1.3-0.6-1.9
		c-0.4-0.6-1.3-1.1-2.6-1.6c-1.3-0.5-2.2-0.9-2.8-1.2s-1-0.7-1.4-1.3c-0.4-0.6-0.6-1.3-0.6-2.2c0-1.2,0.5-2.3,1.4-3.1
		s2.1-1.3,3.4-1.3C76,23,77.2,23.3,78.5,24z"/>
	<path class="st0" d="M94.7,23.2v1.1h-6.3v15.6h-1.3V24.2h-6.3v-1.1H94.7z"/>
	<path class="st0" d="M106.2,23.2v1.1h-7.8v6.7h7.6V32h-7.6v6.8h8v1.1h-9.3V23.2H106.2z"/>
	<path class="st0" d="M109.3,23.2h4.6c1.8,0,3.1,0.4,4.1,1.2c0.9,0.8,1.4,1.9,1.4,3.2c0,1.4-0.5,2.5-1.4,3.3
		c-0.9,0.8-2.3,1.2-4.2,1.2h-3.2v7.8h-1.3V23.2z M110.6,24.2V31h3.1c1.4,0,2.5-0.3,3.2-0.9c0.7-0.6,1.1-1.4,1.1-2.5
		c0-1-0.4-1.8-1.1-2.5c-0.7-0.6-1.7-0.9-3.1-0.9H110.6z"/>
	<path class="st0" d="M135.7,23.2v16.7h-1.3V32h-11.1v7.9h-1.3V23.2h1.3v7.7h11.1v-7.7H135.7z"/>
	<path class="st0" d="M146.6,23.1l7.7,16.8h-1.4l-2.6-5.8h-8.2l-2.6,5.8h-1.4l7.7-16.8H146.6z M149.8,33l-3.6-7.9l-3.6,7.9H149.8z"
		/>
	<path class="st0" d="M171.7,23.2v16.7h-1.1L158,25.3v14.6h-1.3V23.2h1.1l12.7,14.6V23.2H171.7z"/>
	<path class="st0" d="M177.4,23.2v16.7h-1.3V23.2H177.4z"/>
	<path class="st0" d="M181.7,23.2h5.9c3,0,5.2,0.8,6.8,2.3c1.6,1.6,2.3,3.6,2.3,6c0,2.4-0.8,4.4-2.3,6c-1.5,1.6-3.7,2.4-6.6,2.4
		h-6.1V23.2z M183,24.2v14.6h4.7c2.2,0,4-0.7,5.4-2c1.4-1.3,2.2-3.1,2.2-5.3c0-2.1-0.7-3.9-2.1-5.3c-1.4-1.4-3.3-2-5.5-2H183z"/>
	<path class="st0" d="M209.3,23.2v1.1h-7.8v6.7h7.6V32h-7.6v6.8h8v1.1h-9.3V23.2H209.3z"/>
	<path class="st0" d="M220.4,24v1.4c-1.5-0.9-2.7-1.3-3.7-1.3c-1,0-1.8,0.3-2.5,0.9c-0.7,0.6-1,1.4-1,2.3c0,0.6,0.2,1.2,0.6,1.7
		c0.4,0.5,1.2,1,2.5,1.5c1.3,0.5,2.2,0.9,2.8,1.2c0.6,0.3,1.1,0.8,1.5,1.4c0.4,0.6,0.6,1.4,0.6,2.4c0,1.3-0.5,2.4-1.4,3.3
		c-0.9,0.9-2.1,1.3-3.4,1.3c-1.4,0-2.8-0.5-4.3-1.5v-1.5c1.6,1.2,3,1.8,4.2,1.8c1,0,1.8-0.3,2.5-1c0.7-0.6,1-1.4,1-2.4
		c0-0.7-0.2-1.3-0.6-1.9s-1.3-1.1-2.6-1.6c-1.3-0.5-2.2-0.9-2.8-1.2s-1-0.7-1.4-1.3s-0.6-1.3-0.6-2.2c0-1.2,0.5-2.3,1.4-3.1
		s2.1-1.3,3.4-1.3C217.8,23,219.1,23.3,220.4,24z"/>
</g>
<g>
	<path class="st0" d="M3.2,54.2v10.9c0,1.2-0.2,2-0.7,2.5s-1,0.7-1.6,0.7c-0.1,0-0.3,0-0.5,0l-0.1-0.8c0.2,0,0.3,0.1,0.5,0.1
		c1,0,1.5-0.7,1.5-2.2V54.2H3.2z"/>
	<path class="st0" d="M11.8,61.3H6.1c0,0.1,0,0.2,0,0.4c0,0.8,0.3,1.5,0.9,2c0.6,0.6,1.2,0.8,2,0.8c0.9,0,1.8-0.4,2.7-1.1v0.9
		c-0.8,0.6-1.7,1-2.8,1c-1,0-1.9-0.4-2.6-1.1c-0.7-0.7-1-1.6-1-2.7c0-1.1,0.3-1.9,0.9-2.6c0.6-0.7,1.4-1,2.4-1
		c0.9,0,1.6,0.3,2.3,0.9C11.5,59.4,11.8,60.2,11.8,61.3z M6.2,60.7h4.7c-0.3-1.4-1-2.1-2.3-2.1c-0.6,0-1.1,0.2-1.5,0.6
		S6.4,60,6.2,60.7z"/>
	<path class="st0" d="M23.8,57.9l-3.1,7.3h-0.4l-2.2-5.8l-2.2,5.8h-0.3l-3.1-7.3h0.8l2.5,5.9l2.3-5.9h0.4l2.2,5.9l2.5-5.9H23.8z"/>
	<path class="st0" d="M30.9,61.3h-5.7c0,0.1,0,0.2,0,0.4c0,0.8,0.3,1.5,0.9,2c0.6,0.6,1.2,0.8,2,0.8c0.9,0,1.8-0.4,2.7-1.1v0.9
		c-0.8,0.6-1.7,1-2.8,1c-1,0-1.9-0.4-2.6-1.1c-0.7-0.7-1-1.6-1-2.7c0-1.1,0.3-1.9,0.9-2.6c0.6-0.7,1.4-1,2.4-1
		c0.9,0,1.6,0.3,2.3,0.9C30.6,59.4,30.9,60.2,30.9,61.3z M25.4,60.7H30c-0.3-1.4-1-2.1-2.3-2.1c-0.6,0-1.1,0.2-1.5,0.6
		S25.5,60,25.4,60.7z"/>
	<path class="st0" d="M33.6,54.2v10.9h-0.8V54.2H33.6z"/>
	<path class="st0" d="M36.8,54.2v10.9H36V54.2H36.8z"/>
	<path class="st0" d="M45.2,61.3h-5.7c0,0.1,0,0.2,0,0.4c0,0.8,0.3,1.5,0.9,2c0.6,0.6,1.2,0.8,2,0.8c0.9,0,1.8-0.4,2.7-1.1v0.9
		c-0.8,0.6-1.7,1-2.8,1c-1,0-1.9-0.4-2.6-1.1c-0.7-0.7-1-1.6-1-2.7c0-1.1,0.3-1.9,0.9-2.6c0.6-0.7,1.4-1,2.4-1
		c0.9,0,1.6,0.3,2.3,0.9C44.9,59.4,45.2,60.2,45.2,61.3z M39.6,60.7h4.7c-0.3-1.4-1-2.1-2.3-2.1c-0.6,0-1.1,0.2-1.5,0.6
		S39.8,60,39.6,60.7z"/>
	<path class="st0" d="M52,58.7l-0.4,0.7c-0.6-0.5-1.1-0.8-1.4-0.8c-0.7,0-1.5,0.7-2.3,2.1v4.5h-0.8v-7.2h0.8v1.9h0
		c0.9-1.4,1.7-2,2.5-2C50.9,57.8,51.4,58.1,52,58.7z"/>
	<path class="st0" d="M57,58.4v0.8c-0.7-0.5-1.4-0.7-2-0.7c-0.4,0-0.8,0.1-1.1,0.4s-0.4,0.5-0.4,0.9c0,0.2,0.1,0.5,0.3,0.7
		c0.2,0.2,0.7,0.5,1.5,0.8c0.8,0.3,1.3,0.6,1.6,1c0.2,0.3,0.4,0.7,0.4,1.1c0,0.6-0.2,1-0.7,1.4s-1,0.6-1.7,0.6
		c-0.7,0-1.4-0.2-2.2-0.7v-0.7c0.8,0.4,1.6,0.7,2.3,0.7c0.4,0,0.8-0.1,1.1-0.4c0.3-0.2,0.4-0.5,0.4-0.9c0-0.2-0.1-0.5-0.3-0.7
		c-0.2-0.2-0.7-0.5-1.5-0.8c-0.8-0.3-1.3-0.6-1.6-1c-0.2-0.3-0.4-0.7-0.4-1.1c0-0.5,0.2-1,0.7-1.4c0.5-0.4,1-0.6,1.6-0.6
		C55.7,57.8,56.4,58,57,58.4z"/>
	<path class="st0" d="M70.7,59.7h0.9c-0.3,1.1-0.8,2.1-1.5,3.1l2.2,2.3h-1.1l-1.6-1.7c-1.1,1.2-2.3,1.8-3.8,1.8
		c-0.9,0-1.5-0.2-2.1-0.7c-0.5-0.5-0.8-1.1-0.8-1.9c0-1.4,0.9-2.5,2.7-3.3c-0.9-0.9-1.4-1.8-1.4-2.5c0-0.7,0.2-1.2,0.8-1.7
		s1.1-0.7,1.8-0.7c0.7,0,1.3,0.2,1.7,0.6c0.5,0.4,0.7,1,0.7,1.6c0,1.2-0.8,2.1-2.3,2.9l2.5,2.6C70,61.4,70.4,60.6,70.7,59.7z
		 M69,62.8l-2.8-2.9c-0.8,0.3-1.4,0.7-1.8,1.1c-0.4,0.4-0.6,0.9-0.6,1.5c0,0.6,0.2,1.1,0.6,1.4c0.4,0.3,0.9,0.5,1.6,0.5
		C67.1,64.5,68.1,63.9,69,62.8z M66.5,59c1.4-0.6,2-1.3,2-2.2c0-0.4-0.2-0.8-0.5-1.1s-0.7-0.4-1.2-0.4c-0.5,0-0.9,0.1-1.2,0.4
		c-0.3,0.3-0.5,0.7-0.5,1.1C65.1,57.4,65.6,58.2,66.5,59z"/>
	<path class="st0" d="M83.6,54.8v0.9c-0.9-0.6-1.8-0.8-2.4-0.8c-0.7,0-1.2,0.2-1.6,0.6s-0.7,0.9-0.7,1.5c0,0.4,0.1,0.8,0.4,1.1
		c0.3,0.3,0.8,0.7,1.6,1s1.4,0.6,1.8,0.8c0.4,0.2,0.7,0.5,1,0.9c0.3,0.4,0.4,0.9,0.4,1.5c0,0.8-0.3,1.5-0.9,2.1
		c-0.6,0.6-1.4,0.9-2.2,0.9c-0.9,0-1.8-0.3-2.8-1v-1c1.1,0.8,2,1.2,2.8,1.2c0.6,0,1.2-0.2,1.6-0.6c0.4-0.4,0.7-0.9,0.7-1.5
		c0-0.5-0.1-0.9-0.4-1.3c-0.3-0.4-0.8-0.7-1.7-1c-0.8-0.3-1.4-0.6-1.8-0.8c-0.4-0.2-0.7-0.5-0.9-0.8c-0.3-0.4-0.4-0.8-0.4-1.4
		c0-0.8,0.3-1.5,0.9-2c0.6-0.6,1.4-0.8,2.2-0.8C81.9,54.1,82.8,54.3,83.6,54.8z"/>
	<path class="st0" d="M86.9,54.2v1.3h-0.8v-1.3H86.9z M86.9,57.9v7.2h-0.8v-7.2H86.9z"/>
	<path class="st0" d="M90,54.2v10.9h-0.8V54.2H90z"/>
	<path class="st0" d="M98.3,57.9l-3.1,7.3h-0.5l-3.3-7.3h0.8l2.7,6.1l2.6-6.1H98.3z"/>
	<path class="st0" d="M105.4,61.3h-5.7c0,0.1,0,0.2,0,0.4c0,0.8,0.3,1.5,0.9,2c0.6,0.6,1.2,0.8,2,0.8c0.9,0,1.8-0.4,2.7-1.1v0.9
		c-0.8,0.6-1.7,1-2.8,1c-1,0-1.9-0.4-2.6-1.1c-0.7-0.7-1-1.6-1-2.7c0-1.1,0.3-1.9,0.9-2.6c0.6-0.7,1.4-1,2.4-1
		c0.9,0,1.6,0.3,2.3,0.9C105.1,59.4,105.4,60.2,105.4,61.3z M99.8,60.7h4.7c-0.3-1.4-1-2.1-2.3-2.1c-0.6,0-1.1,0.2-1.5,0.6
		S100,60,99.8,60.7z"/>
	<path class="st0" d="M112.2,58.7l-0.4,0.7c-0.6-0.5-1.1-0.8-1.4-0.8c-0.7,0-1.5,0.7-2.3,2.1v4.5h-0.8v-7.2h0.8v1.9h0
		c0.9-1.4,1.7-2,2.5-2C111.1,57.8,111.6,58.1,112.2,58.7z"/>
	<path class="st0" d="M117.2,58.4v0.8c-0.7-0.5-1.4-0.7-2-0.7c-0.4,0-0.8,0.1-1.1,0.4s-0.4,0.5-0.4,0.9c0,0.2,0.1,0.5,0.3,0.7
		s0.7,0.5,1.5,0.8c0.8,0.3,1.3,0.6,1.6,1c0.2,0.3,0.4,0.7,0.4,1.1c0,0.6-0.2,1-0.7,1.4s-1,0.6-1.7,0.6c-0.7,0-1.4-0.2-2.2-0.7v-0.7
		c0.8,0.4,1.6,0.7,2.3,0.7c0.4,0,0.8-0.1,1.1-0.4c0.3-0.2,0.4-0.5,0.4-0.9c0-0.2-0.1-0.5-0.3-0.7c-0.2-0.2-0.7-0.5-1.5-0.8
		c-0.8-0.3-1.3-0.6-1.6-1c-0.2-0.3-0.4-0.7-0.4-1.1c0-0.5,0.2-1,0.7-1.4s1-0.6,1.6-0.6C115.9,57.8,116.6,58,117.2,58.4z"/>
	<path class="st0" d="M120,57.9v1.3h0c0.6-0.9,1.3-1.4,2.3-1.4c1.1,0,1.9,0.6,2.3,1.7c0.7-1.2,1.5-1.7,2.5-1.7
		c0.7,0,1.3,0.3,1.8,0.8s0.7,1.2,0.7,2.1v4.4h-0.8v-4.1c0-0.8-0.2-1.4-0.5-1.8s-0.8-0.7-1.4-0.7c-0.4,0-0.8,0.1-1.2,0.4
		s-0.7,0.7-1,1.3v4.9H124V61c0-0.8-0.2-1.4-0.5-1.8s-0.8-0.6-1.4-0.6c-0.8,0-1.6,0.5-2.2,1.5v5h-0.8v-7.2H120z"/>
	<path class="st0" d="M132.7,54.2v1.3h-0.8v-1.3H132.7z M132.7,57.9v7.2h-0.8v-7.2H132.7z"/>
	<path class="st0" d="M136.6,55.6v2.4h2v0.6h-2v4.3c0,0.7,0.1,1.1,0.2,1.4c0.1,0.2,0.4,0.3,0.9,0.3c0.4,0,0.8-0.1,1.3-0.4v0.7
		c-0.5,0.2-1,0.4-1.5,0.4c-0.5,0-0.9-0.1-1.2-0.4s-0.5-0.6-0.5-1.1v-5.2h-1.9v-0.6h1.9v-1.7l0.5-0.7H136.6z"/>
	<path class="st0" d="M141.1,54.2v5h0c0.6-0.9,1.4-1.4,2.4-1.4c0.8,0,1.5,0.3,1.9,0.8c0.5,0.5,0.7,1.2,0.7,2.1v4.4h-0.8V61
		c0-1.7-0.7-2.5-2-2.5c-0.9,0-1.7,0.5-2.4,1.5v5h-0.8V54.2H141.1z"/>
	<path class="st0" d="M152.2,58.4v0.8c-0.7-0.5-1.4-0.7-2-0.7c-0.4,0-0.8,0.1-1.1,0.4s-0.4,0.5-0.4,0.9c0,0.2,0.1,0.5,0.3,0.7
		s0.7,0.5,1.5,0.8c0.8,0.3,1.3,0.6,1.6,1c0.2,0.3,0.4,0.7,0.4,1.1c0,0.6-0.2,1-0.7,1.4s-1,0.6-1.7,0.6c-0.7,0-1.4-0.2-2.2-0.7v-0.7
		c0.8,0.4,1.6,0.7,2.3,0.7c0.4,0,0.8-0.1,1.1-0.4c0.3-0.2,0.4-0.5,0.4-0.9c0-0.2-0.1-0.5-0.3-0.7c-0.2-0.2-0.7-0.5-1.5-0.8
		c-0.8-0.3-1.3-0.6-1.6-1c-0.2-0.3-0.4-0.7-0.4-1.1c0-0.5,0.2-1,0.7-1.4s1-0.6,1.6-0.6C150.9,57.8,151.5,58,152.2,58.4z"/>
	<path class="st0" d="M162.7,58.4v0.8c-0.7-0.5-1.4-0.7-2-0.7c-0.4,0-0.8,0.1-1.1,0.4s-0.4,0.5-0.4,0.9c0,0.2,0.1,0.5,0.3,0.7
		s0.7,0.5,1.5,0.8c0.8,0.3,1.3,0.6,1.6,1c0.2,0.3,0.4,0.7,0.4,1.1c0,0.6-0.2,1-0.7,1.4s-1,0.6-1.7,0.6c-0.7,0-1.4-0.2-2.2-0.7v-0.7
		c0.8,0.4,1.6,0.7,2.3,0.7c0.4,0,0.8-0.1,1.1-0.4c0.3-0.2,0.4-0.5,0.4-0.9c0-0.2-0.1-0.5-0.3-0.7c-0.2-0.2-0.7-0.5-1.5-0.8
		c-0.8-0.3-1.3-0.6-1.6-1c-0.2-0.3-0.4-0.7-0.4-1.1c0-0.5,0.2-1,0.7-1.4s1-0.6,1.6-0.6C161.4,57.8,162,58,162.7,58.4z"/>
	<path class="st0" d="M165.5,54.2v1.3h-0.8v-1.3H165.5z M165.5,57.9v7.2h-0.8v-7.2H165.5z"/>
	<path class="st0" d="M168.6,57.9v1.2h0c0.6-0.9,1.4-1.4,2.4-1.4c0.8,0,1.5,0.3,1.9,0.8c0.5,0.5,0.7,1.2,0.7,2.2v4.4h-0.8V61
		c0-1.7-0.7-2.5-2-2.5c-1,0-1.7,0.5-2.4,1.5v5h-0.8v-7.2H168.6z"/>
	<path class="st0" d="M180.9,58.2V59c-0.7-0.3-1.3-0.5-1.9-0.5c-0.8,0-1.5,0.3-2,0.8c-0.5,0.6-0.8,1.3-0.8,2.2
		c0,0.9,0.3,1.6,0.8,2.2c0.5,0.5,1.2,0.8,2,0.8c0.6,0,1.3-0.1,1.9-0.4v0.8c-0.7,0.2-1.4,0.4-2,0.4c-1.1,0-1.9-0.3-2.6-1
		c-0.6-0.7-1-1.5-1-2.6c0-1.1,0.3-2.1,1-2.8c0.7-0.7,1.5-1.1,2.5-1.1C179.6,57.8,180.2,57.9,180.9,58.2z"/>
	<path class="st0" d="M188.5,61.3h-5.7c0,0.1,0,0.2,0,0.4c0,0.8,0.3,1.5,0.9,2c0.6,0.6,1.2,0.8,2,0.8c0.9,0,1.8-0.4,2.7-1.1v0.9
		c-0.8,0.6-1.7,1-2.8,1c-1,0-1.9-0.4-2.6-1.1c-0.7-0.7-1-1.6-1-2.7c0-1.1,0.3-1.9,0.9-2.6c0.6-0.7,1.4-1,2.4-1
		c0.9,0,1.6,0.3,2.3,0.9C188.2,59.4,188.5,60.2,188.5,61.3z M183,60.7h4.7c-0.3-1.4-1-2.1-2.3-2.1c-0.6,0-1.1,0.2-1.5,0.6
		S183.1,60,183,60.7z"/>
	<path class="st0" d="M198.3,54.2v10.9h-0.8V54.2H198.3z"/>
	<path class="st0" d="M203.3,65.3l-0.4-0.6c2.4-1.7,3.8-3.5,4.1-5.4c-0.8,0.5-1.6,0.8-2.4,0.8c-0.9,0-1.6-0.3-2.2-0.9
		c-0.6-0.6-0.9-1.3-0.9-2.1c0-0.9,0.3-1.6,0.9-2.2s1.3-0.9,2.2-0.9c1,0,1.9,0.3,2.5,1c0.6,0.7,0.9,1.6,0.9,2.8
		C207.9,60.6,206.3,63.1,203.3,65.3z M207,58.3c0-0.2,0-0.3,0-0.5c0-0.9-0.2-1.7-0.7-2.2c-0.4-0.5-1-0.8-1.8-0.8
		c-0.6,0-1.2,0.2-1.6,0.6c-0.4,0.4-0.7,1-0.7,1.6c0,0.6,0.2,1.2,0.6,1.6c0.4,0.4,1,0.7,1.6,0.7C205.5,59.3,206.3,59,207,58.3z"/>
	<path class="st0" d="M213.2,54.1c1,0,1.8,0.5,2.5,1.5c0.7,1,1,2.4,1,4.2c0,1.7-0.3,3-1,4c-0.7,1-1.5,1.5-2.5,1.5
		c-1,0-1.9-0.5-2.5-1.5c-0.7-1-1-2.3-1-3.9c0-2,0.4-3.5,1.1-4.4S212.3,54.1,213.2,54.1z M213.2,64.5c0.8,0,1.5-0.5,2-1.4
		c0.5-0.9,0.7-2.1,0.7-3.5c0-1.4-0.2-2.5-0.7-3.4s-1.1-1.4-1.9-1.4c-0.8,0-1.4,0.4-1.9,1.3s-0.8,2.1-0.8,3.5c0,1.4,0.2,2.6,0.7,3.5
		C211.8,64.1,212.4,64.5,213.2,64.5z"/>
	<path class="st0" d="M223,54.1l0.5,0.6c-2.3,1.7-3.7,3.5-4.1,5.4c0.8-0.6,1.6-0.9,2.4-0.9c0.9,0,1.6,0.3,2.2,0.9s0.9,1.3,0.9,2.1
		c0,0.9-0.3,1.6-0.9,2.2c-0.6,0.6-1.3,0.9-2.2,0.9c-1,0-1.8-0.3-2.4-1c-0.6-0.7-0.9-1.6-0.9-2.8C218.5,58.8,220,56.3,223,54.1z
		 M219.3,61c0,0.2,0,0.4,0,0.6c0,0.9,0.2,1.6,0.7,2.1c0.5,0.5,1.1,0.8,1.8,0.8c0.7,0,1.2-0.2,1.7-0.6c0.4-0.4,0.7-0.9,0.7-1.6
		c0-0.7-0.2-1.2-0.7-1.7s-1-0.7-1.7-0.7C220.9,60,220.1,60.3,219.3,61z"/>
</g>
</svg>
