<?xml version="1.0" encoding="UTF-8" standalone="no"?>
<!DOCTYPE svg PUBLIC "-//W3C//DTD SVG 1.1//EN" "http://www.w3.org/Graphics/SVG/1.1/DTD/svg11.dtd">
<svg width="100%" height="100%" viewBox="0 0 227 74" version="1.1" xmlns="http://www.w3.org/2000/svg" xmlns:xlink="http://www.w3.org/1999/xlink" xml:space="preserve" xmlns:serif="http://www.serif.com/" style="fill-rule:evenodd;clip-rule:evenodd;stroke-linejoin:round;stroke-miterlimit:2;">
    <path d="M13.9,15.9C7.6,15.9 2.5,21 2.5,27.3L2.5,36.8C2.5,43.1 7.6,48.2 13.9,48.2C20.2,48.2 25.3,43.1 25.3,36.8L25.3,27.3C25.3,21 20.2,15.9 13.9,15.9ZM24,28.7L13.7,28.7L13.7,26.4L12.5,26.4L12.5,29.9L24,29.9L24,36.8C24,42.4 19.4,46.9 13.9,46.9C8.3,46.9 3.7,42.3 3.7,36.8L3.7,35.4L14,35.4L14,37.7L15.2,37.7L15.2,34.2L3.7,34.2L3.7,27.3C3.7,21.7 8.3,17.2 13.9,17.2C19.5,17.2 24,21.8 24,27.3L24,28.7Z" style="fill-rule:nonzero;"/>
    <g>
        <path d="M54.3,24.4L54.3,25.9C52.3,24.8 50.3,24.2 48.4,24.2C46.3,24.2 44.5,24.9 43.1,26.3C41.7,27.7 41,29.5 41,31.6C41,33.7 41.7,35.5 43.1,36.9C44.5,38.3 46.4,39 48.8,39C50.5,39 52,38.7 53.4,38L53.4,33.5L49.9,33.5L49.9,32.4L54.7,32.4L54.7,38.8C52.7,39.7 50.8,40.2 48.8,40.2C46.2,40.2 44,39.4 42.3,37.7C40.6,36.1 39.7,34 39.7,31.6C39.7,29.2 40.6,27.1 42.3,25.5C44,23.9 46.1,23.1 48.7,23.1C50.3,23 52.3,23.4 54.3,24.4Z" style="fill-rule:nonzero;"/>
        <rect x="58.4" y="37.5" width="1.6" height="2.4" style="fill-rule:nonzero;"/>
        <path d="M78.5,24L78.5,25.4C77,24.5 75.8,24.1 74.8,24.1C73.8,24.1 73,24.4 72.3,25C71.6,25.6 71.3,26.4 71.3,27.3C71.3,27.9 71.5,28.5 71.9,29C72.3,29.5 73.1,30 74.4,30.5C75.7,31 76.6,31.4 77.2,31.7C77.8,32 78.3,32.5 78.7,33.1C79.1,33.7 79.3,34.5 79.3,35.5C79.3,36.8 78.8,37.9 77.9,38.8C77,39.7 75.8,40.1 74.5,40.1C73.1,40.1 71.7,39.6 70.2,38.6L70.2,37.1C71.8,38.3 73.2,38.9 74.4,38.9C75.4,38.9 76.2,38.6 76.9,37.9C77.6,37.3 77.9,36.5 77.9,35.5C77.9,34.8 77.7,34.2 77.3,33.6C76.9,33 76,32.5 74.7,32C73.4,31.5 72.5,31.1 71.9,30.8C71.3,30.5 70.9,30.1 70.5,29.5C70.1,28.9 69.9,28.2 69.9,27.3C69.9,26.1 70.4,25 71.3,24.2C72.2,23.4 73.4,22.9 74.7,22.9C76,23 77.2,23.3 78.5,24Z" style="fill-rule:nonzero;"/>
        <path d="M94.7,23.1L94.7,24.3L88.4,24.3L88.4,39.9L87.1,39.9L87.1,24.2L80.8,24.2L80.8,23.1L94.7,23.1Z" style="fill-rule:nonzero;"/>
        <path d="M106.2,23.2L106.2,24.3L98.4,24.3L98.4,31L106,31L106,32L98.4,32L98.4,38.8L106.4,38.8L106.4,39.9L97.1,39.9L97.1,23.2L106.2,23.2Z" style="fill-rule:nonzero;"/>
        <path d="M109.3,23.2L113.9,23.2C115.7,23.2 117,23.6 118,24.4C118.9,25.2 119.4,26.3 119.4,27.6C119.4,29 118.9,30.1 118,30.9C117.1,31.7 115.7,32.1 113.8,32.1L110.6,32.1L110.6,39.9L109.3,39.9L109.3,23.2ZM110.6,24.2L110.6,31L113.7,31C115.1,31 116.2,30.7 116.9,30.1C117.6,29.5 118,28.7 118,27.6C118,26.6 117.6,25.8 116.9,25.1C116.2,24.5 115.2,24.2 113.8,24.2L110.6,24.2Z" style="fill-rule:nonzero;"/>
        <path d="M135.7,23.2L135.7,39.9L134.4,39.9L134.4,32L123.3,32L123.3,39.9L122,39.9L122,23.2L123.3,23.2L123.3,30.9L134.4,30.9L134.4,23.2L135.7,23.2Z" style="fill-rule:nonzero;"/>
        <path d="M146.6,23.1L154.3,39.9L152.9,39.9L150.3,34.1L142.1,34.1L139.5,39.9L138.1,39.9L145.8,23.1L146.6,23.1ZM149.8,33L146.2,25.1L142.6,33L149.8,33Z" style="fill-rule:nonzero;"/>
        <path d="M171.7,23.2L171.7,39.9L170.6,39.9L158,25.3L158,39.9L156.7,39.9L156.7,23.2L157.8,23.2L170.5,37.8L170.5,23.2L171.7,23.2Z" style="fill-rule:nonzero;"/>
        <rect x="176.1" y="23.2" width="1.3" height="16.7" style="fill-rule:nonzero;"/>
        <path d="M181.7,23.2L187.6,23.2C190.6,23.2 192.8,24 194.4,25.5C196,27.1 196.7,29.1 196.7,31.5C196.7,33.9 195.9,35.9 194.4,37.5C192.9,39.1 190.7,39.9 187.8,39.9L181.7,39.9L181.7,23.2ZM183,24.2L183,38.8L187.7,38.8C189.9,38.8 191.7,38.1 193.1,36.8C194.5,35.5 195.3,33.7 195.3,31.5C195.3,29.4 194.6,27.6 193.2,26.2C191.8,24.8 189.9,24.2 187.7,24.2L183,24.2Z" style="fill-rule:nonzero;"/>
        <path d="M209.3,23.2L209.3,24.3L201.5,24.3L201.5,31L209.1,31L209.1,32L201.5,32L201.5,38.8L209.5,38.8L209.5,39.9L200.2,39.9L200.2,23.2L209.3,23.2Z" style="fill-rule:nonzero;"/>
        <path d="M220.4,24L220.4,25.4C218.9,24.5 217.7,24.1 216.7,24.1C215.7,24.1 214.9,24.4 214.2,25C213.5,25.6 213.2,26.4 213.2,27.3C213.2,27.9 213.4,28.5 213.8,29C214.2,29.5 215,30 216.3,30.5C217.6,31 218.5,31.4 219.1,31.7C219.7,32 220.2,32.5 220.6,33.1C221,33.7 221.2,34.5 221.2,35.5C221.2,36.8 220.7,37.9 219.8,38.8C218.9,39.7 217.7,40.1 216.4,40.1C215,40.1 213.6,39.6 212.1,38.6L212.1,37.1C213.7,38.3 215.1,38.9 216.3,38.9C217.3,38.9 218.1,38.6 218.8,37.9C219.5,37.3 219.8,36.5 219.8,35.5C219.8,34.8 219.6,34.2 219.2,33.6C218.8,33 217.9,32.5 216.6,32C215.3,31.5 214.4,31.1 213.8,30.8C213.2,30.5 212.8,30.1 212.4,29.5C212,28.9 211.8,28.2 211.8,27.3C211.8,26.1 212.3,25 213.2,24.2C214.1,23.4 215.3,22.9 216.6,22.9C217.8,23 219.1,23.3 220.4,24Z" style="fill-rule:nonzero;"/>
    </g>
    <g>
        <path d="M3.2,54.2L3.2,65.1C3.2,66.3 3,67.1 2.5,67.6C2,68.1 1.5,68.3 0.9,68.3L0.4,68.3L0.3,67.5C0.5,67.5 0.6,67.6 0.8,67.6C1.8,67.6 2.3,66.9 2.3,65.4L2.3,54.2L3.2,54.2Z" style="fill-rule:nonzero;"/>
        <path d="M11.8,61.3L6.1,61.3L6.1,61.7C6.1,62.5 6.4,63.2 7,63.7C7.6,64.3 8.2,64.5 9,64.5C9.9,64.5 10.8,64.1 11.7,63.4L11.7,64.3C10.9,64.9 10,65.3 8.9,65.3C7.9,65.3 7,64.9 6.3,64.2C5.6,63.5 5.3,62.6 5.3,61.5C5.3,60.4 5.6,59.6 6.2,58.9C6.8,58.2 7.6,57.9 8.6,57.9C9.5,57.9 10.2,58.2 10.9,58.8C11.5,59.4 11.8,60.2 11.8,61.3ZM6.2,60.7L10.9,60.7C10.6,59.3 9.9,58.6 8.6,58.6C8,58.6 7.5,58.8 7.1,59.2C6.7,59.6 6.4,60 6.2,60.7Z" style="fill-rule:nonzero;"/>
        <path d="M23.8,57.9L20.7,65.2L20.3,65.2L18.1,59.4L15.9,65.2L15.6,65.2L12.5,57.9L13.3,57.9L15.8,63.8L18.1,57.9L18.5,57.9L20.7,63.8L23.2,57.9L23.8,57.9Z" style="fill-rule:nonzero;"/>
        <path d="M30.9,61.3L25.2,61.3L25.2,61.7C25.2,62.5 25.5,63.2 26.1,63.7C26.7,64.3 27.3,64.5 28.1,64.5C29,64.5 29.9,64.1 30.8,63.4L30.8,64.3C30,64.9 29.1,65.3 28,65.3C27,65.3 26.1,64.9 25.4,64.2C24.7,63.5 24.4,62.6 24.4,61.5C24.4,60.4 24.7,59.6 25.3,58.9C25.9,58.2 26.7,57.9 27.7,57.9C28.6,57.9 29.3,58.2 30,58.8C30.6,59.4 30.9,60.2 30.9,61.3ZM25.4,60.7L30,60.7C29.7,59.3 29,58.6 27.7,58.6C27.1,58.6 26.6,58.8 26.2,59.2C25.8,59.6 25.5,60 25.4,60.7Z" style="fill-rule:nonzero;"/>
        <rect x="32.8" y="54.2" width="0.8" height="10.9" style="fill-rule:nonzero;"/>
        <rect x="36" y="54.2" width="0.8" height="10.9" style="fill-rule:nonzero;"/>
        <path d="M45.2,61.3L39.5,61.3L39.5,61.7C39.5,62.5 39.8,63.2 40.4,63.7C41,64.3 41.6,64.5 42.4,64.5C43.3,64.5 44.2,64.1 45.1,63.4L45.1,64.3C44.3,64.9 43.4,65.3 42.3,65.3C41.3,65.3 40.4,64.9 39.7,64.2C39,63.5 38.7,62.6 38.7,61.5C38.7,60.4 39,59.6 39.6,58.9C40.2,58.2 41,57.9 42,57.9C42.9,57.9 43.6,58.2 44.3,58.8C44.9,59.4 45.2,60.2 45.2,61.3ZM39.6,60.7L44.3,60.7C44,59.3 43.3,58.6 42,58.6C41.4,58.6 40.9,58.8 40.5,59.2C40.1,59.6 39.8,60 39.6,60.7Z" style="fill-rule:nonzero;"/>
        <path d="M52,58.7L51.6,59.4C51,58.9 50.5,58.6 50.2,58.6C49.5,58.6 48.7,59.3 47.9,60.7L47.9,65.2L47.1,65.2L47.1,58L47.9,58L47.9,59.9C48.8,58.5 49.6,57.9 50.4,57.9C50.9,57.8 51.4,58.1 52,58.7Z" style="fill-rule:nonzero;"/>
        <path d="M57,58.4L57,59.2C56.3,58.7 55.6,58.5 55,58.5C54.6,58.5 54.2,58.6 53.9,58.9C53.6,59.2 53.5,59.4 53.5,59.8C53.5,60 53.6,60.3 53.8,60.5C54,60.7 54.5,61 55.3,61.3C56.1,61.6 56.6,61.9 56.9,62.3C57.1,62.6 57.3,63 57.3,63.4C57.3,64 57.1,64.4 56.6,64.8C56.1,65.2 55.6,65.4 54.9,65.4C54.2,65.4 53.5,65.2 52.7,64.7L52.7,64C53.5,64.4 54.3,64.7 55,64.7C55.4,64.7 55.8,64.6 56.1,64.3C56.4,64.1 56.5,63.8 56.5,63.4C56.5,63.2 56.4,62.9 56.2,62.7C56,62.5 55.5,62.2 54.7,61.9C53.9,61.6 53.4,61.3 53.1,60.9C52.9,60.6 52.7,60.2 52.7,59.8C52.7,59.3 52.9,58.8 53.4,58.4C53.9,58 54.4,57.8 55,57.8C55.7,57.8 56.4,58 57,58.4Z" style="fill-rule:nonzero;"/>
        <path d="M70.7,59.7L71.6,59.7C71.3,60.8 70.8,61.8 70.1,62.8L72.3,65.1L71.2,65.1L69.6,63.4C68.5,64.6 67.3,65.2 65.8,65.2C64.9,65.2 64.3,65 63.7,64.5C63.2,64 62.9,63.4 62.9,62.6C62.9,61.2 63.8,60.1 65.6,59.3C64.7,58.4 64.2,57.5 64.2,56.8C64.2,56.1 64.4,55.6 65,55.1C65.6,54.6 66.1,54.4 66.8,54.4C67.5,54.4 68.1,54.6 68.5,55C69,55.4 69.2,56 69.2,56.6C69.2,57.8 68.4,58.7 66.9,59.5L69.4,62.1C70,61.4 70.4,60.6 70.7,59.7ZM69,62.8L66.2,59.9C65.4,60.2 64.8,60.6 64.4,61C64,61.4 63.8,61.9 63.8,62.5C63.8,63.1 64,63.6 64.4,63.9C64.8,64.2 65.3,64.4 66,64.4C67.1,64.5 68.1,63.9 69,62.8ZM66.5,59C67.9,58.4 68.5,57.7 68.5,56.8C68.5,56.4 68.3,56 68,55.7C67.7,55.4 67.3,55.3 66.8,55.3C66.3,55.3 65.9,55.4 65.6,55.7C65.3,56 65.1,56.4 65.1,56.8C65.1,57.4 65.6,58.2 66.5,59Z" style="fill-rule:nonzero;"/>
        <path d="M83.6,54.8L83.6,55.7C82.7,55.1 81.8,54.9 81.2,54.9C80.5,54.9 80,55.1 79.6,55.5C79.2,55.9 78.9,56.4 78.9,57C78.9,57.4 79,57.8 79.3,58.1C79.6,58.4 80.1,58.8 80.9,59.1C81.7,59.4 82.3,59.7 82.7,59.9C83.1,60.1 83.4,60.4 83.7,60.8C84,61.2 84.1,61.7 84.1,62.3C84.1,63.1 83.8,63.8 83.2,64.4C82.6,65 81.8,65.3 81,65.3C80.1,65.3 79.2,65 78.2,64.3L78.2,63.3C79.3,64.1 80.2,64.5 81,64.5C81.6,64.5 82.2,64.3 82.6,63.9C83,63.5 83.3,63 83.3,62.4C83.3,61.9 83.2,61.5 82.9,61.1C82.6,60.7 82.1,60.4 81.2,60.1C80.4,59.8 79.8,59.5 79.4,59.3C79,59.1 78.7,58.8 78.5,58.5C78.2,58.1 78.1,57.7 78.1,57.1C78.1,56.3 78.4,55.6 79,55.1C79.6,54.5 80.4,54.3 81.2,54.3C81.9,54.1 82.8,54.3 83.6,54.8Z" style="fill-rule:nonzero;"/>
        <path d="M86.9,54.2L86.9,55.5L86.1,55.5L86.1,54.2L86.9,54.2ZM86.9,57.9L86.9,65.1L86.1,65.1L86.1,57.9L86.9,57.9Z" style="fill-rule:nonzero;"/>
        <rect x="89.2" y="54.2" width="0.8" height="10.9" style="fill-rule:nonzero;"/>
        <path d="M98.3,57.9L95.2,65.2L94.7,65.2L91.4,57.9L92.2,57.9L94.9,64L97.5,57.9L98.3,57.9Z" style="fill-rule:nonzero;"/>
        <path d="M105.4,61.3L99.7,61.3L99.7,61.7C99.7,62.5 100,63.2 100.6,63.7C101.2,64.3 101.8,64.5 102.6,64.5C103.5,64.5 104.4,64.1 105.3,63.4L105.3,64.3C104.5,64.9 103.6,65.3 102.5,65.3C101.5,65.3 100.6,64.9 99.9,64.2C99.2,63.5 98.9,62.6 98.9,61.5C98.9,60.4 99.2,59.6 99.8,58.9C100.4,58.2 101.2,57.9 102.2,57.9C103.1,57.9 103.8,58.2 104.5,58.8C105.1,59.4 105.4,60.2 105.4,61.3ZM99.8,60.7L104.5,60.7C104.2,59.3 103.5,58.6 102.2,58.6C101.6,58.6 101.1,58.8 100.7,59.2C100.3,59.6 100,60 99.8,60.7Z" style="fill-rule:nonzero;"/>
        <path d="M112.2,58.7L111.8,59.4C111.2,58.9 110.7,58.6 110.4,58.6C109.7,58.6 108.9,59.3 108.1,60.7L108.1,65.2L107.3,65.2L107.3,58L108.1,58L108.1,59.9C109,58.5 109.8,57.9 110.6,57.9C111.1,57.8 111.6,58.1 112.2,58.7Z" style="fill-rule:nonzero;"/>
        <path d="M117.2,58.4L117.2,59.2C116.5,58.7 115.8,58.5 115.2,58.5C114.8,58.5 114.4,58.6 114.1,58.9C113.8,59.2 113.7,59.4 113.7,59.8C113.7,60 113.8,60.3 114,60.5C114.2,60.7 114.7,61 115.5,61.3C116.3,61.6 116.8,61.9 117.1,62.3C117.3,62.6 117.5,63 117.5,63.4C117.5,64 117.3,64.4 116.8,64.8C116.3,65.2 115.8,65.4 115.1,65.4C114.4,65.4 113.7,65.2 112.9,64.7L112.9,64C113.7,64.4 114.5,64.7 115.2,64.7C115.6,64.7 116,64.6 116.3,64.3C116.6,64.1 116.7,63.8 116.7,63.4C116.7,63.2 116.6,62.9 116.4,62.7C116.2,62.5 115.7,62.2 114.9,61.9C114.1,61.6 113.6,61.3 113.3,60.9C113.1,60.6 112.9,60.2 112.9,59.8C112.9,59.3 113.1,58.8 113.6,58.4C114.1,58 114.6,57.8 115.2,57.8C115.9,57.8 116.6,58 117.2,58.4Z" style="fill-rule:nonzero;"/>
        <path d="M120,57.9L120,59.2C120.6,58.3 121.3,57.8 122.3,57.8C123.4,57.8 124.2,58.4 124.6,59.5C125.3,58.3 126.1,57.8 127.1,57.8C127.8,57.8 128.4,58.1 128.9,58.6C129.4,59.1 129.6,59.8 129.6,60.7L129.6,65.1L128.8,65.1L128.8,61C128.8,60.2 128.6,59.6 128.3,59.2C128,58.8 127.5,58.5 126.9,58.5C126.5,58.5 126.1,58.6 125.7,58.9C125.3,59.2 125,59.6 124.7,60.2L124.7,65.1L124,65.1L124,61C124,60.2 123.8,59.6 123.5,59.2C123.2,58.8 122.7,58.6 122.1,58.6C121.3,58.6 120.5,59.1 119.9,60.1L119.9,65.1L119.1,65.1L119.1,57.9L120,57.9Z" style="fill-rule:nonzero;"/>
        <path d="M132.7,54.2L132.7,55.5L131.9,55.5L131.9,54.2L132.7,54.2ZM132.7,57.9L132.7,65.1L131.9,65.1L131.9,57.9L132.7,57.9Z" style="fill-rule:nonzero;"/>
        <path d="M136.6,55.6L136.6,58L138.6,58L138.6,58.6L136.6,58.6L136.6,62.9C136.6,63.6 136.7,64 136.8,64.3C136.9,64.5 137.2,64.6 137.7,64.6C138.1,64.6 138.5,64.5 139,64.2L139,64.9C138.5,65.1 138,65.3 137.5,65.3C137,65.3 136.6,65.2 136.3,64.9C136,64.6 135.8,64.3 135.8,63.8L135.8,58.6L133.9,58.6L133.9,58L135.8,58L135.8,56.3L136.3,55.6L136.6,55.6Z" style="fill-rule:nonzero;"/>
        <path d="M141.1,54.2L141.1,59.2C141.7,58.3 142.5,57.8 143.5,57.8C144.3,57.8 145,58.1 145.4,58.6C145.9,59.1 146.1,59.8 146.1,60.7L146.1,65.1L145.3,65.1L145.3,61C145.3,59.3 144.6,58.5 143.3,58.5C142.4,58.5 141.6,59 140.9,60L140.9,65L140.1,65L140.1,54.2L141.1,54.2Z" style="fill-rule:nonzero;"/>
        <path d="M152.2,58.4L152.2,59.2C151.5,58.7 150.8,58.5 150.2,58.5C149.8,58.5 149.4,58.6 149.1,58.9C148.8,59.2 148.7,59.4 148.7,59.8C148.7,60 148.8,60.3 149,60.5C149.2,60.7 149.7,61 150.5,61.3C151.3,61.6 151.8,61.9 152.1,62.3C152.3,62.6 152.5,63 152.5,63.4C152.5,64 152.3,64.4 151.8,64.8C151.3,65.2 150.8,65.4 150.1,65.4C149.4,65.4 148.7,65.2 147.9,64.7L147.9,64C148.7,64.4 149.5,64.7 150.2,64.7C150.6,64.7 151,64.6 151.3,64.3C151.6,64.1 151.7,63.8 151.7,63.4C151.7,63.2 151.6,62.9 151.4,62.7C151.2,62.5 150.7,62.2 149.9,61.9C149.1,61.6 148.6,61.3 148.3,60.9C148.1,60.6 147.9,60.2 147.9,59.8C147.9,59.3 148.1,58.8 148.6,58.4C149.1,58 149.6,57.8 150.2,57.8C150.9,57.8 151.5,58 152.2,58.4Z" style="fill-rule:nonzero;"/>
        <path d="M162.7,58.4L162.7,59.2C162,58.7 161.3,58.5 160.7,58.5C160.3,58.5 159.9,58.6 159.6,58.9C159.3,59.2 159.2,59.4 159.2,59.8C159.2,60 159.3,60.3 159.5,60.5C159.7,60.7 160.2,61 161,61.3C161.8,61.6 162.3,61.9 162.6,62.3C162.8,62.6 163,63 163,63.4C163,64 162.8,64.4 162.3,64.8C161.8,65.2 161.3,65.4 160.6,65.4C159.9,65.4 159.2,65.2 158.4,64.7L158.4,64C159.2,64.4 160,64.7 160.7,64.7C161.1,64.7 161.5,64.6 161.8,64.3C162.1,64.1 162.2,63.8 162.2,63.4C162.2,63.2 162.1,62.9 161.9,62.7C161.7,62.5 161.2,62.2 160.4,61.9C159.6,61.6 159.1,61.3 158.8,60.9C158.6,60.6 158.4,60.2 158.4,59.8C158.4,59.3 158.6,58.8 159.1,58.4C159.6,58 160.1,57.8 160.7,57.8C161.4,57.8 162,58 162.7,58.4Z" style="fill-rule:nonzero;"/>
        <path d="M165.5,54.2L165.5,55.5L164.7,55.5L164.7,54.2L165.5,54.2ZM165.5,57.9L165.5,65.1L164.7,65.1L164.7,57.9L165.5,57.9Z" style="fill-rule:nonzero;"/>
        <path d="M168.6,57.8L168.6,59.1C169.2,58.2 170,57.7 171,57.7C171.8,57.7 172.5,58 172.9,58.5C173.4,59 173.6,59.7 173.6,60.7L173.6,65.1L172.8,65.1L172.8,61C172.8,59.3 172.1,58.5 170.8,58.5C169.8,58.5 169.1,59 168.4,60L168.4,65L167.6,65L167.6,57.8L168.6,57.8Z" style="fill-rule:nonzero;"/>
        <path d="M180.9,58.2L180.9,59C180.2,58.7 179.6,58.5 179,58.5C178.2,58.5 177.5,58.8 177,59.3C176.5,59.9 176.2,60.6 176.2,61.5C176.2,62.4 176.5,63.1 177,63.7C177.5,64.2 178.2,64.5 179,64.5C179.6,64.5 180.3,64.4 180.9,64.1L180.9,64.9C180.2,65.1 179.5,65.3 178.9,65.3C177.8,65.3 177,65 176.3,64.3C175.7,63.6 175.3,62.8 175.3,61.7C175.3,60.6 175.6,59.6 176.3,58.9C177,58.2 177.8,57.8 178.8,57.8C179.6,57.8 180.2,57.9 180.9,58.2Z" style="fill-rule:nonzero;"/>
        <path d="M188.5,61.3L182.8,61.3L182.8,61.7C182.8,62.5 183.1,63.2 183.7,63.7C184.3,64.3 184.9,64.5 185.7,64.5C186.6,64.5 187.5,64.1 188.4,63.4L188.4,64.3C187.6,64.9 186.7,65.3 185.6,65.3C184.6,65.3 183.7,64.9 183,64.2C182.3,63.5 182,62.6 182,61.5C182,60.4 182.3,59.6 182.9,58.9C183.5,58.2 184.3,57.9 185.3,57.9C186.2,57.9 186.9,58.2 187.6,58.8C188.2,59.4 188.5,60.2 188.5,61.3ZM183,60.7L187.7,60.7C187.4,59.3 186.7,58.6 185.4,58.6C184.8,58.6 184.3,58.8 183.9,59.2C183.5,59.6 183.1,60 183,60.7Z" style="fill-rule:nonzero;"/>
        <rect x="197.5" y="54.2" width="0.8" height="10.9" style="fill-rule:nonzero;"/>
        <path d="M203.3,65.3L202.9,64.7C205.3,63 206.7,61.2 207,59.3C206.2,59.8 205.4,60.1 204.6,60.1C203.7,60.1 203,59.8 202.4,59.2C201.8,58.6 201.5,57.9 201.5,57.1C201.5,56.2 201.8,55.5 202.4,54.9C203,54.3 203.7,54 204.6,54C205.6,54 206.5,54.3 207.1,55C207.7,55.7 208,56.6 208,57.8C207.9,60.6 206.3,63.1 203.3,65.3ZM207,58.3L207,57.8C207,56.9 206.8,56.1 206.3,55.6C205.9,55.1 205.3,54.8 204.5,54.8C203.9,54.8 203.3,55 202.9,55.4C202.5,55.8 202.2,56.4 202.2,57C202.2,57.6 202.4,58.2 202.8,58.6C203.2,59 203.8,59.3 204.4,59.3C205.5,59.3 206.3,59 207,58.3Z" style="fill-rule:nonzero;"/>
        <path d="M213.2,54.1C214.2,54.1 215,54.6 215.7,55.6C216.4,56.6 216.7,58 216.7,59.8C216.7,61.5 216.4,62.8 215.7,63.8C215,64.8 214.2,65.3 213.2,65.3C212.2,65.3 211.3,64.8 210.7,63.8C210,62.8 209.7,61.5 209.7,59.9C209.7,57.9 210.1,56.4 210.8,55.5C211.5,54.6 212.3,54.1 213.2,54.1ZM213.2,64.5C214,64.5 214.7,64 215.2,63.1C215.7,62.2 215.9,61 215.9,59.6C215.9,58.2 215.7,57.1 215.2,56.2C214.7,55.3 214.1,54.8 213.3,54.8C212.5,54.8 211.9,55.2 211.4,56.1C210.9,57 210.6,58.2 210.6,59.6C210.6,61 210.8,62.2 211.3,63.1C211.8,64.1 212.4,64.5 213.2,64.5Z" style="fill-rule:nonzero;"/>
        <path d="M223,54.1L223.5,54.7C221.2,56.4 219.8,58.2 219.4,60.1C220.2,59.5 221,59.2 221.8,59.2C222.7,59.2 223.4,59.5 224,60.1C224.6,60.7 224.9,61.4 224.9,62.2C224.9,63.1 224.6,63.8 224,64.4C223.4,65 222.7,65.3 221.8,65.3C220.8,65.3 220,65 219.4,64.3C218.8,63.6 218.5,62.7 218.5,61.5C218.5,58.8 220,56.3 223,54.1ZM219.3,61L219.3,61.6C219.3,62.5 219.5,63.2 220,63.7C220.5,64.2 221.1,64.5 221.8,64.5C222.5,64.5 223,64.3 223.5,63.9C223.9,63.5 224.2,63 224.2,62.3C224.2,61.6 224,61.1 223.5,60.6C223,60.1 222.5,59.9 221.8,59.9C220.9,60 220.1,60.3 219.3,61Z" style="fill-rule:nonzero;"/>
    </g>
</svg>
