<svg width="456" height="297" viewBox="0 0 456 297" fill="none" xmlns="http://www.w3.org/2000/svg">
<g clip-path="url(#clip0_1048_661)">
<path d="M64.5865 66.6521C59.5511 65.5452 58.6112 57.6958 58.3091 51.8927C58.4769 49.3433 58.8462 46.0225 60.2561 42.7687C60.2561 42.7687 60.2561 42.5674 60.2561 42.3661C58.9805 36.6301 60.0882 30.4915 63.2437 25.9966C67.1713 19.8916 74.0529 17.208 81.673 18.8852C84.7949 19.5897 87.8497 20.965 90.5352 22.9441C90.6695 23.0447 90.7031 23.2124 90.6024 23.3466C90.5352 23.4472 90.401 23.5143 90.2667 23.4808C90.2667 23.4808 90.2331 23.4808 90.1995 23.4808C88.3533 22.6422 86.4398 22.0048 84.56 21.6023C76.537 19.8245 69.9911 22.2061 66.6006 28.1099C64.1501 32.1352 63.5123 36.6972 64.6536 41.9636C64.7543 42.8022 64.6536 44.144 64.0494 45.1503C62.8745 48.4376 62.4045 51.6243 62.7066 54.5762V54.811C62.9752 57.3604 63.4116 62.0901 65.3585 63.1635C65.3585 63.1635 65.4593 63.1635 65.4928 63.1635C66.6006 63.3983 68.3126 62.8281 69.5547 62.4256L69.7561 62.3585C74.4222 60.7148 78.5511 58.5344 82.2437 55.7503C82.9487 55.2136 83.3851 55.0794 84.1571 54.811C84.2578 54.7775 84.325 54.7104 84.4257 54.7439C84.4928 54.7439 84.5264 54.7775 84.56 54.811C84.6607 54.9117 84.6942 55.1129 84.56 55.2136C83.3515 56.6224 82.2437 57.4275 80.8002 58.8028C77.1077 62.0901 72.6766 64.7066 68.0441 66.3502C66.7684 66.7528 65.5935 66.8198 64.5865 66.585" fill="#8A6E4B"/>
<path d="M39.6114 50.3498C37.6308 50.115 35.8516 49.4106 34.4417 48.3036C31.7227 44.5802 30.8163 40.0853 29.9099 35.7246C29.6078 34.2822 29.3393 32.9068 28.97 31.5315L28.8022 30.76C28.3993 28.9822 27.9294 26.7683 28.2315 24.5208C28.5 22.4411 29.3057 20.5961 30.1114 18.8518L30.5142 17.9461C33.2333 11.4386 37.8993 6.03797 43.7403 2.78419C47.6679 0.637361 51.9647 -0.33542 55.8923 0.100654C63.8481 0.972802 68.3799 7.17847 67.4064 15.9C67.4064 16.0341 67.2721 16.1683 67.1043 16.1683C67.1043 16.1683 66.8693 16.0341 66.8357 15.9C66.4665 8.48669 62.7739 3.8576 56.6979 3.18672C51.4612 2.61647 45.4188 5.09873 40.9541 9.72783C37.9665 12.6797 35.7509 16.0341 34.3075 19.6904L33.8711 20.6297C33.1326 22.2398 32.4276 23.7493 32.2598 25.1581C32.0248 26.6005 32.3269 28.0765 32.629 29.7872C32.6962 30.1227 32.7633 30.4917 32.8304 30.8271L32.8976 31.3303C33.569 35.2885 34.2739 39.3809 35.3481 43.1714L35.4152 43.3726C35.7509 44.446 36.0866 45.4188 36.6909 46.2574C37.8658 47.096 39.4099 47.6998 40.9877 47.9011C42.3976 48.0688 43.7068 47.6663 44.9152 47.3308C46.258 46.9618 47.5336 46.3916 48.44 46.0226C50.9912 45.0163 52.8039 44.1106 54.9523 42.534C55.0195 42.5005 55.0866 42.4669 55.1538 42.4669C55.2209 42.4669 55.288 42.5005 55.3216 42.5676C55.4223 42.6682 55.4223 42.8359 55.3216 42.9701C52.8375 45.3517 51.2262 46.2239 48.44 48.0017C48.44 48.0017 45.5866 49.5447 44.2103 50.0144C42.7333 50.484 41.122 50.5846 39.5778 50.4169" fill="#8A6E4B"/>
<path d="M144.581 227.664C145.857 227.664 146.595 228.436 146.595 229.71C146.595 230.985 145.857 231.723 144.514 231.723C143.239 231.723 142.5 230.985 142.5 229.71C142.5 228.436 143.239 227.664 144.581 227.664ZM142.903 237.962C142.903 236.788 143.507 236.419 144.346 236.419H144.682C145.488 236.419 146.092 236.721 146.092 237.962V256.847C146.092 258.022 145.488 258.357 144.682 258.357H144.346C143.473 258.357 142.903 258.022 142.903 256.847V237.962Z" fill="#8A6E4B"/>
<path d="M170.799 245.543V256.847C170.799 258.022 170.161 258.357 169.389 258.357H168.986C168.18 258.357 167.576 258.022 167.576 256.847V245.879C167.576 241.618 165.495 238.968 161.702 238.968C158.445 238.968 155.995 240.78 154.753 243.463V256.847C154.753 258.022 154.115 258.357 153.343 258.357H152.974C152.101 258.357 151.564 258.022 151.564 256.847V236.755C151.564 236.755 152.034 236.419 152.638 236.419C153.645 236.419 154.652 236.922 154.686 239.203V240.243C156.196 237.794 158.815 236.117 162.171 236.117C167.945 236.117 170.765 239.975 170.765 245.543" fill="#8A6E4B"/>
<path d="M184.058 251.783V239.271H181.876C180.802 239.271 180.433 238.801 180.433 238.03V237.761C180.433 236.99 180.802 236.587 181.876 236.587H184.058V232.73C184.058 231.589 184.595 231.187 185.468 231.187H185.804C186.61 231.187 187.18 231.556 187.18 232.73V236.587H192.853C193.928 236.587 194.297 236.99 194.297 237.761V238.03C194.297 238.801 193.894 239.271 192.853 239.271H187.18V251.447C187.18 254.667 188.12 256.076 190.436 256.076C191.981 256.076 193.055 255.338 193.76 254.366C193.894 254.231 194.767 254.735 194.767 255.808C194.767 256.311 194.498 256.881 193.961 257.452C193.189 258.19 191.913 258.726 190.101 258.726C186.005 258.726 184.092 256.445 184.092 251.816" fill="#8A6E4B"/>
<path d="M217.023 245.577V256.814C217.023 257.988 216.385 258.323 215.613 258.323H215.21C214.405 258.323 213.8 257.988 213.8 256.814V245.879C213.8 241.518 211.652 238.935 207.892 238.935C203.864 238.935 200.977 241.686 200.977 245.979V256.814C200.977 257.988 200.339 258.323 199.567 258.323H199.198C198.325 258.323 197.788 257.988 197.788 256.814V227.597C197.788 227.597 198.258 227.228 198.862 227.228C199.903 227.228 200.944 227.765 200.944 230.146V240.411C202.387 237.727 204.972 236.084 208.396 236.084C214.17 236.084 216.99 239.941 216.99 245.577" fill="#8A6E4B"/>
<path d="M231.827 236.083C237.903 236.083 241.965 240.411 241.965 246.751V247.052C241.965 247.824 241.696 248.059 240.823 248.059H223.938C223.938 248.294 223.972 248.528 223.972 248.73C224.442 253.09 227.698 256.042 232.196 256.042C236.359 256.042 238.407 254.097 239.514 252.051C239.649 251.95 241.293 252.285 241.293 253.728C241.293 254.399 240.689 255.438 239.481 256.411C238.037 257.585 235.52 258.692 232.163 258.692C225.449 258.692 220.951 254.063 220.951 247.489C220.951 240.914 225.583 236.083 231.861 236.083M238.809 245.711C238.641 241.451 235.889 238.633 231.861 238.633C227.832 238.633 224.677 241.585 224.039 245.711H238.809Z" fill="#8A6E4B"/>
<path d="M250.995 247.254C250.995 240.68 255.795 235.883 262.341 235.883C265.597 235.883 267.914 236.889 269.458 238.197C270.968 239.371 271.64 240.881 271.64 241.887C271.64 243.699 269.189 244.068 269.055 243.833C268.048 241.418 266.202 239.539 262.442 239.539C258.246 239.539 255.124 242.793 255.124 247.288C255.124 251.783 258.212 255.171 262.442 255.171C266.168 255.171 268.081 253.259 269.055 250.844C269.189 250.609 271.64 250.944 271.64 252.789C271.64 253.728 270.968 255.238 269.424 256.479C267.914 257.754 265.564 258.793 262.341 258.793C255.762 258.793 250.995 253.997 250.995 247.254Z" fill="#8A6E4B"/>
<path d="M277.783 226.893C279.428 226.893 280.334 227.832 280.334 229.442C280.334 231.052 279.428 231.924 277.749 231.924C276.071 231.924 275.164 230.985 275.164 229.442C275.164 227.899 276.104 226.893 277.783 226.893ZM275.5 238.264C275.5 236.687 276.306 236.184 277.447 236.184H277.917C279.058 236.184 279.83 236.654 279.83 238.264V256.311C279.83 257.854 279.058 258.357 277.917 258.357H277.447C276.306 258.357 275.5 257.854 275.5 256.311V238.264Z" fill="#8A6E4B"/>
<path d="M286.376 251.615V239.941H284.698C283.322 239.941 282.852 239.338 282.852 238.298V237.996C282.852 236.956 283.355 236.419 284.698 236.419H286.376V232.964C286.376 231.455 287.115 230.918 288.29 230.918H288.726C289.867 230.918 290.572 231.388 290.572 232.964V236.419H295.608C297.018 236.419 297.454 236.922 297.454 237.962V238.264C297.454 239.338 296.95 239.941 295.608 239.941H290.572V251.112C290.572 253.896 291.344 255.237 293.526 255.237C294.936 255.237 295.943 254.567 296.615 253.661C296.749 253.527 297.823 254.164 297.823 255.506C297.823 256.177 297.555 256.881 296.917 257.451C296.044 258.223 294.634 258.76 292.822 258.76C288.357 258.76 286.343 256.277 286.343 251.581" fill="#8A6E4B"/>
<path d="M305.645 265.871L309.27 256.982C308.263 256.881 307.76 256.613 307.424 255.741L299.569 237.459C299.468 237.191 300.442 236.185 301.852 236.185C303.094 236.185 303.933 236.721 304.638 238.633L310.68 253.896L315.984 238.734C316.622 236.788 317.562 236.185 318.703 236.185C319.845 236.185 321.053 237.124 320.986 237.359L310.647 264.63C309.908 266.475 308.968 267.045 307.961 267.045C306.719 267.045 305.611 266.106 305.678 265.871" fill="#8A6E4B"/>
<path d="M44.1431 136.19C43.841 134.781 43.136 131.057 42.8339 129.481C40.9205 118.814 39.6784 111.937 39.7791 101.337C39.8127 95.8695 40.6184 90.536 43.5053 85.7392C46.2579 81.1772 50.3533 79.7348 55.288 81.8145C58.7456 83.2569 62.2703 83.5588 65.8957 83.1898C74.6237 82.3177 81.2703 74.3342 80.129 66.0487C79.7933 66.5184 77.8798 72.6234 72.5088 76.4139C69.7562 78.3595 63.4116 80.9424 58.712 78.5943C49.3798 73.9652 40.1148 77.4873 36.6908 87.3157C33.401 96.7081 34.3074 106.302 35.7844 115.895C37.2615 125.59 40.7862 137.364 40.182 137.733C36.6572 139.947 29.1378 144.743 24.371 150.043C24.1696 149.574 24.0353 149.339 23.9346 149.104C19.1343 136.659 15.1396 124.013 12.454 110.931C9.96995 98.8885 9.06358 86.7455 10.8427 74.5019C11.4134 70.443 12.2862 66.4848 14.2668 62.8285C17.7579 56.388 23.7332 54.845 29.9099 58.7697C31.4876 59.7424 32.9982 60.8159 34.576 61.7886C41.7933 66.3171 49.0106 70.812 57.0671 73.7639C58.8463 74.4012 60.7261 74.7367 62.5724 75.2063C62.606 75.0721 62.6396 74.9379 62.6731 74.7702C61.1625 73.8981 59.5848 73.1266 58.2085 72.1202C51.2597 67.0215 44.2774 61.9564 37.53 56.6564C27.6943 48.9412 14.7703 51.4235 8.76146 62.3589C6.10952 67.1892 5.03532 72.4892 4.46464 77.8898C3.65899 85.7727 4.16252 93.6556 5.16959 101.471C7.38514 119.082 12.4876 135.821 20.3763 151.721C20.9134 152.794 21.6184 153.7 20.712 155.108C14.8374 164.165 12.4876 174.262 12.0512 184.896C11.4805 198.548 14.2668 211.63 18.8993 224.411C21.8533 232.562 25.9487 240.109 31.5548 246.785C33.6025 249.2 35.9187 251.313 38.8728 252.621C42.901 254.399 47.03 253.661 49.7827 250.24C51.2261 248.428 52.401 246.248 53.106 244.034C54.818 238.868 55.2208 233.837 54.348 227.161C50.0848 207.706 45.5866 196.468 38.6042 181.508C34.6767 173.088 30.7827 164.669 26.8887 156.249C26.6537 155.746 26.3516 155.008 26.788 154.438C30.447 149.775 32.7297 148.031 35.1802 145.984C37.0601 144.408 39.1749 143.167 43.4046 140.483C45.1166 139.41 44.1431 136.156 44.1431 136.156M48.6413 245.074C48.1714 246.416 47.5 247.724 46.6608 248.864C45.2509 250.776 42.901 250.776 41.0212 249.301C40.5512 248.932 39.3427 247.925 38.9399 247.489C23.7332 231.019 17.8922 212.066 17.7244 189.827C17.6572 181.005 18.765 172.35 21.4505 163.931C21.9876 162.22 22.3233 161.281 22.8604 160.174C23.6325 158.53 23.901 158.765 24.0689 159.033C25.8145 162.757 27.5936 166.48 29.2721 170.237C36.8586 187.143 42.901 198.783 48.8763 222.13C50.9912 230.784 51.2261 237.459 48.6413 245.074Z" fill="#8A6E4B"/>
<path d="M354.656 204.888C354.656 221.257 366.136 229.073 372.481 229.073C373.454 229.073 374.931 228.838 374.931 227.866C374.931 227.128 373.723 225.652 372.716 225.652C365.129 225.652 361 221.257 361 210.523C361 182.447 389.097 141.657 406.956 116.029C406.956 116.029 411.119 114.822 419.41 114.822C431.864 114.822 440.928 116.532 441.633 116.532C442.136 116.532 442.606 115.794 442.606 115.056C442.606 114.553 428.675 111.635 415.952 111.635H410.078C417.161 101.874 421.793 95.0306 421.793 92.8167C421.793 85.7389 413.972 75.9775 410.548 75.9775C409.809 75.9775 409.339 76.4807 409.339 77.6883C409.339 83.7933 402.256 96.7414 393.226 112.608C383.223 113.581 375.133 115.056 371.239 116.767C370.03 117.27 370.03 117.74 370.03 118.243C370.03 119.719 373.219 123.845 375.166 123.845C375.67 123.845 380.302 121.162 389.332 119.686C377.919 139.812 364.693 163.293 358.382 183.755C350.997 189.558 341.195 196.133 334.749 196.133C332.534 196.133 331.56 195.16 331.56 193.449C331.56 187.109 339.885 176.107 339.885 171.947C339.885 168.056 335.488 161.683 332.064 161.683C323.739 161.683 289.297 206.129 280.267 206.129C279.058 206.129 278.051 204.921 278.051 203.68C278.051 191.973 303.698 164.132 303.698 157.523C303.698 150.915 297.588 143.837 293.929 143.837C292.452 143.837 291.983 144.341 291.983 145.548C291.983 153.431 275.198 170.941 268.652 186.137C261.233 192.107 252.035 198.28 245.859 198.28C242.938 198.28 240.488 196.804 240.488 193.65C240.488 186.069 251.23 178.019 251.23 175.101C251.23 171.209 244.617 164.836 242.435 164.836C240.253 164.836 234.848 169.733 227.53 177.046C215.815 188.753 198.191 205.626 193.558 205.626C191.343 205.626 190.369 204.418 190.369 202.439C190.369 185.6 222.126 151.385 245.12 151.385C246.832 151.385 249.518 153.565 249.518 155.276C249.518 158.194 248.309 158.932 248.309 159.905C248.309 160.878 249.786 162.354 250.525 162.354C251.263 162.354 252.472 159.905 252.472 156.014C252.472 150.647 243.173 142.093 233.64 142.093C214.774 142.093 186.039 169.264 180.399 188.954C173.216 194.556 164.991 199.722 159.05 199.722C151.967 199.722 148.308 193.382 148.308 185.801C148.308 184.09 148.543 179.696 149.046 178.22C162.474 169.901 177.412 156.987 177.412 150.144C177.412 147.225 173.249 138.906 166.67 138.906C155.928 138.906 133.906 161.851 133.906 183.856C133.906 196.569 140.52 204.385 152.974 204.385C161.702 204.385 171.537 198.716 179.627 192.644C179.493 193.55 179.426 194.456 179.426 195.328C179.426 202.909 187.986 209.483 193.592 209.483C199.198 209.483 216.318 191.906 228.537 179.931C228.537 179.931 227.799 184.09 227.799 188.719C227.799 198.011 234.647 203.378 242.468 203.378C249.35 203.378 259.085 196.938 267.041 190.564C266.437 192.644 266.101 194.657 266.101 196.535C266.101 205.559 274.896 210.959 279.797 210.959C287.854 210.959 316.689 174.564 320.617 174.564C321.355 174.564 321.59 175.067 321.59 175.302C321.59 178.723 319.14 182.883 319.14 188.988C319.14 197.307 325.249 200.46 330.62 200.46C338.677 200.46 349.318 193.684 357.274 187.579C355.596 193.718 354.656 199.554 354.656 204.854M170.362 147.695C171.571 147.695 172.309 148.433 172.309 150.379C172.309 155.98 160.325 167.721 149.348 175.033C156.666 157.222 166.2 147.695 170.362 147.695Z" fill="#8A6E4B"/>
<path d="M452.341 140.886C446.735 140.886 436.933 159.436 424.479 174.598C411.756 189.491 393.192 200.729 388.056 200.729C386.344 200.729 385.371 199.991 385.371 198.515C385.371 190.196 410.313 161.381 410.313 155.041C410.313 150.412 402.256 143.804 399.57 143.804C398.362 143.804 397.623 144.307 397.623 145.515C397.623 155.511 374.159 179.227 374.159 189.961C374.159 200.695 382.215 204.62 385.874 204.62C392.487 204.62 412.025 191.906 421.055 182.413C421.055 182.413 414.441 200.729 404.203 221.492C373.152 227.363 334.312 247.623 334.312 273.016C334.312 281.067 341.161 288.883 352.641 288.883C379.765 288.883 401.014 257.15 416.926 224.411C419.141 224.176 421.558 224.176 423.774 224.176C437.201 224.176 438.678 230.784 439.887 230.784C440.357 230.784 440.86 230.281 440.86 229.811C440.86 228.101 437.201 219.815 420.82 219.815H419.108C427.164 202.473 433.542 185.13 438.175 172.451C443.781 157.557 447.943 151.922 454.288 147.527C455.026 146.79 456 146.32 456 145.582C456 144.106 453.784 140.953 452.341 140.953M348.244 283.079C343.611 283.079 338.71 279.658 338.71 273.083C338.71 251.112 369.761 232.294 402.994 226.189C388.828 253.292 369.023 283.079 348.244 283.079Z" fill="#8A6E4B"/>
<path d="M117.39 165.373C111.079 155.578 101.579 147.896 90.7366 143.904C89.3939 143.401 88.0511 142.965 86.7084 142.563C92.5829 142.999 98.3568 143.2 102.889 142.797C125.313 140.785 141.929 123.912 140.922 103.987C140.016 86.2755 127.092 72.8243 109.468 73.7635C105.641 74.0654 101.781 75.2395 98.9275 77.6547C98.4575 78.0237 98.8267 78.8958 99.431 78.7616C110.811 76.7825 124.138 83.7597 127.192 95.8021C131.758 113.748 120.143 131.225 101.647 134.847C93.12 136.391 83.6536 136.391 74.2207 136.323C67.8762 136.256 64.1165 136.458 58.8126 137.061C57.7384 137.196 56.7649 137.296 55.9257 137.397C58.6448 133.304 63.143 126.663 68.6483 118.948C71.1995 115.358 78.7525 104.389 80.2631 102.041C85.2313 94.3932 89.4275 89.2945 92.5829 83.8268C98.5918 73.3946 100.002 67.9269 101.109 61.2851C101.277 60.2452 100.539 59.5408 99.7331 59.4066C98.9275 59.2725 98.2561 59.675 97.9204 60.3123C97.484 61.1845 97.0812 63.4319 96.7455 65.4446C96.4434 67.1553 95.1006 71.7509 94.2278 73.8642C91.643 79.9021 86.7419 86.7451 83.6536 91.4413C76.4699 102.343 70.8303 110.26 66.1978 117.103C61.5653 123.946 54.5158 133.808 51.5953 137.799C49.2119 141.087 42.0282 149.573 42.0617 161.683C42.0617 169.264 44.9822 176.241 51.6289 181.038C53.3745 182.312 61.1624 184.325 63.7472 174.463C65.8285 166.446 60.726 156.215 58.0741 151.016C54.6165 144.307 53.3073 141.959 53.1059 141.59C53.3744 141.556 53.5087 141.556 53.9116 141.523C66.2313 141.355 78.3833 144.709 88.9575 151.15C102.385 159.301 109.938 171.813 112.489 187.445C114.268 197.776 114.101 209.819 110.072 222.398C105.473 236.755 100.203 245.744 92.113 255.439C84.8957 264.093 79.1554 268.387 72.6766 273.184C64.2172 279.389 55.6907 283.851 48.5405 286.568C32.3939 292.706 23.4646 293.511 15.2066 293.78C5.74018 294.115 0.604134 291.734 0.0334625 293.78C-0.570778 295.994 17.9257 298.543 34.7101 296.027C44.5794 294.551 55.1536 292.27 69.9911 284.891C83.3179 278.249 92.3144 270.869 100.908 261.611C110.307 251.481 119.975 238.969 124.91 216.796C128.737 199.722 126.924 180.333 117.39 165.44M59.8197 168.861C60.0211 174.497 57.3356 180.468 53.3744 179.562C49.514 178.69 45.8214 171.847 45.3179 165.272C44.7137 157.859 46.56 152.022 50.7561 144.106C50.7561 144.106 54.3479 150.513 56.6642 155.947C58.7455 160.777 59.6183 163.226 59.8197 168.828" fill="#8A6E4B"/>
</g>
<defs>
<clipPath id="clip0_1048_661">
<rect width="456" height="297" fill="white"/>
</clipPath>
</defs>
</svg>
