<?xml version="1.0" encoding="UTF-8" standalone="no"?>
<!DOCTYPE svg PUBLIC "-//W3C//DTD SVG 1.1//EN" "http://www.w3.org/Graphics/SVG/1.1/DTD/svg11.dtd">
<svg width="100%" height="100%" viewBox="0 0 3544 3544" version="1.1" xmlns="http://www.w3.org/2000/svg" xmlns:xlink="http://www.w3.org/1999/xlink" xml:space="preserve" xmlns:serif="http://www.serif.com/" style="fill-rule:evenodd;clip-rule:evenodd;stroke-linejoin:round;stroke-miterlimit:2;">
    <g id="Layer-1" serif:id="Layer 1" transform="matrix(4.16667,0,0,4.16667,0,0)">
        <rect x="0" y="0" width="850.394" height="850.394" style="fill:rgb(23,23,22);"/>
        <text x="290.874px" y="693.17px" style="font-family:'ArialMT', 'Arial', sans-serif;font-size:80.242px;fill:white;">L<tspan x="328.787px 339.901px 400.03px 437.944px 471.352px 504.759px 542.673px " y="693.17px 693.17px 693.17px 693.17px 693.17px 693.17px 693.17px ">imassol</tspan></text>
        <g transform="matrix(1,0,0,1,306.085,534.073)">
            <path d="M0,41.726C7.075,41.726 10.33,38.546 10.33,32.666L10.33,32.349C10.33,26.465 7.075,23.527 -0.715,23.527L-10.255,23.527L-10.255,41.726L0,41.726ZM-1.509,16.373C5.483,16.373 8.186,13.831 8.186,8.027L8.186,7.71C8.186,2.303 5.086,-0 -1.668,-0L-10.255,-0L-10.255,16.373L-1.509,16.373ZM-20.585,-7.551L-0.238,-7.551C11.446,-7.551 18.362,-3.098 18.362,7.233L18.362,7.551C18.362,13.193 15.813,17.647 9.377,19.629C17.088,21.3 20.744,25.516 20.744,33.063L20.744,33.381C20.744,43.953 13.749,49.277 1.271,49.277L-20.585,49.277L-20.585,-7.551Z" style="fill:white;fill-rule:nonzero;"/>
        </g>
        <g transform="matrix(1,0,0,1,351.951,551.16)">
            <path d="M0,7.551L-18.835,-24.639L-7.151,-24.639L5.642,-1.112L18.12,-24.639L28.454,-24.639L10.648,7.63L10.648,32.19L0,32.19L0,7.551Z" style="fill:white;fill-rule:nonzero;"/>
        </g>
        <g transform="matrix(1,0,0,1,0,259.477)">
            <rect x="420.237" y="267.046" width="10.648" height="56.825" style="fill:white;"/>
        </g>
        <g transform="matrix(1,0,0,1,450.599,583.348)">
            <path d="M0,-56.825L10.572,-56.825L10.572,-32.663L36.085,-32.663L36.085,-56.825L46.736,-56.825L46.736,0L36.085,0L36.085,-24.162L10.572,-24.162L10.572,0L0,0L0,-56.825Z" style="fill:white;fill-rule:nonzero;"/>
        </g>
        <g transform="matrix(1,0,0,1,512.205,554.5)">
            <path d="M0,0.794L0,0.155C0,-16.77 11.763,-28.851 28.371,-28.851C40.535,-28.851 51.342,-23.289 52.855,-9.699L42.282,-9.699C41.012,-17.246 35.926,-20.509 28.533,-20.509C17.409,-20.509 10.969,-12.24 10.969,0.235L10.969,0.873C10.969,13.034 16.614,21.376 28.533,21.376C39.182,21.376 43.553,14.94 43.871,7.071L29.566,7.071L29.566,-0.874L54.284,-0.874L54.284,4.371C54.284,20.105 44.426,29.645 28.371,29.645C10.172,29.645 0,17.564 0,0.794" style="fill:white;fill-rule:nonzero;"/>
        </g>
        <g transform="matrix(-1,0,0,1,331.595,259.429)">
            <rect x="92.506" y="292.824" width="146.583" height="5.317" style="fill:white;"/>
        </g>
        <g transform="matrix(-1,0,0,1,1370.96,259.429)">
            <rect x="613.077" y="292.824" width="144.808" height="5.317" style="fill:white;"/>
        </g>
        <g transform="matrix(1,0,0,1,586.409,167.712)">
            <path d="M0,120.073L-11.995,120.073L-11.995,0L-1.15,0.135L58.766,86.789L58.766,0.139L70.76,0.139L70.76,120.07L59.915,120.07L0.003,33.419L0.003,120.07L0,120.073Z" style="fill:white;fill-rule:nonzero;"/>
        </g>
        <g transform="matrix(1,0,0,1,449.703,167.712)">
            <path d="M0,120.073L-29.707,0L-9.861,0.139L11.435,93.894L33.74,0.142L43.239,0.142L63.731,87.355L83.788,0.142L94.774,0.142L65.064,120.073L55.24,120.073L34.189,30.233L12.409,120.073L0,120.073Z" style="fill:white;fill-rule:nonzero;"/>
        </g>
        <g transform="matrix(1,0,0,1,223.35,279.19)">
            <path d="M-0.004,-102.426L7.882,-102.426C10.769,-102.426 13.756,-102.426 16.666,-102.139C19.466,-101.911 22.177,-101.176 24.711,-99.957C29.687,-97.261 32.891,-89.295 32.891,-79.652C32.891,-62.17 24.045,-53.307 6.598,-53.307L-0.004,-53.307L-0.004,-102.426ZM-0.107,-45.428L8.97,-45.428L9.108,-45.214L43.37,8.915L63.347,8.915L23.858,-48.29L24.511,-48.449C42.427,-52.727 52.703,-64.856 52.703,-81.72C52.989,-91.843 47.72,-101.255 38.947,-106.3C29.959,-111.341 21.618,-111.341 8.987,-111.341L-19.204,-111.341L-19.204,8.915L-0.107,8.915L-0.107,-45.428Z" style="fill:white;fill-rule:nonzero;"/>
        </g>
        <g transform="matrix(1,0,0,1,166.587,182.534)">
            <path d="M0,90.882L5.462,98.896L4.982,99.141C-4.002,104.313 -14.225,107.107 -24.584,107.214C-39.969,107.214 -52.761,100.933 -61.58,89.049C-69.642,78.197 -74.082,62.905 -74.082,45.983C-74.082,14.97 -57.961,-16.326 -21.939,-16.326C-21.666,-16.326 -21.393,-16.332 -21.124,-16.332C-12.24,-16.332 -3.356,-14.264 4.602,-10.349L5.079,-10.097L0.552,-1.703L-0.004,-1.969C-6.118,-5.125 -12.986,-6.869 -19.874,-7.014C-39.057,-7.014 -52.451,14.587 -52.451,45.52C-52.451,81.522 -36.247,97.915 -21.172,97.912C-13.832,97.553 -6.709,95.229 -0.597,91.217L0,90.886L0,90.882Z" style="fill:white;fill-rule:nonzero;"/>
        </g>
        <g transform="matrix(1,0,0,1,326.364,227.804)">
            <path d="M0,0.497C0,-33.112 10.151,-53.179 27.149,-53.179C44.154,-53.179 53.013,-34.738 53.013,0.141C53.013,50.586 30.785,53.141 26.327,53.141C14.18,53.141 -0.004,39.41 -0.004,0.711L-0.004,0.497L0,0.497ZM25.726,62.053C55.227,62.053 74.293,37.162 74.293,-1.36C74.293,-22.512 69.113,-38.526 58.904,-48.963C50.956,-57.088 39.855,-61.556 27.653,-61.556C14.298,-61.556 2.161,-56.142 -6.508,-46.308C-16.193,-35.325 -21.311,-19.273 -21.311,0.104L-21.311,0.424C-21.311,37.863 -2.849,62.053 25.726,62.053" style="fill:white;fill-rule:nonzero;"/>
        </g>
        <g transform="matrix(1,0,0,1,757.886,177.229)">
            <path d="M0,101.038L0,110.557L-63.31,110.557L-63.31,-9.519L-0.784,-9.377L-0.784,-0.038L-43.961,-0.038L-43.961,42.718L-3.532,42.718L-3.532,52.13L-43.961,52.13L-43.961,101.038L0.003,101.038L0,101.038Z" style="fill:white;fill-rule:nonzero;"/>
        </g>
        <g transform="matrix(1,0,0,1,221.598,409.492)">
            <path d="M0,-4.44L-11.346,-4.44L-11.346,-53.344L0.925,-53.386C3.38,-53.386 5.932,-53.393 8.459,-53.169C11.221,-52.968 13.904,-52.281 16.425,-51.131C21.431,-48.569 24.652,-40.656 24.652,-30.967C24.652,-13.365 16.359,-4.443 0,-4.443L0,-4.44ZM33.177,-56.345C24.759,-61.859 15.43,-62.26 1.07,-62.26L-30.692,-62.26L-30.692,57.82L-11.346,57.82L-11.346,4.796L3.888,4.796C34.406,4.796 45.283,-13.745 45.283,-31.105C45.283,-37.514 43.712,-49.319 33.177,-56.345" style="fill:white;fill-rule:nonzero;"/>
        </g>
        <g transform="matrix(1,0,0,1,564.597,459.66)">
            <path d="M0,-104.777L-58.372,-2.445L3.176,-2.445L3.176,7.651L-80.901,7.651L-80.901,0.187L-22.136,-102.743L-77.328,-102.743L-77.328,-112.428L0,-112.428L0,-104.777Z" style="fill:white;fill-rule:nonzero;"/>
        </g>
        <g transform="matrix(1,0,0,1,401.679,397.766)">
            <path d="M0,19.01L13.659,-23.656L27.018,19.01L-0.004,19.01L0,19.01ZM21.666,-50.535L11.843,-50.535L-29.98,69.545L-18.137,69.545L-4.347,27.39L28.768,27.39L42.904,69.545L63.924,69.545L21.666,-50.535Z" style="fill:white;fill-rule:nonzero;"/>
        </g>
        <g transform="matrix(1,0,0,1,310.898,356.899)">
            <path d="M0,100.751L42.603,100.751L42.603,110.415L-19.239,110.415L-19.239,-9.664L0,-9.664L0,100.751Z" style="fill:white;fill-rule:nonzero;"/>
        </g>
        <g transform="matrix(1,0,0,1,615.665,397.762)">
            <path d="M0,19.014L13.659,-23.652L27.014,19.014L-0.004,19.014L0,19.014ZM11.843,-50.531L-29.984,69.545L-18.141,69.545L-4.35,27.394L28.761,27.394L42.897,69.545L63.924,69.545L21.662,-50.531L11.843,-50.531Z" style="fill:white;fill-rule:nonzero;"/>
        </g>
        <g transform="matrix(1,0,0,1,690.02,360.736)">
            <path d="M0,-1.274C-0.528,-1.063 -1.319,-0.96 -2.372,-0.96L-4.62,-0.96L-4.62,-6.073L-2.496,-6.073C-1.112,-6.073 -0.111,-5.894 0.518,-5.545C1.143,-5.196 1.46,-4.509 1.46,-3.477C1.46,-2.389 0.977,-1.654 0.003,-1.27L0,-1.274ZM3.681,5.438C3.66,5.062 3.653,4.717 3.653,4.389L3.653,3.353C3.653,2.642 3.394,1.913 2.88,1.164C2.372,0.421 1.56,-0.041 0.459,-0.214C1.333,-0.355 2.009,-0.587 2.5,-0.901C3.418,-1.495 3.877,-2.424 3.877,-3.684C3.877,-5.462 3.152,-6.66 1.688,-7.264C0.87,-7.599 -0.415,-7.772 -2.165,-7.772L-7.109,-7.772L-7.109,6.346L-4.616,6.346L-4.616,0.794L-2.659,0.794C-1.336,0.794 -0.415,0.946 0.114,1.247C1.001,1.771 1.446,2.849 1.446,4.478L1.446,5.597L1.498,6.049C1.509,6.108 1.516,6.16 1.53,6.212C1.54,6.257 1.554,6.301 1.56,6.346L3.895,6.346L3.805,6.177C3.746,6.06 3.705,5.815 3.681,5.438M-1.923,10.483C-4.993,10.483 -7.603,9.392 -9.751,7.22C-11.895,5.048 -12.958,2.417 -12.958,-0.663C-12.958,-3.722 -11.881,-6.332 -9.733,-8.493C-7.572,-10.665 -4.972,-11.756 -1.92,-11.756C1.129,-11.756 3.75,-10.665 5.911,-8.493C8.059,-6.332 9.136,-3.722 9.136,-0.663C9.136,2.417 8.059,5.048 5.911,7.22C3.763,9.392 1.15,10.483 -1.92,10.483L-1.923,10.483ZM10.959,-0.68C10.959,-4.229 9.702,-7.254 7.188,-9.754C4.678,-12.257 1.64,-13.507 -1.92,-13.507C-5.459,-13.507 -8.477,-12.26 -10.98,-9.754C-13.49,-7.244 -14.743,-4.219 -14.743,-0.68C-14.743,2.894 -13.5,5.935 -11.014,8.446C-8.511,10.973 -5.48,12.233 -1.92,12.233C1.64,12.233 4.678,10.973 7.188,8.446C9.702,5.925 10.959,2.883 10.959,-0.68" style="fill:white;fill-rule:nonzero;"/>
        </g>
    </g>
</svg>
