<?xml version="1.0" encoding="UTF-8" standalone="no"?>
<!DOCTYPE svg PUBLIC "-//W3C//DTD SVG 1.1//EN" "http://www.w3.org/Graphics/SVG/1.1/DTD/svg11.dtd">
<svg width="100%" height="100%" viewBox="0 0 3508 2481" version="1.1" xmlns="http://www.w3.org/2000/svg" xmlns:xlink="http://www.w3.org/1999/xlink" xml:space="preserve" xmlns:serif="http://www.serif.com/" style="fill-rule:evenodd;clip-rule:evenodd;stroke-linejoin:round;stroke-miterlimit:2;">
    <g id="Layer-1" serif:id="Layer 1" transform="matrix(7.96125,0,0,7.96125,-1603.21,-1125.1)">
        <g transform="matrix(1,0,0,1,216.673,349.227)">
            <path d="M0,-105.453C-0.025,-105.603 -0.05,-105.752 -0.077,-105.902L-9.798,-116.84L42.821,-154.393L51.231,-147.66C51.315,-147.591 51.401,-147.527 51.455,-147.48C51.513,-147.437 51.539,-147.413 51.56,-147.393C51.585,-147.375 51.603,-147.36 51.621,-147.347C51.913,-147.215 52.205,-147.078 52.413,-146.983C52.616,-146.889 52.74,-146.833 52.862,-146.775L53.134,-146.709C53.457,-146.691 53.78,-146.679 54.148,-146.673C54.517,-146.666 54.933,-146.668 55.262,-146.666C55.597,-146.666 55.847,-146.662 56.097,-146.655C56.422,-146.677 56.744,-146.691 57.063,-146.691L350.64,-146.691C351.253,-146.837 351.868,-146.978 352.327,-147.09C352.787,-147.195 353.098,-147.266 353.507,-147.355C353.918,-147.444 354.427,-147.55 354.792,-147.672C355.155,-147.792 355.375,-147.925 355.58,-148.054C355.786,-148.182 355.974,-148.302 356.161,-148.431L363.871,-156.141L421.452,-115.518L407.485,-105.041C407.385,-104.815 407.288,-104.583 407.211,-104.397C407.133,-104.215 407.082,-104.078 407.026,-103.936C407.035,-103.831 407.043,-103.729 407.052,-103.624C407.118,-103.14 407.184,-102.656 407.213,-102.181C407.245,-101.705 407.253,-101.242 407.235,-100.775L405.197,-43.832L203.303,50.688L2.8,-42.92L0.091,-104.47C0.083,-104.647 0.08,-104.826 0.079,-105.003C0.052,-105.153 0.027,-105.303 0,-105.453" style="fill:white;"/>
        </g>
        <g transform="matrix(1,0,0,1,419.57,349.086)">
            <path d="M0,-15.463C-0.018,-15.703 -0.064,-15.944 -0.064,-15.944L0.225,-16.239C0.225,-16.239 0.451,-16.338 0.695,-16.392C0.963,-16.453 1.247,-16.456 1.515,-16.437C1.975,-16.392 2.438,-16.317 2.897,-16.225C3.135,-16.175 3.382,-16.122 3.601,-16.006C3.745,-15.925 3.866,-15.802 3.866,-15.802L4.042,-15.388L4.018,-14.898L3.82,-14.484L3.502,-14.222C3.502,-14.222 3.264,-14.17 3.033,-14.173C2.857,-14.18 2.682,-14.229 2.506,-14.249C2.335,-14.266 2.161,-14.28 1.987,-14.293C1.664,-14.306 1.339,-14.327 1.024,-14.419C0.79,-14.494 0.559,-14.624 0.331,-14.775C0.158,-14.89 0,-15.013 0,-15.013C0,-15.013 0.01,-15.237 0,-15.463M19.567,-13.935C19.529,-13.763 19.482,-13.586 19.421,-13.392C19.358,-13.197 19.285,-12.983 19.164,-12.706C19.041,-12.428 18.878,-12.091 18.724,-11.811C18.578,-11.528 18.442,-11.31 18.318,-11.118C18.195,-10.924 18.081,-10.755 17.993,-10.619C17.899,-10.486 17.832,-10.385 17.764,-10.292C17.702,-10.193 17.641,-10.104 17.561,-9.989C17.478,-9.876 17.379,-9.736 17.289,-9.602C17.193,-9.469 17.109,-9.342 17.023,-9.214C16.94,-9.091 16.856,-8.958 16.792,-8.845C16.657,-8.608 16.539,-8.432 16.413,-8.059C16.348,-7.871 16.289,-7.619 16.266,-7.414C16.24,-7.206 16.243,-7.043 16.256,-6.874C16.267,-6.697 16.292,-6.52 16.313,-6.37C16.339,-6.22 16.363,-6.103 16.382,-6.025C16.4,-5.949 16.413,-5.908 16.419,-5.868C16.431,-5.827 16.44,-5.783 16.459,-5.701C16.48,-5.621 16.511,-5.507 16.539,-5.38C16.573,-5.251 16.606,-5.117 16.638,-4.96C16.668,-4.8 16.705,-4.611 16.728,-4.428C16.752,-4.239 16.762,-4.048 16.764,-3.875C16.773,-3.704 16.773,-3.557 16.773,-3.461L16.773,-3.261C16.773,-3.202 16.773,-3.137 16.767,-3.042C16.767,-2.946 16.767,-2.826 16.764,-2.653C16.764,-2.475 16.762,-2.243 16.764,-1.806C16.773,-1.364 16.78,-0.72 16.795,-0.259C16.808,0.194 16.826,0.462 16.829,0.629C16.844,0.799 16.848,0.86 16.851,0.935C16.854,1.008 16.856,1.086 16.865,1.216C16.872,1.351 16.881,1.533 16.891,1.703C16.9,1.875 16.906,2.03 16.916,2.242C16.924,2.462 16.937,2.73 16.94,3.048C16.949,3.369 16.946,3.727 16.94,3.989C16.937,4.251 16.928,4.408 16.923,4.571C16.91,4.731 16.9,4.892 16.879,5.05C16.844,5.359 16.756,5.68 16.588,5.947C16.511,6.073 16.423,6.183 16.317,6.274C16.215,6.374 16.095,6.454 15.968,6.517L15.562,6.633C15.302,6.642 15.033,6.596 14.793,6.589C14.683,6.596 14.571,6.616 14.473,6.657L14.237,6.963C14.077,7.388 13.944,7.872 13.636,8.247C13.535,8.363 13.418,8.48 13.294,8.576C13.174,8.675 13.041,8.756 12.898,8.817L12.479,8.889L12.155,8.752C12.051,8.675 11.958,8.589 11.871,8.493C11.789,8.394 11.718,8.289 11.652,8.176C11.529,7.947 11.439,7.705 11.355,7.478C11.23,7.684 11.106,7.898 11.008,8.11C10.891,8.336 10.841,8.561 10.779,8.801C10.715,9.043 10.598,9.292 10.397,9.479L10.12,9.623L9.825,9.446C9.764,9.375 9.709,9.299 9.625,9.159C9.539,9.019 9.428,8.817 9.354,8.626C9.283,8.429 9.255,8.247 9.24,8.118C9.222,7.992 9.219,7.923 9.215,7.817C9.215,7.709 9.212,7.576 9.212,7.463C9.209,7.357 9.212,7.274 9.215,7.193C8.94,7.611 8.688,8.002 8.639,8.443C8.626,8.604 8.635,8.773 8.642,8.943C8.648,9.112 8.642,9.282 8.642,9.452L8.487,9.937L8.16,10.356L7.815,10.579L7.459,10.637L7.13,10.427C7.03,10.309 6.951,10.18 6.883,10.043C6.818,9.903 6.78,9.752 6.75,9.603C6.692,9.307 6.7,9.012 6.707,8.719L6.587,-4.77C6.584,-4.93 6.553,-5.089 6.532,-5.245C6.491,-5.567 6.444,-5.889 6.374,-6.203C6.306,-6.503 6.22,-6.813 6.068,-7.087C5.991,-7.223 5.902,-7.343 5.804,-7.444C5.71,-7.54 5.605,-7.619 5.498,-7.688C5.386,-7.756 5.267,-7.82 5.143,-7.872C5.023,-7.938 4.893,-7.987 4.751,-8.049C4.61,-8.11 4.449,-8.182 4.286,-8.243C3.958,-8.373 3.619,-8.472 3.296,-8.49C2.978,-8.515 2.666,-8.472 2.345,-8.456C2.04,-8.442 1.75,-8.459 1.481,-8.547C1.352,-8.582 1.225,-8.629 1.096,-8.675C0.704,-8.815 0.312,-8.958 -0.114,-8.975C-0.265,-8.984 -0.417,-8.984 -0.567,-8.975C-1.055,-8.947 -1.607,-8.916 -2.057,-8.767C-2.217,-8.709 -2.369,-8.641 -2.49,-8.565C-2.61,-8.483 -2.7,-8.407 -2.78,-8.316C-2.86,-8.228 -2.937,-8.132 -3.001,-8.028C-3.066,-7.923 -3.127,-7.817 -3.18,-7.694C-3.232,-7.567 -3.286,-7.429 -3.329,-7.291C-3.42,-7.009 -3.499,-6.722 -3.627,-6.466C-3.686,-6.34 -3.76,-6.227 -3.844,-6.114C-3.927,-6.004 -4.019,-5.901 -4.118,-5.807C-4.217,-5.714 -4.328,-5.63 -4.445,-5.56C-4.56,-5.485 -4.683,-5.427 -4.807,-5.38C-5.328,-5.183 -5.812,-5.264 -6.321,-5.247C-6.577,-5.242 -6.848,-5.213 -7.105,-5.278C-7.237,-5.312 -7.364,-5.365 -7.487,-5.397C-7.607,-5.427 -7.718,-5.431 -7.826,-5.414L-8,-5.21C-8.049,-5.1 -8.098,-4.994 -8.138,-4.854C-8.181,-4.718 -8.215,-4.547 -8.252,-4.376L-8.024,-4.186L-7.682,-4.119C-7.58,-4.123 -7.478,-4.137 -7.382,-4.168C-7.191,-4.227 -7,-4.359 -6.787,-4.431C-6.682,-4.471 -6.574,-4.483 -6.469,-4.485L-6.114,-4.308C-6.009,-4.198 -5.913,-4.082 -5.839,-3.959C-5.614,-3.585 -5.543,-3.218 -5.472,-2.851C-5.396,-2.981 -5.315,-3.107 -5.229,-3.233C-5.062,-3.48 -4.861,-3.762 -4.634,-3.97C-4.528,-4.066 -4.414,-4.147 -4.291,-4.205L-3.948,-3.983C-3.85,-3.814 -3.776,-3.628 -3.724,-3.455C-3.677,-3.276 -3.652,-3.107 -3.649,-2.949C-3.649,-2.786 -3.658,-2.639 -3.677,-2.492C-3.711,-2.199 -3.738,-1.909 -3.724,-1.601C-3.683,-0.956 -3.627,-0.334 -3.644,0.293C-3.652,1.069 -3.644,1.84 -3.553,2.615C-3.442,3.605 -3.446,4.605 -3.501,5.54C-3.523,6.007 -3.547,6.466 -3.514,6.933C-3.486,7.394 -3.375,7.859 -3.187,8.35C-3.06,8.687 -2.952,9.023 -2.924,9.37L-2.992,9.875L-3.232,10.3L-3.627,10.555L-4.014,10.551L-4.353,10.381L-4.581,9.989C-4.608,9.832 -4.649,9.668 -4.683,9.524C-4.717,9.375 -4.757,9.245 -4.794,9.112C-4.831,8.985 -4.874,8.856 -4.914,8.734C-5.102,8.19 -5.105,7.63 -5.124,7.067C-5.127,6.599 -5.121,6.139 -5.111,5.674C-5.179,5.807 -5.248,5.935 -5.312,6.07C-5.571,6.62 -5.854,7.182 -5.923,7.734C-5.861,8.083 -5.849,8.429 -5.892,8.773L-6.161,9.112L-6.559,9.255L-6.959,9.122L-7.225,8.801C-7.293,8.572 -7.252,8.363 -7.225,8.11C-7.213,7.981 -7.213,7.835 -7.225,7.694C-7.271,7.271 -7.425,6.851 -7.583,6.429C-7.604,6.839 -7.632,7.255 -7.703,7.611C-7.735,7.783 -7.783,7.94 -7.848,8.091L-8.08,8.409L-8.43,8.52L-8.755,8.466L-9.039,8.292L-9.193,8.016C-9.252,7.776 -9.264,7.534 -9.27,7.289C-9.276,7.036 -9.285,6.787 -9.283,6.53C-9.283,6.278 -9.233,6.028 -9.15,5.787C-9.066,5.551 -8.999,5.318 -9.005,5.077C-9.027,4.954 -9.054,4.841 -9.101,4.726C-9.193,4.495 -9.347,4.28 -9.459,4.035C-9.575,3.789 -9.644,3.554 -9.705,3.288C-9.736,3.147 -9.763,2.993 -9.791,2.839C-9.89,2.206 -9.918,1.585 -9.942,0.956C-10.146,1.15 -10.334,1.349 -10.477,1.553C-10.547,1.659 -10.6,1.771 -10.64,1.888C-10.71,2.187 -10.687,2.495 -10.64,2.789C-10.56,3.359 -10.461,3.942 -10.408,4.554C-10.371,5.022 -10.434,5.519 -10.655,5.935C-10.732,6.073 -10.822,6.198 -10.927,6.302L-11.27,6.52L-11.612,6.534C-11.734,6.52 -11.855,6.487 -11.994,6.426C-12.13,6.37 -12.291,6.284 -12.445,6.161C-12.602,6.04 -12.75,5.881 -12.883,5.701C-13.009,5.527 -13.12,5.34 -13.219,5.069C-13.324,4.797 -13.417,4.448 -13.46,4.195C-13.5,3.936 -13.481,3.769 -13.469,3.625C-13.45,3.475 -13.438,3.352 -13.417,3.229C-13.398,3.1 -13.376,2.983 -13.343,2.836C-13.312,2.69 -13.274,2.52 -13.247,2.301C-13.223,2.086 -13.212,1.823 -13.212,1.632C-13.219,1.437 -13.247,1.314 -13.259,1.233C-13.274,1.153 -13.277,1.12 -13.284,1.079C-13.293,1.037 -13.302,0.986 -13.318,0.909C-13.33,0.836 -13.351,0.744 -13.376,0.629C-13.401,0.518 -13.432,0.386 -13.465,0.157C-13.5,-0.071 -13.537,-0.399 -13.552,-0.713C-13.568,-1.025 -13.568,-1.317 -13.552,-1.567C-13.545,-1.817 -13.534,-2.011 -13.518,-2.195C-13.502,-2.375 -13.487,-2.543 -13.472,-2.71C-13.453,-2.872 -13.438,-3.035 -13.417,-3.202C-13.398,-3.366 -13.376,-3.533 -13.354,-3.696C-13.385,-3.762 -13.407,-3.826 -13.426,-3.915C-13.438,-4.004 -13.45,-4.119 -13.465,-4.23C-13.479,-4.343 -13.497,-4.455 -13.512,-4.599C-13.53,-4.735 -13.549,-4.899 -13.555,-5.066C-13.581,-5.384 -13.542,-5.732 -13.429,-5.987C-13.376,-6.114 -13.312,-6.21 -13.243,-6.302C-13.175,-6.397 -13.099,-6.483 -13.009,-6.593C-12.914,-6.711 -12.806,-6.84 -12.694,-6.973C-12.914,-7.137 -13.139,-7.302 -13.37,-7.473C-13.595,-7.648 -13.845,-7.8 -14.024,-7.97C-14.114,-8.059 -14.182,-8.159 -14.238,-8.265L-14.238,-8.641L-14.052,-9.009L-13.752,-9.284C-13.632,-9.339 -13.502,-9.381 -13.376,-9.415C-13.126,-9.474 -12.871,-9.525 -12.651,-9.675C-12.543,-9.742 -12.445,-9.825 -12.352,-9.919C-12.257,-10.005 -12.17,-10.109 -12.087,-10.218C-11.911,-10.442 -11.772,-10.689 -11.602,-10.885C-11.51,-10.984 -11.414,-11.073 -11.319,-11.138C-11.134,-11.258 -10.967,-11.307 -10.748,-11.344C-10.64,-11.36 -10.522,-11.361 -10.399,-11.357C-9.915,-11.326 -9.409,-11.187 -8.925,-11.19C-8.4,-11.168 -7.873,-11.341 -7.345,-11.371C-6.778,-11.405 -6.238,-11.266 -5.714,-11.455L-5.371,-11.675C-5.259,-11.776 -5.161,-11.883 -5.075,-12.016C-4.982,-12.143 -4.905,-12.291 -4.831,-12.457C-4.757,-12.617 -4.688,-12.801 -4.612,-12.961C-4.538,-13.126 -4.451,-13.278 -4.359,-13.416L-4.022,-13.63C-3.794,-13.624 -3.572,-13.543 -3.319,-13.516C-3.187,-13.507 -3.048,-13.519 -2.915,-13.546C-2.646,-13.61 -2.4,-13.733 -2.104,-13.768C-1.958,-13.791 -1.798,-13.787 -1.637,-13.768C-1.475,-13.753 -1.317,-13.716 -1.153,-13.679C-0.845,-13.609 -0.546,-13.543 -0.268,-13.509C0.127,-13.467 0.519,-13.419 0.936,-13.306C1.352,-13.197 1.774,-13.053 2.197,-12.961C2.629,-12.865 3.055,-12.877 3.489,-12.868C3.764,-12.862 4.06,-12.824 4.311,-12.733C4.433,-12.683 4.538,-12.627 4.64,-12.559C4.738,-12.487 4.837,-12.415 4.918,-12.327C5.001,-12.244 5.075,-12.146 5.137,-12.047L5.285,-11.621C5.359,-11.138 5.229,-10.638 5.106,-10.155C5.408,-10.674 5.705,-11.196 6.071,-11.702C6.312,-12.041 6.626,-12.357 6.923,-12.733C7.017,-12.853 7.108,-12.985 7.197,-13.126C7.28,-13.278 7.364,-13.439 7.423,-13.603C7.475,-13.768 7.503,-13.935 7.517,-14.109L7.37,-14.531C7.231,-14.635 7.093,-14.734 6.969,-14.846C6.843,-14.952 6.729,-15.065 6.615,-15.181C6.59,-15.484 6.59,-15.795 6.615,-16.109L6.341,-16.539C6.192,-16.65 6.031,-16.746 5.877,-16.808C5.727,-16.878 5.575,-16.915 5.433,-16.945C5.14,-17.004 4.851,-17.026 4.562,-17.069C4.146,-17.134 3.721,-17.256 3.296,-17.294C3.012,-17.323 2.734,-17.288 2.456,-17.239C2.182,-17.188 1.898,-17.178 1.629,-17.27L1.185,-17.569L0.994,-17.973L1.161,-18.253C1.281,-18.334 1.407,-18.402 1.545,-18.458C1.685,-18.517 1.839,-18.56 2.045,-18.602C2.255,-18.652 2.527,-18.699 2.746,-18.724C2.965,-18.747 3.141,-18.751 3.296,-18.747C3.443,-18.747 3.566,-18.744 3.668,-18.741C3.773,-18.738 3.853,-18.734 4.023,-18.727C4.19,-18.724 4.449,-18.711 4.831,-18.699C5.209,-18.683 5.707,-18.658 5.966,-18.65C6.226,-18.641 6.241,-18.641 6.334,-18.631C6.421,-18.628 6.584,-18.625 6.738,-18.614C6.896,-18.609 7.043,-18.602 7.192,-18.594C6.908,-18.945 6.611,-19.312 6.22,-19.652C6.097,-19.764 5.958,-19.861 5.819,-19.948C5.68,-20.031 5.532,-20.1 5.374,-20.148C5.217,-20.195 5.056,-20.216 4.89,-20.223C4.551,-20.235 4.206,-20.192 3.869,-20.154C3.538,-20.123 3.225,-20.103 2.931,-20.127C2.367,-20.167 1.787,-20.284 1.194,-20.275C0.744,-20.271 0.291,-20.223 -0.129,-19.991C-0.259,-19.918 -0.382,-19.83 -0.496,-19.714C-0.607,-19.599 -0.715,-19.454 -0.814,-19.307C-0.913,-19.164 -1.002,-19.011 -1.116,-18.891C-1.221,-18.764 -1.345,-18.672 -1.483,-18.594C-1.598,-18.553 -1.721,-18.532 -1.848,-18.532C-1.98,-18.532 -2.113,-18.553 -2.249,-18.578C-2.665,-18.673 -3.106,-18.785 -3.495,-18.952C-3.748,-19.059 -3.998,-19.235 -4.251,-19.457C-4.5,-19.673 -4.745,-19.864 -5.019,-19.976C-5.429,-20.123 -5.839,-20.034 -6.247,-19.948C-6.703,-19.84 -7.16,-19.717 -7.635,-19.697C-8.44,-19.646 -9.242,-19.769 -10.036,-19.584C-10.603,-19.444 -11.208,-19.115 -11.775,-18.977C-12.05,-18.901 -12.33,-18.85 -12.595,-18.822C-12.861,-18.792 -13.102,-18.785 -13.41,-18.792C-13.568,-18.798 -13.74,-18.813 -13.907,-18.8C-14.074,-18.792 -14.238,-18.758 -14.385,-18.707L-14.688,-18.471C-14.768,-18.354 -14.851,-18.235 -14.919,-18.109C-14.994,-17.977 -15.048,-17.836 -15.11,-17.692L-15.505,-17.758L-15.808,-17.918L-15.934,-18.249L-15.896,-18.652C-15.856,-18.792 -15.798,-18.925 -15.728,-19.051C-15.647,-19.177 -15.557,-19.297 -15.471,-19.406C-15.388,-19.513 -15.311,-19.609 -15.225,-19.714C-15.138,-19.816 -15.048,-19.926 -14.953,-20.031C-14.777,-20.256 -14.558,-20.491 -14.301,-20.737L-13.842,-20.966C-13.5,-20.939 -13.154,-20.939 -12.812,-20.966C-12.719,-21.007 -12.636,-21.059 -12.553,-21.127C-12.473,-21.195 -12.402,-21.277 -12.321,-21.37C-12.248,-21.462 -12.158,-21.57 -12.071,-21.666C-11.979,-21.769 -11.886,-21.867 -11.784,-21.953C-11.683,-22.039 -11.578,-22.113 -11.458,-22.179C-11.344,-22.24 -11.22,-22.287 -11.094,-22.317C-10.616,-22.406 -10.146,-22.25 -9.668,-22.154C-9.36,-22.09 -9.066,-22.039 -8.786,-22.022C-8.375,-21.993 -7.965,-21.966 -7.527,-21.879C-7.092,-21.796 -6.719,-21.769 -6.278,-21.783C-6.006,-21.793 -5.756,-21.814 -5.454,-21.843C-5.303,-21.855 -5.13,-21.87 -4.96,-21.885C-4.797,-21.895 -4.627,-21.909 -4.463,-21.909C-4.134,-21.919 -3.779,-21.889 -3.501,-21.817C-3.366,-21.783 -3.258,-21.742 -3.144,-21.703C-2.922,-21.623 -2.724,-21.537 -2.455,-21.469C-2.313,-21.428 -2.147,-21.398 -1.983,-21.393C-1.811,-21.379 -1.644,-21.403 -1.483,-21.447C-1.338,-21.499 -1.191,-21.565 -1.052,-21.639C-0.777,-21.793 -0.509,-21.96 -0.216,-22.009C-0.018,-22.002 0.179,-21.987 0.361,-21.942C0.451,-21.916 0.531,-21.885 0.67,-21.845C0.809,-21.803 1.003,-21.756 1.194,-21.722C1.386,-21.688 1.577,-21.666 1.755,-21.651C1.931,-21.636 2.095,-21.629 2.212,-21.623C2.339,-21.611 2.422,-21.609 2.502,-21.602C2.586,-21.598 2.666,-21.595 2.789,-21.58C2.919,-21.574 3.091,-21.553 3.264,-21.537C3.606,-21.499 3.949,-21.459 4.292,-21.435C4.465,-21.417 4.634,-21.403 4.874,-21.407C5.115,-21.407 5.43,-21.428 5.648,-21.451C5.871,-21.476 6.004,-21.503 6.123,-21.533C6.244,-21.561 6.353,-21.585 6.466,-21.616C6.692,-21.673 6.944,-21.742 7.123,-21.774C7.21,-21.793 7.275,-21.806 7.379,-21.809C7.484,-21.809 7.626,-21.796 7.719,-21.793C7.817,-21.778 7.867,-21.765 7.933,-21.749C7.987,-21.734 8.062,-21.718 8.148,-21.693C8.234,-21.666 8.346,-21.629 8.475,-21.592C8.604,-21.553 8.759,-21.503 8.92,-21.476C9.076,-21.442 9.24,-21.425 9.388,-21.41C9.536,-21.4 9.66,-21.396 9.808,-21.39C9.953,-21.379 10.125,-21.376 10.262,-21.366C10.397,-21.356 10.501,-21.346 10.604,-21.326C10.705,-21.315 10.798,-21.302 10.878,-21.284C10.953,-21.275 11.008,-21.253 11.07,-21.236C11.132,-21.226 11.196,-21.206 11.292,-21.179C11.391,-21.154 11.529,-21.11 11.672,-21.068C11.808,-21.025 11.955,-20.981 12.137,-20.945C12.318,-20.909 12.541,-20.882 12.714,-20.874C12.89,-20.864 13.017,-20.877 13.13,-20.889C13.244,-20.899 13.346,-20.909 13.476,-20.929C13.605,-20.939 13.76,-20.96 13.917,-20.976C14.071,-20.987 14.225,-20.994 14.383,-20.994C14.536,-20.99 14.691,-20.981 14.911,-20.936C15.126,-20.895 15.404,-20.818 15.667,-20.691C15.923,-20.565 16.163,-20.39 16.336,-20.235C16.508,-20.083 16.609,-19.948 16.705,-19.819C16.802,-19.694 16.885,-19.574 16.961,-19.454C17.045,-19.331 17.119,-19.211 17.171,-19.127C17.222,-19.044 17.245,-19.004 17.282,-18.948C17.317,-18.896 17.351,-18.834 17.421,-18.724C17.493,-18.602 17.591,-18.442 17.724,-18.233C17.856,-18.021 18.02,-17.764 18.125,-17.604C18.23,-17.446 18.273,-17.39 18.311,-17.331C18.351,-17.273 18.393,-17.218 18.461,-17.119C18.522,-17.017 18.625,-16.881 18.724,-16.746C18.821,-16.61 18.921,-16.475 19.013,-16.335C19.202,-16.047 19.365,-15.777 19.486,-15.456C19.549,-15.29 19.597,-15.108 19.621,-14.935C19.646,-14.76 19.646,-14.599 19.641,-14.439C19.627,-14.276 19.603,-14.109 19.567,-13.935M-15.653,-10.326C-15.783,-10.398 -15.903,-10.474 -16.005,-10.569C-16.112,-10.665 -16.208,-10.774 -16.288,-10.89C-16.375,-11.015 -16.446,-11.143 -16.511,-11.282C-16.57,-11.425 -16.622,-11.566 -16.649,-11.712C-16.767,-12.235 -16.735,-12.77 -16.501,-13.259C-16.446,-13.386 -16.356,-13.507 -16.276,-13.62C-16.196,-13.738 -16.104,-13.853 -16.02,-13.966C-15.937,-14.08 -15.848,-14.186 -15.789,-14.306C-15.703,-14.478 -15.653,-14.672 -15.653,-14.672C-15.653,-14.672 -15.647,-14.815 -15.659,-14.951C-15.675,-15.092 -15.711,-15.237 -15.711,-15.237L-15.536,-15.013C-15.536,-15.013 -15.564,-15.156 -15.582,-15.303C-15.591,-15.4 -15.609,-15.508 -15.595,-15.604C-15.56,-15.846 -15.478,-16.082 -15.478,-16.082L-15.172,-16.422C-15.172,-16.422 -14.98,-16.468 -14.795,-16.525C-14.619,-16.579 -14.447,-16.648 -14.447,-16.648C-14.447,-16.648 -14.335,-16.777 -14.252,-16.922C-14.16,-17.075 -14.083,-17.239 -14.083,-17.239C-14.083,-17.239 -13.914,-17.416 -13.709,-17.539C-13.568,-17.618 -13.398,-17.658 -13.238,-17.717C-12.929,-17.844 -12.617,-17.962 -12.299,-18.004C-12.186,-18.017 -12.065,-18.004 -11.948,-18.004C-11.824,-18.004 -11.701,-17.989 -11.578,-18.004C-11.402,-18.017 -11.232,-18.072 -11.063,-18.075C-10.837,-18.085 -10.609,-18.028 -10.609,-18.028C-10.609,-18.028 -10.43,-17.864 -10.273,-17.692C-10.178,-17.576 -10.091,-17.446 -9.99,-17.331C-9.893,-17.222 -9.797,-17.109 -9.687,-17.017C-9.575,-16.922 -9.465,-16.832 -9.341,-16.761C-9.227,-16.696 -9.104,-16.641 -8.98,-16.594C-8.854,-16.546 -8.72,-16.515 -8.588,-16.49C-8.098,-16.392 -7.616,-16.505 -7.136,-16.508C-7.015,-16.512 -6.904,-16.492 -6.784,-16.508C-6.623,-16.518 -6.469,-16.564 -6.469,-16.564C-6.469,-16.564 -6.309,-16.665 -6.161,-16.78C-6.059,-16.866 -5.969,-16.965 -5.861,-17.041C-5.788,-17.098 -5.694,-17.141 -5.605,-17.178C-5.515,-17.218 -5.417,-17.239 -5.321,-17.27C-5.167,-17.314 -5.004,-17.335 -4.858,-17.4C-4.64,-17.488 -4.445,-17.638 -4.445,-17.638C-4.445,-17.638 -4.325,-17.805 -4.177,-17.942C-4.054,-18.061 -3.898,-18.144 -3.898,-18.144C-3.898,-18.144 -3.77,-18.144 -3.644,-18.109C-3.544,-18.085 -3.455,-18.034 -3.356,-18.004C-3.248,-17.967 -3.137,-17.942 -3.038,-17.905C-2.89,-17.85 -2.751,-17.777 -2.751,-17.777L-2.551,-17.578L-2.422,-17.326C-2.422,-17.326 -2.375,-17.184 -2.369,-17.036C-2.366,-16.736 -2.424,-16.437 -2.508,-16.144C-2.572,-15.91 -2.671,-15.679 -2.816,-15.463C-2.964,-15.253 -3.162,-15.065 -3.162,-15.065L-3.6,-14.815C-3.6,-14.815 -3.779,-14.775 -3.97,-14.763C-4.096,-14.753 -4.223,-14.763 -4.353,-14.76C-4.521,-14.75 -4.692,-14.723 -4.861,-14.723C-5.025,-14.723 -5.192,-14.726 -5.353,-14.76C-5.469,-14.78 -5.584,-14.842 -5.694,-14.883C-5.815,-14.922 -5.926,-14.984 -6.046,-15.013C-6.172,-15.04 -6.305,-15.055 -6.432,-15.052C-6.962,-15.03 -7.478,-14.821 -8,-14.605C-8.188,-14.528 -8.373,-14.447 -8.373,-14.447C-8.373,-14.447 -8.159,-14.296 -7.931,-14.186C-7.78,-14.116 -7.626,-14.058 -7.466,-14.026C-7.302,-13.986 -7.129,-14.013 -6.959,-13.985C-6.716,-13.954 -6.469,-13.883 -6.469,-13.883L-6.136,-13.543L-6.142,-13.266L-6.287,-13.01L-6.602,-12.764C-6.602,-12.764 -6.787,-12.676 -6.981,-12.644C-7.274,-12.587 -7.573,-12.597 -7.857,-12.585C-8.147,-12.566 -8.44,-12.519 -8.73,-12.477C-9.203,-12.389 -9.681,-12.377 -10.155,-12.374C-10.575,-12.364 -10.998,-12.368 -11.405,-12.251C-11.574,-12.196 -11.729,-12.102 -11.729,-12.102C-11.729,-12.102 -11.908,-11.954 -12.071,-11.788C-12.186,-11.675 -12.278,-11.541 -12.392,-11.428C-12.487,-11.332 -12.593,-11.248 -12.701,-11.162C-12.808,-11.081 -12.926,-11.012 -13.037,-10.941C-13.376,-10.735 -13.697,-10.514 -14.037,-10.347C-14.588,-10.081 -15.147,-10.081 -15.653,-10.326M19.393,-20.691C18.008,-22.602 16.308,-24.305 14.397,-25.684C12.491,-27.067 10.379,-28.129 8.186,-28.834C5.988,-29.535 3.712,-29.889 1.437,-29.889C-0.833,-29.889 -3.112,-29.535 -5.312,-28.834C-7.502,-28.129 -9.619,-27.067 -11.525,-25.684C-13.438,-24.305 -15.141,-22.602 -16.52,-20.691C-17.905,-18.785 -18.97,-16.669 -19.673,-14.476C-20.379,-12.282 -20.728,-10.005 -20.728,-7.732C-20.728,-5.461 -20.379,-3.185 -19.673,-0.99C-18.97,1.206 -17.905,3.319 -16.52,5.225C-15.141,7.135 -13.438,8.842 -11.525,10.221C-9.619,11.606 -7.502,12.664 -5.312,13.371C-3.112,14.077 -0.833,14.426 1.437,14.426C3.712,14.426 5.988,14.077 8.186,13.371C10.373,12.664 12.491,11.606 14.397,10.221C16.308,8.835 18.008,7.135 19.393,5.225C20.775,3.319 21.839,1.206 22.546,-0.99C23.249,-3.185 23.599,-5.461 23.599,-7.732C23.599,-10.005 23.249,-12.282 22.546,-14.476C21.839,-16.669 20.775,-18.785 19.393,-20.691" style="fill:rgb(0,83,155);fill-rule:nonzero;"/>
        </g>
        <g transform="matrix(1,0,0,1,412.642,340.209)">
            <path d="M0,-0.61C-0.274,-0.833 -0.59,-0.907 -0.904,-0.882C-1.01,-0.869 -1.118,-0.848 -1.219,-0.811C-1.321,-0.77 -1.419,-0.725 -1.509,-0.662C-1.589,-0.597 -1.669,-0.531 -1.734,-0.447C-1.802,-0.369 -1.867,-0.241 -1.901,-0.181L-1.928,-0.123C-1.928,-0.123 -1.818,-0.015 -1.685,0.069C-1.376,0.26 -1.028,0.297 -0.688,0.244C-0.583,0.233 -0.481,0.199 -0.387,0.155C-0.288,0.111 -0.198,0.062 -0.111,-0.006C-0.025,-0.074 0.052,-0.163 0.132,-0.249C0.181,-0.308 0.215,-0.379 0.215,-0.379C0.215,-0.379 0.123,-0.511 0,-0.61" style="fill:rgb(0,83,155);fill-rule:nonzero;"/>
        </g>
        <g transform="matrix(1,0,0,1,431.858,334.684)">
            <path d="M0,1.259L0.496,1.239L0.934,1.016L1.215,0.634L0.932,0.229L0.479,0L-0.034,0L-0.49,0.229L-0.775,0.634L-0.775,0.716L-0.456,1.074L0,1.259Z" style="fill:rgb(0,83,155);fill-rule:nonzero;"/>
        </g>
        <g transform="matrix(1,0,0,1,429.898,339.084)">
            <path d="M0,0.737C0.165,0.792 0.337,0.83 0.51,0.847C1.027,0.904 1.55,0.815 2.031,0.54C2.253,0.413 2.454,0.24 2.454,0.24C2.454,0.24 2.204,0.081 1.926,-0.003C1.685,-0.077 1.436,-0.133 1.185,-0.151C0.936,-0.167 0.695,-0.143 0.451,-0.107C0.282,-0.077 0.115,-0.028 -0.049,0.037C-0.285,0.13 -0.508,0.265 -0.508,0.265L-0.478,0.522C-0.478,0.522 -0.252,0.658 0,0.737" style="fill:rgb(0,83,155);fill-rule:nonzero;"/>
        </g>
        <g transform="matrix(1,0,0,1,432.984,349.541)">
            <path d="M0,-5.031C0.013,-5.177 0.074,-5.324 0.083,-5.474C0.096,-5.658 0.062,-5.845 0.062,-5.845L-0.26,-6.044C-0.26,-6.044 -0.49,-6.095 -0.726,-6.126C-1.132,-6.179 -1.548,-6.179 -1.962,-6.212C-2.458,-6.259 -2.958,-6.327 -3.458,-6.287C-3.612,-6.278 -3.764,-6.259 -3.918,-6.243C-4.15,-6.218 -4.381,-6.184 -4.381,-6.184L-4.498,-6.015L-4.264,-2.852C-4.264,-2.852 -4.188,-3.094 -4.054,-3.3C-3.911,-3.508 -3.718,-3.674 -3.718,-3.674L-3.385,-3.843L-3.082,-3.869L-2.896,-3.648C-2.896,-3.648 -2.859,-3.442 -2.854,-3.238C-2.854,-2.948 -2.881,-2.655 -2.881,-2.368C-2.859,-1.449 -2.878,-0.53 -2.756,0.387C-2.733,0.537 -2.715,0.689 -2.696,0.841C-2.662,1.068 -2.628,1.296 -2.628,1.296C-2.628,1.296 -2.573,1.071 -2.517,0.842C-2.282,-0.172 -1.959,-1.176 -1.913,-2.186C-1.866,-2.814 -1.978,-3.436 -1.839,-4.078C-1.801,-4.241 -1.764,-4.398 -1.693,-4.55C-1.589,-4.774 -1.423,-4.969 -1.423,-4.969L-1.16,-5.177L-0.873,-5.285L-0.507,-5.174C-0.507,-5.174 -0.327,-5.012 -0.183,-4.825C-0.013,-4.599 0.121,-4.346 0.121,-4.346C0.121,-4.346 0.056,-4.51 0.025,-4.677C0.004,-4.794 -0.01,-4.911 0,-5.031" style="fill:rgb(0,83,155);fill-rule:nonzero;"/>
        </g>
        <g transform="matrix(1,0,0,1,547.18,367.974)">
            <path d="M0,-67.216C-0.033,-67.108 -0.073,-66.994 -0.108,-66.885C-0.154,-66.766 -0.183,-66.642 -0.247,-66.536C-0.694,-65.79 -1.006,-64.97 -1.586,-64.412C-2.555,-63.481 -3.592,-62.613 -4.794,-62.16C-6.105,-61.669 -7.62,-61.709 -9.138,-61.57C-9.395,-61.549 -9.646,-61.645 -9.903,-61.689C-9.971,-61.703 -10.029,-61.731 -10.095,-61.727L-62.345,-60.333C-62.345,-60.333 -62.521,-60.505 -62.659,-60.703C-62.792,-60.879 -62.892,-61.085 -62.892,-61.085L-62.946,-61.487L-62.816,-61.826L-62.567,-62.082C-62.567,-62.082 -62.4,-62.184 -62.219,-62.228C-61.96,-62.283 -61.688,-62.27 -61.42,-62.262C-60.88,-62.246 -60.337,-62.27 -59.801,-62.293L-45.075,-62.857L-45.168,-63.57L-89.979,-62.379C-90.639,-62.372 -91.296,-62.362 -91.955,-62.335C-92.399,-62.311 -92.847,-62.296 -93.287,-62.246C-93.874,-62.171 -94.46,-62.112 -95.028,-61.975C-95.648,-61.826 -96.263,-61.648 -96.846,-61.402C-97.395,-61.17 -97.919,-60.883 -98.403,-60.549C-98.818,-60.263 -99.202,-59.935 -99.521,-59.553C-99.853,-59.149 -100.171,-58.733 -100.313,-58.258C-100.528,-57.514 -100.605,-56.718 -100.584,-55.931C-100.571,-55.493 -100.393,-55.07 -100.22,-54.633C-100.072,-54.247 -99.856,-53.886 -99.63,-53.528C-99.402,-53.161 -99.134,-52.818 -98.869,-52.479C-98.305,-51.766 -97.69,-51.083 -97.077,-50.394C-96.61,-49.868 -96.167,-49.372 -95.751,-48.854C-95.466,-48.492 -95.174,-48.144 -94.918,-47.758C-94.55,-47.201 -94.177,-46.645 -93.89,-46.041C-93.55,-45.313 -93.238,-44.566 -93.071,-43.791C-92.888,-42.943 -92.739,-42.088 -92.863,-41.265C-93.032,-40.101 -93.437,-38.964 -93.937,-37.883C-94.189,-37.336 -94.657,-36.905 -95.103,-36.452C-95.435,-36.107 -95.831,-35.814 -96.216,-35.52C-96.568,-35.253 -96.935,-35.015 -97.305,-34.769C-97.826,-34.422 -98.362,-34.089 -98.893,-33.755C-99.075,-33.636 -99.264,-33.519 -99.264,-33.519C-99.264,-33.519 -99.328,-33.786 -99.396,-34.055C-99.439,-34.234 -99.486,-34.41 -99.535,-34.592C-99.681,-35.124 -99.834,-35.656 -99.834,-35.656C-99.834,-35.656 -99.745,-35.748 -99.646,-35.834C-99.264,-36.145 -98.878,-36.452 -98.482,-36.82C-98.335,-36.957 -98.188,-37.097 -98.06,-37.247C-97.873,-37.467 -97.665,-37.667 -97.546,-37.917C-97.322,-38.37 -97.139,-38.841 -97.043,-39.33C-96.96,-39.716 -96.979,-40.124 -97.021,-40.521C-97.077,-41.058 -97.157,-41.582 -97.329,-42.088C-97.592,-42.857 -97.912,-43.607 -98.305,-44.32C-98.665,-44.958 -99.112,-45.546 -99.581,-46.13C-100.013,-46.669 -100.501,-47.173 -100.991,-47.663C-101.481,-48.148 -102.007,-48.598 -102.518,-49.061C-103.068,-49.539 -103.623,-49.994 -104.176,-50.461C-104.475,-50.717 -104.776,-50.97 -105.077,-51.226C-105.493,-51.589 -105.906,-51.954 -106.311,-52.335C-106.67,-52.67 -107.022,-53.009 -107.362,-53.363C-107.644,-53.663 -107.921,-53.968 -108.17,-54.295C-108.433,-54.642 -108.688,-54.995 -108.896,-55.379C-109.102,-55.752 -109.309,-56.128 -109.392,-56.527C-109.524,-57.173 -109.577,-57.841 -109.528,-58.494C-109.484,-59.003 -109.33,-59.497 -109.12,-59.976C-108.815,-60.659 -108.473,-61.33 -108.01,-61.904C-107.405,-62.655 -106.714,-63.335 -105.942,-63.911C-105.224,-64.446 -104.41,-64.847 -103.57,-65.208C-102.79,-65.54 -101.963,-65.772 -101.127,-65.973C-100.298,-66.174 -99.449,-66.297 -98.597,-66.396C-97.759,-66.491 -96.909,-66.526 -96.064,-66.565C-95.357,-66.594 -94.646,-66.59 -93.937,-66.597C-93.538,-66.599 -93.144,-66.594 -92.745,-66.597L0.049,-67.366C0.049,-67.366 0.025,-67.294 0,-67.216M-9.52,-60.037C-9.57,-59.935 -9.617,-59.831 -9.669,-59.723C-9.724,-59.614 -9.774,-59.494 -9.844,-59.396C-10.177,-58.904 -10.445,-58.371 -10.859,-57.986C-11.608,-57.285 -12.353,-56.572 -13.247,-56.199C-14.466,-55.688 -15.839,-55.511 -17.218,-55.32C-17.662,-55.255 -18.114,-55.395 -18.578,-55.449C-18.748,-55.47 -18.902,-55.555 -19.062,-55.555L-63.9,-54.956C-63.9,-54.956 -64.092,-55.064 -64.269,-55.187C-64.382,-55.271 -64.496,-55.346 -64.598,-55.438C-64.739,-55.568 -64.859,-55.727 -64.859,-55.727C-64.859,-55.727 -64.98,-55.944 -65.044,-56.169C-65.09,-56.329 -65.104,-56.503 -65.125,-56.678C-65.149,-56.853 -65.156,-57.036 -65.175,-57.214C-65.189,-57.387 -65.221,-57.56 -65.218,-57.736C-65.208,-57.964 -65.141,-58.193 -65.141,-58.193C-65.141,-58.193 -65.058,-58.359 -64.93,-58.482C-64.835,-58.572 -64.725,-58.645 -64.615,-58.72C-64.44,-58.838 -64.252,-58.935 -64.252,-58.935L-9.456,-60.185C-9.456,-60.185 -9.486,-60.109 -9.52,-60.037M-21.583,-53.818C-21.613,-53.719 -21.645,-53.619 -21.679,-53.525C-21.716,-53.417 -21.746,-53.312 -21.803,-53.219C-22.05,-52.778 -22.233,-52.309 -22.555,-51.954C-23.076,-51.377 -23.616,-50.82 -24.273,-50.483C-25.128,-50.051 -26.124,-49.868 -27.111,-49.647C-27.367,-49.588 -27.639,-49.641 -27.916,-49.647C-28.079,-49.653 -28.246,-49.705 -28.413,-49.701L-67.972,-49.079L-68.503,-49.308L-68.895,-49.641L-69.021,-50.154L-68.895,-50.711C-68.895,-50.711 -68.797,-50.908 -68.66,-51.082C-68.45,-51.328 -68.201,-51.529 -67.971,-51.725C-67.714,-51.939 -67.461,-52.154 -67.208,-52.401C-67.069,-52.547 -66.945,-52.697 -66.828,-52.845C-66.723,-52.975 -66.634,-53.108 -66.525,-53.223C-66.372,-53.392 -66.189,-53.53 -66.189,-53.53C-66.189,-53.53 -65.964,-53.663 -65.718,-53.722C-65.359,-53.8 -64.977,-53.777 -64.604,-53.769L-21.543,-53.947C-21.543,-53.947 -21.565,-53.882 -21.583,-53.818M-34.876,-47.167C-34.889,-47.062 -34.889,-46.953 -34.922,-46.857C-35.071,-46.43 -35.173,-45.992 -35.407,-45.635C-35.672,-45.235 -35.992,-44.865 -36.392,-44.621C-36.919,-44.294 -37.533,-44.088 -38.152,-43.948C-38.514,-43.865 -38.898,-43.936 -39.292,-43.966C-39.442,-43.976 -39.588,-44.064 -39.735,-44.064C-50.268,-43.819 -70.669,-43.115 -71.214,-43.228L-71.758,-43.337L-72.171,-43.585L-72.323,-44.01L-72.266,-44.504C-72.266,-44.504 -72.181,-44.74 -72.038,-44.936C-71.945,-45.066 -71.826,-45.177 -71.702,-45.282C-71.452,-45.491 -71.169,-45.68 -70.9,-45.902C-70.626,-46.136 -70.375,-46.401 -70.119,-46.649C-69.993,-46.765 -69.87,-46.887 -69.728,-46.984C-69.599,-47.079 -69.46,-47.173 -69.305,-47.237C-68.808,-47.438 -68.274,-47.438 -67.751,-47.444L-34.867,-47.625C-34.867,-47.625 -34.86,-47.549 -34.863,-47.478C-34.867,-47.369 -34.867,-47.268 -34.876,-47.167M-59.233,-41.068C-59.241,-40.944 -59.241,-40.824 -59.278,-40.709C-59.424,-40.268 -59.541,-39.824 -59.757,-39.436C-59.945,-39.094 -60.213,-38.794 -60.507,-38.531C-60.833,-38.241 -61.191,-37.982 -61.593,-37.821C-62.121,-37.612 -62.713,-37.529 -63.298,-37.424C-63.452,-37.401 -63.612,-37.442 -63.772,-37.442L-74.873,-37.082C-75.003,-37.079 -75.14,-37.131 -75.268,-37.168C-75.392,-37.199 -75.521,-37.234 -75.633,-37.291C-75.79,-37.371 -75.925,-37.497 -75.925,-37.497L-76.123,-37.878L-76.176,-38.33C-76.176,-38.33 -76.157,-38.55 -76.099,-38.763C-76.056,-38.893 -75.986,-39.029 -75.916,-39.155C-75.843,-39.281 -75.759,-39.402 -75.666,-39.517C-75.567,-39.648 -75.464,-39.774 -75.343,-39.889C-75.188,-40.043 -75.027,-40.2 -74.849,-40.326C-74.583,-40.521 -74.303,-40.695 -74.013,-40.842C-73.791,-40.962 -73.547,-41.043 -73.31,-41.126C-72.979,-41.235 -72.641,-41.314 -72.304,-41.385C-72.152,-41.419 -72.004,-41.478 -71.853,-41.478L-59.229,-41.595C-59.229,-41.595 -59.224,-41.508 -59.224,-41.419C-59.224,-41.299 -59.224,-41.184 -59.233,-41.068M-64.44,-35.82C-64.444,-35.687 -64.444,-35.558 -64.462,-35.428C-64.483,-35.254 -64.496,-35.083 -64.547,-34.925C-64.696,-34.517 -64.835,-34.101 -65.061,-33.749C-65.301,-33.383 -65.605,-33.046 -65.955,-32.769C-66.3,-32.488 -66.674,-32.247 -67.087,-32.111C-67.667,-31.922 -68.294,-31.858 -68.916,-31.799C-69.129,-31.776 -69.349,-31.833 -69.57,-31.864C-69.654,-31.877 -69.734,-31.918 -69.817,-31.918C-73.266,-31.824 -79.479,-31.445 -80.024,-31.59L-80.572,-31.732L-80.916,-32.007L-80.935,-32.334C-80.935,-32.334 -80.896,-32.533 -80.821,-32.717C-80.664,-33.096 -80.408,-33.462 -80.088,-33.823C-79.794,-34.144 -79.521,-34.475 -79.202,-34.814C-79.101,-34.922 -78.992,-35.029 -78.878,-35.131C-78.766,-35.231 -78.655,-35.332 -78.526,-35.418C-78.378,-35.529 -78.221,-35.625 -78.058,-35.718C-77.367,-36.079 -76.657,-36.212 -75.938,-36.153C-75.762,-36.141 -75.589,-36.107 -75.416,-36.107L-64.44,-36.012C-64.44,-36.012 -64.438,-35.915 -64.44,-35.82M-70.795,-30.609C-70.906,-30.368 -71.021,-30.137 -71.159,-29.891C-71.246,-29.751 -71.323,-29.608 -71.427,-29.481C-71.612,-29.255 -71.81,-29.036 -72.028,-28.847C-72.192,-28.709 -72.375,-28.598 -72.565,-28.492C-73.061,-28.215 -73.579,-28.045 -74.099,-27.913C-75.107,-27.679 -76.139,-27.628 -77.162,-27.549C-78.646,-27.423 -80.127,-27.225 -81.605,-27.046C-82.019,-26.993 -82.425,-26.938 -82.839,-26.907C-84.239,-26.784 -85.637,-26.651 -87.04,-26.571C-88.62,-26.478 -90.206,-26.426 -91.783,-26.385C-93.087,-26.358 -94.393,-26.37 -95.694,-26.37C-96.41,-26.372 -97.123,-26.395 -97.836,-26.413C-98.106,-26.413 -98.375,-26.419 -98.375,-26.419L-98.341,-28.589C-98.341,-28.589 -98.188,-28.601 -98.039,-28.607C-97.036,-28.672 -96.04,-28.724 -95.037,-28.714C-93.798,-28.687 -92.557,-28.546 -91.322,-28.505C-91.008,-28.501 -90.702,-28.468 -90.398,-28.505C-89.136,-28.653 -87.871,-28.81 -86.624,-29.058C-86.078,-29.166 -85.557,-29.387 -85.017,-29.572C-84.724,-29.673 -84.434,-29.805 -84.146,-29.921C-83.839,-30.034 -83.54,-30.162 -83.23,-30.245C-82.87,-30.338 -82.503,-30.414 -82.13,-30.474C-81.92,-30.51 -81.704,-30.516 -81.49,-30.532C-81.016,-30.557 -80.538,-30.55 -80.057,-30.547L-70.743,-30.727C-70.743,-30.727 -70.768,-30.665 -70.795,-30.609M-92.23,-35.912C-92.012,-35.912 -91.792,-35.865 -91.792,-35.865L-91.385,-35.669L-91.092,-35.329L-90.998,-34.865L-91.122,-34.41C-91.122,-34.41 -91.261,-34.197 -91.44,-34.028C-91.563,-33.909 -91.712,-33.823 -91.852,-33.728C-92.159,-33.524 -92.465,-33.339 -92.779,-33.195C-93.075,-33.044 -93.385,-32.946 -93.699,-32.926C-93.908,-32.907 -94.119,-32.95 -94.119,-32.95L-94.46,-33.102L-94.642,-33.53C-94.642,-33.53 -94.639,-33.823 -94.62,-34.111C-94.615,-34.274 -94.59,-34.438 -94.59,-34.438C-94.59,-34.438 -94.504,-34.636 -94.401,-34.82C-94.338,-34.941 -94.272,-35.062 -94.189,-35.168C-94.109,-35.274 -94.021,-35.372 -93.92,-35.448C-93.81,-35.533 -93.684,-35.6 -93.553,-35.656C-93.276,-35.767 -92.977,-35.82 -92.681,-35.865C-92.532,-35.888 -92.382,-35.912 -92.23,-35.912M-96.562,-52.643C-96.562,-52.643 -96.463,-52.79 -96.329,-52.899C-96.226,-52.985 -96.108,-53.046 -95.988,-53.113C-95.85,-53.195 -95.703,-53.262 -95.703,-53.262L-90.552,-53.592C-89.806,-53.657 -89.059,-53.715 -88.303,-53.552C-88.171,-53.525 -88.04,-53.488 -87.917,-53.439C-87.794,-53.392 -87.671,-53.336 -87.559,-53.262C-87.439,-53.186 -87.325,-53.097 -87.223,-52.987C-87.115,-52.882 -87.028,-52.766 -86.943,-52.643C-86.678,-52.236 -86.495,-51.806 -86.35,-51.39C-86.211,-50.977 -86.125,-50.55 -86.192,-50.118C-86.226,-49.943 -86.276,-49.771 -86.344,-49.608C-86.418,-49.441 -86.517,-49.28 -86.622,-49.131C-86.729,-48.984 -86.856,-48.847 -86.985,-48.718C-87.105,-48.614 -87.235,-48.515 -87.374,-48.424C-88.306,-47.826 -89.29,-47.737 -90.264,-47.561C-90.749,-47.472 -91.234,-47.369 -91.728,-47.413C-91.892,-47.435 -92.057,-47.463 -92.215,-47.516C-92.375,-47.561 -92.532,-47.625 -92.681,-47.706C-92.825,-47.782 -92.965,-47.88 -93.094,-47.977C-93.226,-48.085 -93.345,-48.205 -93.458,-48.335C-93.784,-48.724 -94.028,-49.16 -94.368,-49.581C-94.719,-50.027 -95.188,-50.407 -95.624,-50.864C-95.818,-51.072 -95.994,-51.272 -96.147,-51.486C-96.24,-51.612 -96.336,-51.736 -96.413,-51.874C-96.512,-52.069 -96.584,-52.278 -96.584,-52.278L-96.562,-52.643ZM-87.075,-57.634C-87.05,-57.483 -87.039,-57.331 -87.057,-57.187C-87.072,-57.02 -87.108,-56.862 -87.174,-56.708C-87.235,-56.551 -87.325,-56.405 -87.42,-56.264C-87.517,-56.128 -87.63,-55.998 -87.751,-55.878C-87.853,-55.777 -87.967,-55.688 -88.081,-55.598C-88.957,-54.95 -89.883,-54.901 -90.808,-54.808C-91.965,-54.691 -93.115,-54.536 -94.27,-54.528C-94.451,-54.521 -94.627,-54.518 -94.815,-54.514C-94.991,-54.513 -95.175,-54.528 -95.354,-54.513C-95.427,-54.506 -95.5,-54.459 -95.577,-54.452C-95.694,-54.439 -95.821,-54.446 -95.944,-54.452C-96.317,-54.452 -96.703,-54.466 -97.082,-54.536C-97.212,-54.565 -97.339,-54.595 -97.462,-54.639C-97.639,-54.705 -97.802,-54.808 -97.802,-54.808L-98.175,-55.175C-98.175,-55.175 -98.329,-55.407 -98.428,-55.663C-98.748,-56.563 -98.619,-57.528 -98.023,-58.491C-97.922,-58.652 -97.814,-58.804 -97.693,-58.951C-97.577,-59.094 -97.446,-59.229 -97.312,-59.358C-97.175,-59.485 -97.026,-59.6 -96.883,-59.706C-96.45,-59.996 -95.997,-60.156 -95.543,-60.256C-94.784,-60.411 -94.014,-60.453 -93.248,-60.573C-92.411,-60.676 -91.573,-60.821 -90.728,-60.821C-90.542,-60.815 -90.357,-60.802 -90.178,-60.771C-90.003,-60.737 -89.826,-60.695 -89.664,-60.63C-89.515,-60.573 -89.376,-60.494 -89.244,-60.411C-88.873,-60.177 -88.533,-59.859 -88.179,-59.494C-87.578,-58.88 -87.196,-58.264 -87.075,-57.634M-67.204,-58.893C-67.902,-58.6 -68.596,-58.418 -69.278,-58.266C-69.438,-58.232 -69.599,-58.17 -69.753,-58.163L-82.947,-57.658C-83.305,-57.64 -83.666,-57.61 -84.012,-57.647C-84.323,-57.678 -84.632,-57.767 -84.915,-57.945C-85.049,-58.023 -85.175,-58.118 -85.291,-58.217C-85.412,-58.32 -85.531,-58.44 -85.644,-58.551C-85.758,-58.661 -85.863,-58.784 -85.974,-58.904C-86.27,-59.237 -86.538,-59.571 -86.735,-59.914C-86.911,-60.232 -87.039,-60.549 -87.143,-60.87C-87.229,-61.119 -87.307,-61.372 -87.307,-61.372L-64.761,-61.549L-64.791,-61.519C-64.791,-61.519 -64.885,-61.266 -64.996,-61.018C-65.125,-60.729 -65.266,-60.436 -65.471,-60.166C-65.579,-60.024 -65.699,-59.89 -65.835,-59.76C-65.942,-59.654 -66.063,-59.559 -66.189,-59.467C-66.328,-59.367 -66.474,-59.273 -66.621,-59.187C-66.81,-59.077 -67.007,-58.982 -67.204,-58.893M-73.474,-51.93L-83.237,-51.721C-83.237,-51.721 -83.483,-51.817 -83.729,-51.923C-83.889,-51.991 -84.052,-52.063 -84.209,-52.142C-84.363,-52.226 -84.521,-52.309 -84.669,-52.401C-84.819,-52.503 -84.965,-52.609 -85.101,-52.722C-85.239,-52.84 -85.368,-52.96 -85.474,-53.097C-85.649,-53.346 -85.807,-53.606 -85.937,-53.872C-86.078,-54.195 -86.144,-54.555 -86.159,-54.901C-86.164,-55.062 -86.127,-55.224 -86.127,-55.224L-85.934,-55.708L-85.588,-56.084C-85.588,-56.084 -85.366,-56.224 -85.126,-56.307C-84.869,-56.401 -84.604,-56.443 -84.604,-56.443C-84.604,-56.443 -84.271,-56.373 -83.938,-56.381C-75.812,-56.651 -67.686,-57.005 -67.686,-57.005C-67.686,-57.005 -67.513,-56.848 -67.365,-56.671C-67.267,-56.555 -67.167,-56.445 -67.1,-56.317C-67,-56.141 -66.952,-55.937 -66.952,-55.937C-66.952,-55.937 -66.936,-55.73 -66.976,-55.538C-67.069,-55.153 -67.3,-54.772 -67.59,-54.391C-67.852,-54.059 -68.132,-53.738 -68.407,-53.404C-68.503,-53.292 -68.596,-53.182 -68.702,-53.08C-68.803,-52.975 -68.906,-52.874 -69.024,-52.79C-69.438,-52.479 -69.885,-52.319 -70.326,-52.195C-71.363,-51.918 -72.422,-51.926 -73.474,-51.93M-75.349,-45.605C-75.657,-45.553 -75.979,-45.572 -76.293,-45.612C-76.457,-45.635 -76.617,-45.697 -76.78,-45.693L-83.425,-45.515C-83.607,-45.512 -83.789,-45.506 -83.969,-45.526C-84.224,-45.556 -84.479,-45.635 -84.479,-45.635C-84.479,-45.635 -84.681,-45.72 -84.856,-45.856C-84.974,-45.942 -85.082,-46.055 -85.178,-46.17C-85.258,-46.266 -85.331,-46.379 -85.388,-46.491C-85.449,-46.605 -85.502,-46.729 -85.526,-46.851C-85.604,-47.189 -85.585,-47.549 -85.462,-47.891C-85.368,-48.144 -85.203,-48.376 -85.06,-48.617C-84.989,-48.737 -84.915,-48.861 -84.86,-48.987C-84.79,-49.147 -84.749,-49.322 -84.672,-49.474C-84.563,-49.69 -84.416,-49.881 -84.416,-49.881C-84.416,-49.881 -84.258,-49.989 -84.095,-50.06C-83.975,-50.11 -83.839,-50.137 -83.713,-50.178C-83.44,-50.261 -83.172,-50.356 -83.172,-50.356L-72.298,-50.507C-72.298,-50.507 -72.079,-50.397 -71.894,-50.249C-71.711,-50.113 -71.563,-49.94 -71.563,-49.94C-71.563,-49.94 -71.461,-49.773 -71.416,-49.594C-71.319,-49.188 -71.385,-48.743 -71.527,-48.318C-71.579,-48.17 -71.641,-48.028 -71.718,-47.888C-71.795,-47.755 -71.878,-47.625 -71.98,-47.505C-72.098,-47.364 -72.223,-47.232 -72.359,-47.113C-72.603,-46.91 -72.871,-46.737 -73.134,-46.608C-73.489,-46.444 -73.853,-46.28 -74.204,-46.086C-74.589,-45.874 -74.964,-45.673 -75.349,-45.605M-84.286,-39.873C-84.422,-39.869 -84.555,-39.92 -84.69,-39.947C-84.819,-39.978 -84.955,-40.009 -85.082,-40.043C-85.214,-40.093 -85.345,-40.139 -85.462,-40.2C-85.665,-40.306 -85.848,-40.449 -85.848,-40.449L-86.127,-40.792L-86.251,-41.259L-86.192,-41.742C-86.192,-41.742 -86.111,-41.961 -85.992,-42.166C-85.918,-42.302 -85.816,-42.425 -85.717,-42.549C-85.604,-42.688 -85.492,-42.822 -85.368,-42.952C-85.246,-43.081 -85.119,-43.208 -84.986,-43.314C-84.829,-43.443 -84.662,-43.551 -84.493,-43.662C-84.391,-43.73 -84.286,-43.791 -84.286,-43.791L-83.999,-43.76C-83.713,-43.73 -78.431,-43.97 -75.666,-44.029C-75.565,-44.034 -75.464,-43.986 -75.358,-43.948C-75.256,-43.911 -75.15,-43.877 -75.065,-43.822C-74.932,-43.743 -74.815,-43.617 -74.815,-43.617L-74.655,-43.347C-74.655,-43.347 -74.589,-43.153 -74.58,-42.952C-74.577,-42.653 -74.652,-42.326 -74.747,-42.017C-74.8,-41.86 -74.864,-41.705 -74.948,-41.567C-75.047,-41.409 -75.169,-41.272 -75.297,-41.135C-75.42,-41.009 -75.556,-40.901 -75.7,-40.792C-75.833,-40.697 -75.963,-40.599 -76.104,-40.525C-76.311,-40.419 -76.523,-40.33 -76.743,-40.25C-76.877,-40.2 -77.015,-40.176 -77.15,-40.149C-77.335,-40.108 -77.518,-40.055 -77.7,-40.05L-84.286,-39.873ZM-88.898,-35.922C-88.898,-35.922 -88.756,-36.153 -88.574,-36.337C-88.46,-36.458 -88.321,-36.558 -88.189,-36.662C-87.941,-36.844 -87.688,-37.032 -87.451,-37.247C-87.338,-37.347 -87.229,-37.448 -87.118,-37.541C-87.007,-37.63 -86.887,-37.719 -86.763,-37.794C-86.405,-38.006 -86.025,-38.128 -85.655,-38.237C-85.601,-38.251 -85.549,-38.269 -85.495,-38.269L-78.816,-38.417L-78.465,-38.213L-78.335,-37.927L-78.341,-37.588C-78.341,-37.588 -78.406,-37.32 -78.538,-37.087C-78.631,-36.93 -78.755,-36.804 -78.878,-36.666C-79.085,-36.445 -79.298,-36.254 -79.514,-36.079C-79.81,-35.848 -80.115,-35.625 -80.417,-35.462C-80.854,-35.209 -81.31,-35.083 -81.762,-34.995C-81.92,-34.968 -82.065,-34.922 -82.22,-34.912L-87.784,-34.676C-87.96,-34.666 -88.127,-34.676 -88.303,-34.691C-88.524,-34.708 -88.738,-34.765 -88.738,-34.765L-89.021,-34.971L-89.074,-35.418L-88.898,-35.922ZM-91.345,-44.89C-91.301,-45.157 -91.199,-45.423 -91.082,-45.689C-90.996,-45.887 -90.903,-46.078 -90.903,-46.078C-90.903,-46.078 -90.812,-46.127 -90.713,-46.17C-89.806,-46.553 -88.91,-46.765 -87.976,-46.529C-87.828,-46.482 -87.679,-46.433 -87.544,-46.371C-87.401,-46.307 -87.266,-46.225 -87.143,-46.14C-87.017,-46.05 -86.908,-45.951 -86.797,-45.84C-86.714,-45.754 -86.641,-45.649 -86.565,-45.546C-86.261,-45.062 -86.127,-44.556 -86.168,-44.037C-86.178,-43.9 -86.206,-43.771 -86.254,-43.646C-86.307,-43.519 -86.374,-43.403 -86.459,-43.295C-86.541,-43.184 -86.641,-43.084 -86.744,-42.992C-86.85,-42.904 -86.964,-42.822 -87.084,-42.751C-87.473,-42.526 -87.886,-42.422 -88.294,-42.337C-88.8,-42.231 -89.318,-42.166 -89.829,-42.275C-90.003,-42.302 -90.165,-42.344 -90.326,-42.401C-90.465,-42.443 -90.604,-42.484 -90.73,-42.549C-90.912,-42.644 -91.057,-42.785 -91.057,-42.785L-91.276,-43.238C-91.276,-43.238 -91.317,-43.514 -91.345,-43.791C-91.385,-44.156 -91.397,-44.526 -91.345,-44.89M-91.122,-39.606C-91.092,-39.677 -91.067,-39.75 -91.03,-39.815C-90.935,-39.975 -90.842,-40.139 -90.728,-40.279C-90.566,-40.481 -90.36,-40.645 -90.36,-40.645C-90.36,-40.645 -90.126,-40.783 -89.87,-40.862C-89.69,-40.921 -89.504,-40.941 -89.312,-40.972C-89.043,-41.016 -88.763,-41.039 -88.488,-41.009C-88.354,-40.992 -88.226,-40.965 -88.102,-40.91C-87.97,-40.855 -87.846,-40.78 -87.738,-40.692C-87.572,-40.555 -87.444,-40.373 -87.444,-40.373L-87.276,-39.991C-87.276,-39.991 -87.241,-39.739 -87.279,-39.503C-87.307,-39.337 -87.374,-39.176 -87.434,-39.012C-87.485,-38.883 -87.537,-38.756 -87.602,-38.633C-87.664,-38.513 -87.729,-38.395 -87.806,-38.288C-87.886,-38.183 -87.97,-38.087 -88.068,-38.001C-88.284,-37.828 -88.524,-37.714 -88.763,-37.63C-89.204,-37.48 -89.636,-37.322 -90.077,-37.291C-90.24,-37.281 -90.398,-37.285 -90.552,-37.32C-90.805,-37.374 -91.036,-37.503 -91.036,-37.503L-91.409,-37.824L-91.542,-38.2C-91.542,-38.2 -91.549,-38.426 -91.502,-38.643C-91.422,-38.967 -91.271,-39.284 -91.122,-39.606M-98.754,-31.855C-98.754,-31.855 -98.604,-31.858 -98.453,-31.864C-97.223,-31.899 -95.988,-31.945 -94.751,-32.08C-93.155,-32.253 -91.557,-32.599 -89.969,-32.809C-88.741,-32.969 -87.51,-33.046 -86.276,-33.102C-85.939,-33.12 -85.588,-33.133 -85.246,-33.069C-85.079,-33.028 -84.915,-32.969 -84.758,-32.892C-84.629,-32.833 -84.514,-32.725 -84.514,-32.725L-84.351,-32.509L-84.384,-32.01C-84.384,-32.01 -84.533,-31.741 -84.732,-31.528C-84.851,-31.403 -84.993,-31.3 -85.144,-31.204C-85.434,-31.031 -85.755,-30.926 -86.066,-30.843C-86.695,-30.67 -87.328,-30.581 -87.967,-30.51C-89.54,-30.356 -91.119,-30.371 -92.696,-30.307C-94.047,-30.257 -95.398,-30.192 -96.752,-30.11C-97.706,-30.054 -98.657,-29.989 -98.657,-29.989L-98.754,-31.855ZM-102.577,-19.08C-103.367,-16.625 -104.555,-14.259 -106.101,-12.129C-107.644,-9.997 -109.546,-8.095 -111.679,-6.548C-113.811,-5.004 -116.173,-3.821 -118.628,-3.022C-121.082,-2.236 -123.623,-1.851 -126.172,-1.851C-128.717,-1.851 -131.262,-2.236 -133.718,-3.022C-136.173,-3.821 -138.536,-5.004 -140.668,-6.548C-142.802,-8.095 -144.703,-9.995 -146.249,-12.129C-147.797,-14.259 -148.986,-16.625 -149.771,-19.08C-150.562,-21.533 -150.954,-24.074 -150.954,-26.62C-150.954,-29.166 -150.562,-31.713 -149.771,-34.165C-148.986,-36.619 -147.797,-38.982 -146.249,-41.114C-144.703,-43.245 -142.802,-45.153 -140.668,-46.691C-138.536,-48.237 -136.173,-49.424 -133.718,-50.215C-131.262,-51.001 -128.717,-51.39 -126.172,-51.39C-123.623,-51.39 -121.082,-51.001 -118.628,-50.215C-116.173,-49.424 -113.811,-48.237 -111.679,-46.691C-109.546,-45.146 -107.644,-43.245 -106.101,-41.114C-104.555,-38.982 -103.367,-36.619 -102.577,-34.165C-101.79,-31.71 -101.398,-29.166 -101.398,-26.62C-101.398,-24.074 -101.79,-21.533 -102.577,-19.08M-153.239,-34.592C-153.292,-34.41 -153.338,-34.234 -153.387,-34.055C-153.456,-33.786 -153.517,-33.519 -153.517,-33.519C-153.517,-33.519 -153.705,-33.636 -153.884,-33.755C-154.418,-34.093 -154.952,-34.422 -155.477,-34.769C-155.84,-35.015 -156.21,-35.253 -156.556,-35.517C-156.948,-35.814 -157.342,-36.104 -157.679,-36.452C-158.126,-36.917 -158.604,-37.36 -158.866,-37.92C-159.356,-38.988 -159.749,-40.108 -159.918,-41.259C-160.036,-42.088 -159.894,-42.952 -159.708,-43.801C-159.542,-44.572 -159.23,-45.313 -158.891,-46.037C-158.61,-46.639 -158.231,-47.197 -157.861,-47.755C-157.61,-48.138 -157.318,-48.489 -157.034,-48.847C-156.61,-49.366 -156.167,-49.868 -155.702,-50.394C-155.093,-51.083 -154.474,-51.763 -153.912,-52.469C-153.649,-52.814 -153.382,-53.158 -153.15,-53.525C-152.922,-53.879 -152.708,-54.247 -152.558,-54.633C-152.385,-55.07 -152.206,-55.496 -152.196,-55.944C-152.175,-56.73 -152.252,-57.524 -152.471,-58.266C-152.61,-58.74 -152.922,-59.153 -153.258,-59.549C-153.579,-59.932 -153.958,-60.259 -154.372,-60.549C-154.859,-60.879 -155.383,-61.17 -155.933,-61.402C-156.516,-61.648 -157.129,-61.826 -157.753,-61.975C-158.324,-62.107 -158.904,-62.171 -159.49,-62.246C-159.925,-62.293 -160.365,-62.311 -160.807,-62.335C-161.467,-62.362 -162.134,-62.372 -162.803,-62.379L-207.607,-63.57L-207.702,-62.857L-192.978,-62.293C-192.435,-62.27 -191.895,-62.246 -191.355,-62.262C-191.09,-62.27 -190.815,-62.283 -190.56,-62.228C-190.38,-62.184 -190.214,-62.082 -190.214,-62.082L-189.963,-61.826L-189.831,-61.487L-189.886,-61.085C-189.886,-61.085 -189.985,-60.879 -190.118,-60.703C-190.26,-60.505 -190.436,-60.333 -190.436,-60.333L-242.68,-61.727C-242.751,-61.731 -242.81,-61.699 -242.878,-61.689C-243.143,-61.645 -243.393,-61.546 -243.646,-61.57C-245.167,-61.712 -246.688,-61.672 -248.002,-62.169C-249.197,-62.616 -250.226,-63.482 -251.192,-64.412C-251.775,-64.97 -252.083,-65.79 -252.528,-66.536C-252.593,-66.642 -252.627,-66.766 -252.67,-66.885C-252.709,-66.994 -252.747,-67.108 -252.778,-67.216C-252.806,-67.294 -252.827,-67.366 -252.827,-67.366L-160.036,-66.597C-159.653,-66.594 -159.276,-66.599 -158.897,-66.597C-158.167,-66.59 -157.441,-66.594 -156.713,-66.565C-155.876,-66.526 -155.04,-66.491 -154.208,-66.396C-153.356,-66.297 -152.505,-66.174 -151.67,-65.98C-150.833,-65.781 -150.01,-65.547 -149.226,-65.213C-148.387,-64.857 -147.569,-64.454 -146.847,-63.915C-146.072,-63.344 -145.382,-62.662 -144.774,-61.91C-144.312,-61.335 -143.966,-60.665 -143.664,-59.979C-143.447,-59.505 -143.293,-59.006 -143.254,-58.497C-143.201,-57.841 -143.257,-57.173 -143.386,-56.524C-143.469,-56.122 -143.676,-55.749 -143.886,-55.373C-144.089,-54.992 -144.345,-54.642 -144.607,-54.295C-144.857,-53.968 -145.132,-53.67 -145.413,-53.363C-145.749,-53.009 -146.103,-52.67 -146.461,-52.336C-146.872,-51.95 -147.301,-51.584 -147.727,-51.212C-148.013,-50.957 -148.312,-50.708 -148.609,-50.461C-149.158,-49.991 -149.719,-49.539 -150.262,-49.061C-150.765,-48.614 -151.277,-48.166 -151.761,-47.687C-152.258,-47.189 -152.758,-46.679 -153.199,-46.13C-153.662,-45.556 -154.109,-44.969 -154.467,-44.327C-154.862,-43.614 -155.189,-42.86 -155.449,-42.088C-155.621,-41.582 -155.705,-41.049 -155.766,-40.512C-155.803,-40.114 -155.818,-39.716 -155.738,-39.33C-155.639,-38.841 -155.451,-38.37 -155.229,-37.917C-155.109,-37.667 -154.905,-37.467 -154.717,-37.247C-154.591,-37.097 -154.442,-36.957 -154.297,-36.82C-153.899,-36.452 -153.511,-36.145 -153.135,-35.834C-153.033,-35.748 -152.946,-35.656 -152.946,-35.656C-152.946,-35.656 -153.094,-35.124 -153.239,-34.592M-154.122,-29.989C-154.122,-29.989 -155.072,-30.054 -156.026,-30.11C-157.38,-30.192 -158.731,-30.257 -160.085,-30.307C-161.652,-30.368 -163.223,-30.362 -164.789,-30.508C-165.435,-30.581 -166.07,-30.67 -166.712,-30.843C-167.027,-30.926 -167.347,-31.031 -167.634,-31.204C-167.783,-31.3 -167.927,-31.403 -168.047,-31.528C-168.245,-31.741 -168.394,-32.01 -168.394,-32.01L-168.43,-32.509L-168.261,-32.725C-168.261,-32.725 -168.153,-32.833 -168.023,-32.892C-167.863,-32.969 -167.701,-33.028 -167.532,-33.069C-167.19,-33.133 -166.838,-33.12 -166.499,-33.102C-165.274,-33.046 -164.052,-32.969 -162.834,-32.813C-161.239,-32.602 -159.631,-32.253 -158.027,-32.08C-156.793,-31.945 -155.559,-31.899 -154.325,-31.864C-154.174,-31.858 -154.026,-31.855 -154.026,-31.855L-154.122,-29.989ZM-154.939,-26.413C-155.658,-26.398 -156.371,-26.37 -157.086,-26.37C-158.768,-26.372 -160.45,-26.372 -162.131,-26.413C-163.524,-26.45 -164.919,-26.518 -166.31,-26.604C-167.44,-26.672 -168.565,-26.778 -169.691,-26.879C-170.115,-26.917 -170.541,-26.969 -170.966,-27.021C-172.515,-27.204 -174.066,-27.416 -175.615,-27.549C-176.643,-27.628 -177.67,-27.675 -178.679,-27.913C-179.196,-28.045 -179.718,-28.215 -180.212,-28.492C-180.403,-28.598 -180.591,-28.709 -180.755,-28.85C-180.971,-29.041 -181.168,-29.255 -181.357,-29.481C-181.458,-29.608 -181.532,-29.751 -181.619,-29.891C-181.758,-30.14 -181.875,-30.368 -181.983,-30.609C-182.014,-30.665 -182.038,-30.727 -182.038,-30.727L-172.721,-30.547C-172.246,-30.55 -171.765,-30.557 -171.287,-30.532C-171.071,-30.516 -170.849,-30.51 -170.632,-30.474C-170.266,-30.414 -169.905,-30.338 -169.544,-30.245C-169.238,-30.162 -168.942,-30.034 -168.634,-29.915C-168.344,-29.805 -168.054,-29.673 -167.764,-29.572C-167.221,-29.387 -166.699,-29.166 -166.153,-29.058C-164.91,-28.81 -163.642,-28.653 -162.38,-28.505C-162.078,-28.468 -161.766,-28.501 -161.461,-28.505C-160.218,-28.546 -158.98,-28.687 -157.74,-28.714C-156.741,-28.724 -155.741,-28.672 -154.742,-28.607C-154.591,-28.601 -154.436,-28.589 -154.436,-28.589L-154.403,-26.419C-154.403,-26.419 -154.674,-26.413 -154.939,-26.413M-183.189,-31.867C-183.412,-31.84 -183.627,-31.781 -183.839,-31.799C-184.463,-31.855 -185.081,-31.918 -185.658,-32.103C-186.07,-32.233 -186.444,-32.459 -186.787,-32.737C-187.147,-33.021 -187.462,-33.364 -187.715,-33.742C-187.946,-34.099 -188.082,-34.516 -188.23,-34.925C-188.285,-35.083 -188.297,-35.254 -188.316,-35.428C-188.335,-35.558 -188.338,-35.691 -188.338,-35.82C-188.341,-35.915 -188.338,-36.012 -188.338,-36.012L-177.365,-36.107C-177.188,-36.107 -177.015,-36.141 -176.839,-36.153C-176.124,-36.212 -175.412,-36.079 -174.723,-35.718C-174.557,-35.625 -174.403,-35.529 -174.245,-35.418C-174.125,-35.332 -174.008,-35.231 -173.896,-35.131C-173.789,-35.029 -173.681,-34.922 -173.576,-34.814C-173.265,-34.475 -172.984,-34.144 -172.691,-33.823C-172.373,-33.462 -172.117,-33.096 -171.959,-32.717C-171.885,-32.533 -171.842,-32.334 -171.842,-32.334L-171.864,-32.007L-172.209,-31.732L-172.758,-31.59C-173.301,-31.445 -179.514,-31.819 -182.961,-31.918C-183.038,-31.918 -183.112,-31.88 -183.189,-31.867M-189.485,-37.424C-190.072,-37.534 -190.664,-37.612 -191.195,-37.828C-191.595,-37.982 -191.944,-38.241 -192.271,-38.531C-192.568,-38.794 -192.826,-39.094 -193.024,-39.436C-193.24,-39.824 -193.361,-40.268 -193.502,-40.709C-193.536,-40.824 -193.536,-40.944 -193.549,-41.068C-193.558,-41.184 -193.558,-41.299 -193.558,-41.419C-193.558,-41.508 -193.555,-41.595 -193.555,-41.595L-180.925,-41.478C-180.819,-41.478 -180.721,-41.439 -180.616,-41.415C-180.458,-41.378 -180.304,-41.351 -180.147,-41.311C-179.78,-41.218 -179.406,-41.126 -179.052,-40.972C-178.771,-40.842 -178.497,-40.716 -178.247,-40.552C-177.957,-40.358 -177.694,-40.124 -177.433,-39.889C-177.312,-39.778 -177.213,-39.648 -177.111,-39.517C-177.019,-39.402 -176.938,-39.281 -176.865,-39.155C-176.79,-39.029 -176.723,-38.893 -176.686,-38.763C-176.618,-38.55 -176.602,-38.33 -176.602,-38.33L-176.655,-37.878L-176.858,-37.497C-176.858,-37.497 -176.989,-37.371 -177.146,-37.291C-177.259,-37.234 -177.383,-37.199 -177.507,-37.168C-177.645,-37.131 -177.775,-37.079 -177.904,-37.082L-189.007,-37.442C-189.167,-37.442 -189.328,-37.401 -189.485,-37.424M-213.046,-44.064C-213.193,-44.064 -213.336,-43.976 -213.487,-43.966C-213.882,-43.943 -214.277,-43.869 -214.641,-43.948C-215.252,-44.088 -215.856,-44.29 -216.375,-44.612C-216.779,-44.862 -217.106,-45.226 -217.371,-45.635C-217.606,-45.992 -217.71,-46.43 -217.855,-46.857C-217.893,-46.953 -217.893,-47.062 -217.902,-47.167C-217.908,-47.268 -217.911,-47.369 -217.911,-47.478C-217.917,-47.549 -217.908,-47.625 -217.908,-47.625L-185.028,-47.444C-184.504,-47.438 -183.969,-47.438 -183.473,-47.237C-183.322,-47.173 -183.18,-47.079 -183.05,-46.984C-182.905,-46.887 -182.785,-46.765 -182.658,-46.649C-182.402,-46.401 -182.159,-46.136 -181.878,-45.902C-181.612,-45.68 -181.332,-45.491 -181.076,-45.282C-180.955,-45.177 -180.835,-45.066 -180.739,-44.936C-180.598,-44.74 -180.514,-44.504 -180.514,-44.504L-180.458,-44.01L-180.61,-43.585L-181.017,-43.337L-181.563,-43.228C-182.109,-43.115 -202.511,-43.819 -213.046,-44.064M-224.365,-49.701C-224.531,-49.705 -224.701,-49.653 -224.865,-49.647C-225.139,-49.641 -225.411,-49.588 -225.663,-49.647C-226.66,-49.874 -227.657,-50.058 -228.515,-50.488C-229.174,-50.826 -229.711,-51.383 -230.227,-51.954C-230.544,-52.309 -230.735,-52.778 -230.976,-53.219C-231.031,-53.312 -231.063,-53.417 -231.099,-53.525C-231.137,-53.619 -231.165,-53.719 -231.195,-53.818C-231.213,-53.882 -231.235,-53.947 -231.235,-53.947L-188.178,-53.769C-187.804,-53.777 -187.418,-53.8 -187.058,-53.722C-186.814,-53.663 -186.592,-53.53 -186.592,-53.53C-186.592,-53.53 -186.406,-53.392 -186.249,-53.223C-186.141,-53.108 -186.052,-52.975 -185.954,-52.845C-185.83,-52.697 -185.709,-52.547 -185.57,-52.401C-185.324,-52.154 -185.068,-51.939 -184.812,-51.725C-184.578,-51.529 -184.33,-51.328 -184.121,-51.082C-183.989,-50.908 -183.886,-50.711 -183.886,-50.711L-183.759,-50.154L-183.886,-49.641L-184.274,-49.308L-184.806,-49.079L-224.365,-49.701ZM-165.632,-60.87C-165.74,-60.549 -165.87,-60.232 -166.042,-59.914C-166.243,-59.571 -166.511,-59.237 -166.805,-58.904C-166.916,-58.784 -167.023,-58.661 -167.138,-58.551C-167.249,-58.44 -167.363,-58.32 -167.486,-58.217C-167.607,-58.118 -167.73,-58.023 -167.863,-57.945C-168.146,-57.767 -168.455,-57.678 -168.763,-57.647C-169.115,-57.61 -169.473,-57.64 -169.828,-57.658L-183.028,-58.163C-183.186,-58.17 -183.337,-58.232 -183.498,-58.266C-184.133,-58.411 -184.759,-58.562 -185.41,-58.824C-185.626,-58.917 -185.839,-59.013 -186.042,-59.124C-186.196,-59.207 -186.351,-59.303 -186.5,-59.402C-186.632,-59.494 -186.761,-59.593 -186.882,-59.698C-187.008,-59.818 -187.138,-59.942 -187.246,-60.08C-187.357,-60.225 -187.456,-60.376 -187.545,-60.537C-187.635,-60.692 -187.708,-60.856 -187.783,-61.018C-187.891,-61.266 -187.986,-61.519 -187.986,-61.519L-188.017,-61.549L-165.472,-61.372C-165.472,-61.372 -165.545,-61.119 -165.632,-60.87M-156.837,-54.452C-156.96,-54.446 -157.083,-54.439 -157.204,-54.452C-157.278,-54.459 -157.352,-54.506 -157.429,-54.513C-157.607,-54.528 -157.784,-54.513 -157.968,-54.514C-158.151,-54.518 -158.327,-54.521 -158.512,-54.528C-159.666,-54.536 -160.82,-54.691 -161.976,-54.808C-162.895,-54.901 -163.824,-54.95 -164.701,-55.598C-164.817,-55.688 -164.925,-55.777 -165.03,-55.878C-165.147,-55.998 -165.262,-56.128 -165.36,-56.264C-165.459,-56.405 -165.542,-56.551 -165.604,-56.708C-165.666,-56.862 -165.709,-57.02 -165.728,-57.187C-165.74,-57.331 -165.728,-57.483 -165.703,-57.634C-165.586,-58.264 -165.2,-58.88 -164.602,-59.494C-164.243,-59.859 -163.908,-60.177 -163.538,-60.411C-163.408,-60.494 -163.266,-60.573 -163.122,-60.63C-162.951,-60.695 -162.775,-60.737 -162.599,-60.771C-162.423,-60.802 -162.236,-60.815 -162.053,-60.821C-161.205,-60.821 -160.372,-60.676 -159.527,-60.573C-158.768,-60.453 -157.997,-60.411 -157.238,-60.256C-156.788,-60.156 -156.327,-59.993 -155.902,-59.706C-155.748,-59.6 -155.606,-59.485 -155.473,-59.358C-155.328,-59.229 -155.205,-59.094 -155.084,-58.951C-154.967,-58.804 -154.855,-58.652 -154.751,-58.491C-154.159,-57.528 -154.029,-56.563 -154.354,-55.663C-154.452,-55.407 -154.609,-55.175 -154.609,-55.175L-154.979,-54.808C-154.979,-54.808 -155.143,-54.705 -155.318,-54.639C-155.442,-54.595 -155.569,-54.565 -155.699,-54.536C-156.078,-54.466 -156.46,-54.452 -156.837,-54.452M-160.566,-47.516C-160.724,-47.463 -160.887,-47.435 -161.051,-47.413C-161.544,-47.369 -162.032,-47.472 -162.516,-47.561C-163.485,-47.737 -164.472,-47.826 -165.403,-48.424C-165.542,-48.515 -165.673,-48.614 -165.79,-48.718C-165.926,-48.847 -166.048,-48.984 -166.16,-49.131C-166.261,-49.28 -166.356,-49.441 -166.431,-49.608C-166.502,-49.771 -166.551,-49.943 -166.585,-50.118C-166.653,-50.55 -166.567,-50.977 -166.429,-51.39C-166.283,-51.806 -166.104,-52.236 -165.839,-52.643C-165.75,-52.766 -165.66,-52.882 -165.555,-52.987C-165.453,-53.097 -165.335,-53.186 -165.219,-53.262C-165.107,-53.336 -164.987,-53.392 -164.861,-53.439C-164.737,-53.488 -164.607,-53.525 -164.475,-53.552C-163.722,-53.715 -162.973,-53.657 -162.229,-53.592L-157.077,-53.262C-157.077,-53.262 -156.929,-53.195 -156.79,-53.113C-156.673,-53.046 -156.552,-52.985 -156.451,-52.899C-156.312,-52.79 -156.216,-52.643 -156.216,-52.643L-156.194,-52.278C-156.194,-52.278 -156.263,-52.069 -156.371,-51.874C-156.445,-51.736 -156.537,-51.612 -156.63,-51.486C-156.788,-51.272 -156.96,-51.072 -157.154,-50.864C-157.589,-50.407 -158.055,-50.027 -158.414,-49.581C-158.75,-49.16 -158.993,-48.724 -159.32,-48.335C-159.435,-48.205 -159.554,-48.085 -159.684,-47.977C-159.813,-47.88 -159.956,-47.782 -160.097,-47.706C-160.246,-47.625 -160.406,-47.561 -160.566,-47.516M-161.686,-35.329L-161.394,-35.669L-160.988,-35.865C-160.988,-35.865 -160.77,-35.912 -160.548,-35.912C-160.4,-35.912 -160.246,-35.888 -160.097,-35.865C-159.805,-35.82 -159.506,-35.767 -159.225,-35.656C-159.095,-35.6 -158.969,-35.533 -158.86,-35.448C-158.755,-35.372 -158.67,-35.274 -158.593,-35.168C-158.506,-35.062 -158.44,-34.941 -158.376,-34.82C-158.274,-34.636 -158.191,-34.438 -158.191,-34.438C-158.191,-34.438 -158.167,-34.274 -158.157,-34.111C-158.142,-33.823 -158.135,-33.53 -158.135,-33.53L-158.317,-33.102L-158.66,-32.95C-158.66,-32.95 -158.87,-32.907 -159.08,-32.926C-159.394,-32.946 -159.703,-33.044 -160.001,-33.195C-160.314,-33.339 -160.622,-33.524 -160.925,-33.728C-161.065,-33.823 -161.214,-33.909 -161.338,-34.028C-161.516,-34.197 -161.656,-34.41 -161.656,-34.41L-161.782,-34.865L-161.686,-35.329ZM-164.019,-37.63C-164.256,-37.714 -164.5,-37.828 -164.709,-38.001C-164.808,-38.087 -164.895,-38.183 -164.975,-38.288C-165.052,-38.395 -165.114,-38.513 -165.175,-38.633C-165.24,-38.756 -165.299,-38.883 -165.346,-39.012C-165.403,-39.176 -165.472,-39.337 -165.496,-39.503C-165.54,-39.739 -165.502,-39.991 -165.502,-39.991L-165.335,-40.373C-165.335,-40.373 -165.203,-40.555 -165.045,-40.692C-164.932,-40.78 -164.808,-40.855 -164.676,-40.91C-164.559,-40.965 -164.422,-40.992 -164.29,-41.009C-164.019,-41.039 -163.734,-41.016 -163.469,-40.972C-163.282,-40.941 -163.093,-40.921 -162.908,-40.862C-162.652,-40.783 -162.423,-40.645 -162.423,-40.645C-162.423,-40.645 -162.213,-40.481 -162.053,-40.279C-161.936,-40.139 -161.847,-39.975 -161.751,-39.815C-161.714,-39.75 -161.686,-39.677 -161.656,-39.606C-161.507,-39.284 -161.359,-38.967 -161.279,-38.643C-161.233,-38.426 -161.239,-38.2 -161.239,-38.2L-161.372,-37.824L-161.739,-37.503C-161.739,-37.503 -161.976,-37.374 -162.229,-37.32C-162.38,-37.285 -162.541,-37.281 -162.701,-37.291C-163.142,-37.322 -163.574,-37.48 -164.019,-37.63M-174.313,-38.213L-173.965,-38.417L-167.289,-38.269C-167.233,-38.269 -167.18,-38.251 -167.125,-38.237C-166.752,-38.128 -166.373,-38.006 -166.011,-37.794C-165.888,-37.719 -165.777,-37.63 -165.66,-37.541C-165.545,-37.448 -165.441,-37.347 -165.33,-37.247C-165.092,-37.032 -164.842,-36.844 -164.589,-36.662C-164.457,-36.558 -164.318,-36.458 -164.204,-36.337C-164.021,-36.153 -163.882,-35.922 -163.882,-35.922L-163.704,-35.418L-163.756,-34.971L-164.043,-34.765C-164.043,-34.765 -164.256,-34.708 -164.478,-34.691C-164.651,-34.676 -164.82,-34.666 -164.994,-34.676L-170.559,-34.912C-170.712,-34.922 -170.864,-34.968 -171.015,-34.995C-171.468,-35.083 -171.925,-35.209 -172.36,-35.462C-172.666,-35.625 -172.972,-35.851 -173.268,-36.079C-173.48,-36.254 -173.693,-36.445 -173.896,-36.666C-174.02,-36.804 -174.146,-36.93 -174.236,-37.087C-174.375,-37.32 -174.439,-37.588 -174.439,-37.588L-174.443,-37.927L-174.313,-38.213ZM-166.613,-44.037C-166.65,-44.556 -166.515,-45.062 -166.209,-45.546C-166.141,-45.649 -166.07,-45.754 -165.984,-45.84C-165.876,-45.951 -165.764,-46.05 -165.635,-46.14C-165.512,-46.225 -165.376,-46.307 -165.237,-46.371C-165.102,-46.433 -164.953,-46.482 -164.805,-46.529C-163.867,-46.765 -162.973,-46.553 -162.069,-46.17C-161.973,-46.127 -161.877,-46.078 -161.877,-46.078C-161.877,-46.078 -161.782,-45.887 -161.692,-45.689C-161.579,-45.423 -161.479,-45.157 -161.433,-44.89C-161.381,-44.526 -161.397,-44.156 -161.433,-43.791C-161.461,-43.514 -161.504,-43.238 -161.504,-43.238L-161.717,-42.785C-161.717,-42.785 -161.872,-42.644 -162.047,-42.549C-162.174,-42.484 -162.312,-42.443 -162.451,-42.401C-162.615,-42.344 -162.775,-42.302 -162.945,-42.275C-163.46,-42.166 -163.979,-42.231 -164.485,-42.337C-164.892,-42.419 -165.301,-42.526 -165.694,-42.751C-165.813,-42.822 -165.929,-42.904 -166.036,-42.992C-166.138,-43.084 -166.237,-43.184 -166.32,-43.295C-166.4,-43.403 -166.474,-43.519 -166.523,-43.646C-166.569,-43.771 -166.601,-43.9 -166.613,-44.037M-178.126,-43.347L-177.96,-43.617C-177.96,-43.617 -177.849,-43.743 -177.716,-43.822C-177.626,-43.877 -177.525,-43.911 -177.423,-43.948C-177.318,-43.986 -177.216,-44.034 -177.111,-44.029C-174.353,-43.97 -169.065,-43.73 -168.778,-43.76L-168.492,-43.791C-168.492,-43.791 -168.387,-43.73 -168.288,-43.662C-168.118,-43.555 -167.952,-43.443 -167.794,-43.314C-167.656,-43.208 -167.532,-43.081 -167.412,-42.952C-167.289,-42.822 -167.171,-42.688 -167.064,-42.549C-166.965,-42.425 -166.869,-42.302 -166.786,-42.166C-166.668,-41.961 -166.585,-41.742 -166.585,-41.742L-166.526,-41.259L-166.65,-40.792L-166.934,-40.449C-166.934,-40.449 -167.116,-40.306 -167.316,-40.2C-167.437,-40.139 -167.566,-40.093 -167.699,-40.043C-167.828,-40.009 -167.955,-39.978 -168.09,-39.947C-168.227,-39.92 -168.356,-39.869 -168.492,-39.873L-175.073,-40.05C-175.266,-40.055 -175.448,-40.112 -175.636,-40.149C-175.775,-40.176 -175.917,-40.203 -176.05,-40.255C-176.263,-40.33 -176.47,-40.419 -176.674,-40.525C-176.815,-40.599 -176.948,-40.697 -177.077,-40.792C-177.22,-40.901 -177.358,-41.009 -177.482,-41.135C-177.605,-41.259 -177.719,-41.388 -177.809,-41.539C-177.904,-41.685 -177.972,-41.852 -178.034,-42.017C-178.092,-42.184 -178.126,-42.365 -178.164,-42.549C-178.186,-42.685 -178.207,-42.82 -178.197,-42.952C-178.191,-43.153 -178.126,-43.347 -178.126,-43.347M-182.451,-52.195C-182.895,-52.319 -183.343,-52.479 -183.759,-52.79C-183.871,-52.874 -183.979,-52.975 -184.081,-53.08C-184.182,-53.182 -184.274,-53.292 -184.371,-53.404C-184.645,-53.738 -184.926,-54.059 -185.191,-54.391C-185.481,-54.772 -185.716,-55.153 -185.805,-55.538C-185.842,-55.73 -185.826,-55.937 -185.826,-55.937C-185.826,-55.937 -185.78,-56.141 -185.682,-56.317C-185.611,-56.445 -185.512,-56.555 -185.417,-56.671C-185.266,-56.848 -185.092,-57.005 -185.092,-57.005C-185.092,-57.005 -176.967,-56.651 -168.847,-56.381C-168.51,-56.373 -168.174,-56.443 -168.174,-56.443C-168.174,-56.443 -167.902,-56.401 -167.653,-56.307C-167.412,-56.224 -167.19,-56.084 -167.19,-56.084L-166.844,-55.708L-166.65,-55.224C-166.65,-55.224 -166.613,-55.054 -166.619,-54.889C-166.638,-54.54 -166.706,-54.186 -166.848,-53.864C-166.977,-53.599 -167.128,-53.339 -167.304,-53.1C-167.409,-52.96 -167.542,-52.842 -167.677,-52.722C-167.816,-52.609 -167.961,-52.503 -168.116,-52.401C-168.261,-52.309 -168.415,-52.226 -168.572,-52.142C-168.727,-52.063 -168.89,-51.991 -169.053,-51.923C-169.297,-51.817 -169.544,-51.721 -169.544,-51.721L-179.302,-51.93C-180.354,-51.926 -181.412,-51.918 -182.451,-52.195M-181.366,-49.594L-181.211,-49.94C-181.211,-49.94 -181.07,-50.113 -180.891,-50.249C-180.703,-50.397 -180.483,-50.507 -180.483,-50.507L-169.605,-50.356C-169.605,-50.356 -169.334,-50.261 -169.065,-50.178C-168.939,-50.137 -168.807,-50.11 -168.686,-50.06C-168.517,-49.989 -168.369,-49.881 -168.369,-49.881C-168.369,-49.881 -168.218,-49.69 -168.112,-49.474C-168.032,-49.322 -167.992,-49.147 -167.927,-48.987C-167.863,-48.861 -167.791,-48.737 -167.721,-48.617C-167.576,-48.376 -167.412,-48.144 -167.316,-47.891C-167.19,-47.549 -167.177,-47.189 -167.254,-46.851C-167.279,-46.729 -167.329,-46.605 -167.387,-46.491C-167.446,-46.379 -167.52,-46.266 -167.607,-46.17C-167.701,-46.055 -167.803,-45.942 -167.927,-45.856C-168.094,-45.72 -168.3,-45.635 -168.3,-45.635C-168.3,-45.635 -168.554,-45.556 -168.81,-45.526C-168.988,-45.506 -169.174,-45.512 -169.35,-45.515L-176.001,-45.693C-176.161,-45.697 -176.321,-45.635 -176.488,-45.612C-176.8,-45.572 -177.118,-45.553 -177.433,-45.605C-177.818,-45.673 -178.191,-45.874 -178.58,-46.086C-178.928,-46.28 -179.293,-46.444 -179.641,-46.608C-179.91,-46.737 -180.178,-46.91 -180.418,-47.113C-180.554,-47.232 -180.685,-47.364 -180.798,-47.505C-180.9,-47.625 -180.983,-47.755 -181.063,-47.888C-181.301,-48.327 -181.406,-48.768 -181.409,-49.194C-181.409,-49.39 -181.366,-49.594 -181.366,-49.594M-233.716,-55.555C-233.876,-55.555 -234.033,-55.474 -234.197,-55.449C-234.58,-55.395 -234.953,-55.275 -235.32,-55.326C-236.714,-55.503 -238.111,-55.616 -239.343,-56.108C-240.284,-56.484 -241.079,-57.211 -241.869,-57.93C-242.304,-58.33 -242.583,-58.887 -242.937,-59.396C-243.004,-59.494 -243.054,-59.614 -243.113,-59.723C-243.165,-59.831 -243.211,-59.935 -243.257,-60.037C-243.292,-60.109 -243.319,-60.185 -243.319,-60.185L-188.529,-58.935C-188.529,-58.935 -188.338,-58.838 -188.162,-58.72C-188.054,-58.645 -187.94,-58.575 -187.85,-58.482C-187.724,-58.359 -187.635,-58.193 -187.635,-58.193C-187.635,-58.193 -187.573,-57.964 -187.563,-57.736C-187.557,-57.56 -187.592,-57.387 -187.604,-57.214C-187.623,-57.036 -187.631,-56.853 -187.65,-56.678C-187.672,-56.503 -187.689,-56.329 -187.736,-56.169C-187.801,-55.944 -187.921,-55.727 -187.921,-55.727C-187.921,-55.727 -188.042,-55.568 -188.181,-55.438C-188.285,-55.346 -188.399,-55.271 -188.51,-55.187C-188.693,-55.064 -188.878,-54.956 -188.878,-54.956L-233.716,-55.555ZM-99.042,-68.253C-99.181,-68.249 -99.322,-68.268 -99.446,-68.234C-101.5,-67.649 -103.599,-67.349 -105.369,-66.445C-106.689,-65.766 -107.714,-64.547 -108.855,-63.43C-109.222,-63.064 -109.456,-62.576 -109.75,-62.129C-109.846,-61.979 -109.941,-61.829 -110.012,-61.669C-110.087,-61.502 -110.132,-61.318 -110.19,-61.139C-110.292,-60.821 -110.404,-60.498 -110.496,-60.177C-110.606,-59.799 -110.722,-59.426 -110.792,-59.043C-110.892,-58.521 -111.039,-58.01 -111.003,-57.504C-110.941,-56.698 -110.78,-55.897 -110.503,-55.142C-110.324,-54.648 -109.978,-54.22 -109.651,-53.777C-109.309,-53.306 -108.914,-52.871 -108.519,-52.429C-108.042,-51.911 -107.541,-51.407 -107.045,-50.903C-106.276,-50.137 -105.501,-49.382 -104.733,-48.614C-104.379,-48.264 -104.029,-47.904 -103.667,-47.57C-103.126,-47.068 -102.564,-46.583 -102.01,-46.099C-101.648,-45.799 -101.275,-45.504 -100.898,-45.177C-100.67,-44.963 -100.424,-44.767 -100.223,-44.529C-99.859,-44.099 -99.449,-43.715 -99.248,-43.228C-98.949,-42.511 -98.805,-41.727 -98.742,-40.941C-98.696,-40.375 -98.73,-39.815 -98.943,-39.33C-99.134,-38.901 -99.588,-38.596 -99.952,-38.2C-100.056,-38.094 -100.184,-38.001 -100.184,-38.001C-100.184,-38.001 -100.301,-38.251 -100.424,-38.507C-100.51,-38.67 -100.571,-38.852 -100.677,-39.006C-101.799,-40.657 -102.803,-42.385 -104.073,-43.884C-105.305,-45.331 -106.681,-46.663 -108.177,-47.839C-109.969,-49.254 -111.759,-50.67 -113.798,-51.537C-116.886,-52.842 -120.029,-54.019 -123.26,-54.223C-127.409,-54.489 -131.607,-54.237 -135.436,-52.926C-139.215,-51.63 -142.597,-49.185 -145.771,-46.509C-147.98,-44.649 -149.494,-42.005 -151.305,-39.555C-151.681,-39.04 -151.888,-38.414 -152.175,-37.831C-152.255,-37.661 -152.335,-37.49 -152.404,-37.32C-152.447,-37.204 -152.465,-37.082 -152.465,-37.082C-152.465,-37.082 -152.631,-37.254 -152.798,-37.429C-152.91,-37.544 -153.017,-37.661 -153.12,-37.784C-153.242,-37.933 -153.384,-38.066 -153.478,-38.233C-153.708,-38.633 -153.98,-39.006 -154.066,-39.429C-154.184,-40.053 -154.19,-40.702 -154.079,-41.333C-153.999,-41.805 -153.751,-42.245 -153.495,-42.685C-153.242,-43.118 -152.922,-43.526 -152.592,-43.911C-152.03,-44.57 -151.431,-45.195 -150.824,-45.812C-150.337,-46.307 -149.815,-46.762 -149.303,-47.232C-148.796,-47.696 -148.276,-48.148 -147.757,-48.614C-147.328,-48.998 -146.894,-49.375 -146.474,-49.771C-145.9,-50.304 -145.33,-50.834 -144.778,-51.39C-144.339,-51.837 -143.908,-52.284 -143.515,-52.772C-143.13,-53.247 -142.747,-53.726 -142.46,-54.262C-142.121,-54.894 -141.763,-55.514 -141.689,-56.184C-141.556,-57.455 -141.523,-58.736 -141.855,-59.917C-142.189,-61.109 -142.846,-62.2 -143.657,-63.164C-144.45,-64.112 -145.465,-64.871 -146.55,-65.51C-147.643,-66.157 -148.868,-66.584 -150.102,-66.981C-151.012,-67.271 -151.966,-67.398 -152.922,-67.551C-153.693,-67.679 -154.483,-67.744 -155.26,-67.833C-155.489,-67.858 -155.716,-67.877 -155.942,-67.902C-156.065,-67.909 -156.188,-67.932 -156.312,-67.936L-254.512,-68.944C-254.512,-68.944 -254.524,-68.826 -254.53,-68.708C-254.539,-68.555 -254.545,-68.401 -254.539,-68.243C-254.524,-67.916 -254.568,-67.587 -254.471,-67.287C-254.042,-66.047 -253.756,-64.769 -253.027,-63.822C-252.201,-62.751 -251.069,-61.907 -249.835,-61.286C-248.845,-60.787 -247.635,-60.746 -246.444,-60.512C-246.191,-60.457 -245.929,-60.512 -245.929,-60.512C-245.929,-60.512 -245.834,-60.256 -245.726,-59.999C-245.655,-59.831 -245.608,-59.645 -245.503,-59.504C-244.507,-58.224 -243.733,-56.807 -242.557,-55.913C-241.231,-54.913 -239.635,-54.265 -237.991,-53.82C-236.813,-53.503 -235.508,-53.688 -234.194,-53.67C-233.938,-53.66 -233.685,-53.738 -233.685,-53.738C-233.685,-53.738 -233.669,-53.473 -233.626,-53.206C-233.596,-53.022 -233.596,-52.837 -233.518,-52.677C-233.13,-51.852 -232.855,-50.988 -232.296,-50.369C-231.655,-49.647 -230.841,-49.066 -229.939,-48.691C-229.106,-48.338 -228.128,-48.332 -227.157,-48.2C-226.984,-48.181 -226.798,-48.264 -226.624,-48.246L-220.204,-47.715C-220.204,-47.715 -220.231,-47.583 -220.243,-47.453C-220.259,-47.29 -220.29,-47.13 -220.284,-46.969C-220.265,-46.556 -220.299,-46.143 -220.164,-45.784C-219.87,-45.004 -219.568,-44.218 -219.037,-43.646C-218.426,-42.989 -217.661,-42.474 -216.816,-42.191C-215.958,-41.909 -214.971,-42.012 -213.974,-41.982C-213.823,-41.968 -213.672,-42.036 -213.518,-42.081C-213.292,-42.139 -213.074,-42.218 -213.074,-42.218L-196.032,-41.508C-196.032,-41.508 -196.06,-41.395 -196.075,-41.286C-196.094,-41.139 -196.119,-40.996 -196.128,-40.849C-196.137,-40.616 -196.174,-40.388 -196.116,-40.173C-195.921,-39.481 -195.773,-38.78 -195.385,-38.251C-194.946,-37.636 -194.35,-37.131 -193.678,-36.794C-193.024,-36.47 -192.241,-36.428 -191.463,-36.301C-191.192,-36.258 -190.914,-36.337 -190.914,-36.337C-190.914,-36.337 -190.938,-36.067 -190.938,-35.786C-190.938,-35.598 -190.96,-35.404 -190.898,-35.237C-190.642,-34.452 -190.47,-33.656 -190.025,-33.059C-189.52,-32.38 -188.856,-31.819 -188.097,-31.46C-187.338,-31.096 -186.419,-31.058 -185.496,-30.902C-185.266,-30.858 -185.028,-30.933 -185.028,-30.933C-185.028,-30.933 -184.904,-30.704 -184.769,-30.483C-184.67,-30.331 -184.602,-30.162 -184.476,-30.048C-183.38,-29.078 -182.344,-28.061 -181.168,-27.286C-180.62,-26.925 -179.922,-26.826 -179.256,-26.608C-179.086,-26.552 -178.904,-26.532 -178.728,-26.502C-178.549,-26.47 -178.367,-26.453 -178.191,-26.419C-177.037,-26.188 -175.883,-25.962 -174.723,-25.75C-174.326,-25.679 -173.937,-25.586 -173.539,-25.546C-170.75,-25.235 -167.97,-24.859 -165.179,-24.695C-162.723,-24.556 -160.261,-24.62 -157.793,-24.645C-156.146,-24.658 -154.501,-24.787 -154.501,-24.787C-154.501,-24.787 -154.489,-24.62 -154.471,-24.46C-154.452,-24.278 -154.455,-24.091 -154.412,-23.91C-153.708,-21.012 -153.461,-18.034 -152.295,-15.458C-150.904,-12.382 -149.31,-9.396 -146.881,-7.286C-143.204,-4.094 -139.063,-1.391 -134.522,-0.008C-129.936,1.392 -125.036,1.728 -120.399,0.767C-115.642,-0.216 -111.153,-2.511 -107.384,-5.63C-104.277,-8.196 -102.247,-12.018 -100.286,-15.865C-98.99,-18.402 -98.653,-21.394 -97.854,-24.296C-97.78,-24.562 -97.802,-24.849 -97.802,-24.849C-97.802,-24.849 -93.591,-25.204 -89.373,-25.382C-87.035,-25.482 -84.69,-25.45 -82.342,-25.503C-82.164,-25.507 -81.982,-25.525 -81.796,-25.539C-81.608,-25.556 -81.427,-25.556 -81.248,-25.583C-79.069,-25.948 -76.888,-26.269 -74.73,-26.709C-73.937,-26.873 -73.164,-27.159 -72.381,-27.399C-72.178,-27.456 -71.97,-27.512 -71.78,-27.589C-71.634,-27.641 -71.49,-27.69 -71.371,-27.785C-71.052,-28.036 -70.721,-28.259 -70.502,-28.573C-70.15,-29.082 -69.91,-29.68 -69.669,-30.273C-69.567,-30.526 -69.599,-30.819 -69.599,-30.819C-69.599,-30.819 -69.354,-30.791 -69.117,-30.785C-68.954,-30.782 -68.787,-30.751 -68.636,-30.791C-67.621,-31.034 -66.594,-31.145 -65.755,-31.6C-64.93,-32.044 -64.23,-32.717 -63.682,-33.485C-63.228,-34.126 -63.055,-34.968 -62.779,-35.786C-62.694,-36.035 -62.722,-36.31 -62.722,-36.31C-62.722,-36.31 -62.479,-36.384 -62.237,-36.477C-62.073,-36.538 -61.898,-36.571 -61.763,-36.677C-60.88,-37.33 -59.927,-37.871 -59.316,-38.667C-58.776,-39.37 -58.572,-40.33 -58.233,-41.259C-58.146,-41.484 -58.177,-41.742 -58.177,-41.742L-38.464,-42.518C-38.285,-42.523 -38.113,-42.538 -37.939,-42.562C-37.779,-42.579 -37.616,-42.576 -37.474,-42.634C-36.422,-43.064 -35.334,-43.337 -34.51,-43.961C-33.726,-44.553 -33.143,-45.399 -32.63,-46.287C-32.165,-47.086 -32.104,-48.099 -32.104,-48.099L-25.55,-48.126C-25.387,-48.129 -25.232,-48.212 -25.066,-48.264C-24.902,-48.32 -24.729,-48.338 -24.594,-48.424C-23.332,-49.239 -22.008,-49.908 -21.003,-50.888C-20.333,-51.544 -19.991,-52.51 -19.494,-53.401C-19.362,-53.64 -19.315,-53.919 -19.315,-53.919C-19.315,-53.919 -19.047,-53.855 -18.769,-53.806C-18.588,-53.769 -18.405,-53.7 -18.224,-53.719C-16.319,-53.916 -14.416,-53.79 -12.82,-54.414C-11.301,-55.008 -10.02,-56.216 -8.752,-57.425C-8.188,-57.971 -7.909,-58.775 -7.496,-59.515C-7.367,-59.743 -7.296,-60.01 -7.296,-60.01C-7.296,-60.01 -7.021,-60.024 -6.743,-60.053C-6.559,-60.07 -6.364,-60.062 -6.191,-60.126C-4.6,-60.703 -2.949,-61.043 -1.645,-61.901C-0.395,-62.724 0.624,-63.887 1.472,-65.161C2.092,-66.093 2.308,-67.284 2.702,-68.422C2.792,-68.674 2.782,-68.944 2.782,-68.944C-31.161,-68.715 -65.1,-68.487 -99.042,-68.253" style="fill:rgb(0,83,155);fill-rule:nonzero;"/>
        </g>
        <g transform="matrix(1,0,0,1,411.17,351.955)">
            <path d="M0,0.864C0.04,0.991 0.105,1.111 0.179,1.218C0.256,1.329 0.354,1.428 0.462,1.514C0.62,1.643 0.817,1.729 0.817,1.729C0.817,1.729 0.984,1.551 1.101,1.341C1.338,0.91 1.397,0.431 1.259,-0.049C1.212,-0.203 1.145,-0.353 1.058,-0.49C0.934,-0.695 0.749,-0.865 0.749,-0.865L0.718,-0.837C0.691,-0.808 0.484,-0.695 0.388,-0.599C0.287,-0.507 0.2,-0.405 0.129,-0.288C-0.08,0.067 -0.14,0.463 0,0.864" style="fill:rgb(0,83,155);fill-rule:nonzero;"/>
        </g>
        <g transform="matrix(1,0,0,1,325.558,240.549)">
            <path d="M0,30.91L-8.601,30.91C-8.601,30.91 -8.623,31.19 -8.75,31.429C-8.866,31.647 -9.021,31.848 -9.2,32.02C-9.354,32.169 -9.529,32.286 -9.721,32.37C-10.03,32.505 -10.363,32.589 -10.695,32.675C-10.797,32.699 -10.902,32.699 -11.011,32.705C-11.162,32.709 -11.313,32.698 -11.47,32.698L-13.812,32.698L-13.812,17.432L-11.655,17.432C-11.504,17.432 -11.353,17.412 -11.208,17.439C-10.767,17.518 -10.319,17.579 -9.906,17.732C-9.588,17.849 -9.295,18.03 -9.023,18.231C-8.83,18.368 -8.669,18.549 -8.521,18.737C-8.4,18.888 -8.311,19.057 -8.234,19.236C-8.172,19.372 -8.142,19.518 -8.11,19.662C-8.079,19.788 -8.079,19.918 -8.079,19.918L0.207,19.918L0.207,8.242L-8.2,8.242C-8.2,8.242 -8.209,8.467 -8.287,8.664C-8.36,8.862 -8.45,9.052 -8.573,9.209C-8.728,9.413 -8.91,9.597 -9.12,9.747C-9.357,9.916 -9.613,10.062 -9.894,10.161C-10.226,10.277 -10.578,10.345 -10.933,10.392C-11.174,10.427 -11.424,10.392 -11.67,10.392L-13.713,10.392L-13.713,-2.131L-11.871,-2.131C-11.705,-2.131 -11.532,-2.139 -11.368,-2.114C-11.035,-2.053 -10.701,-1.991 -10.387,-1.877C-10.144,-1.788 -9.912,-1.652 -9.702,-1.498C-9.521,-1.368 -9.369,-1.211 -9.233,-1.042C-9.125,-0.905 -9.045,-0.749 -8.974,-0.588C-8.924,-0.474 -8.903,-0.353 -8.879,-0.23C-8.851,-0.128 -8.851,-0.014 -8.851,-0.014L0.339,-0.014L0.339,-11.104L-29.687,-11.104L-29.687,-3.578C-29.687,-3.578 -29.555,-3.589 -29.428,-3.584C-29.119,-3.555 -28.805,-3.521 -28.506,-3.401C-28.339,-3.33 -28.173,-3.256 -28.024,-3.158C-27.808,-3.002 -27.624,-2.797 -27.624,-2.797L-27.386,-2.395L-27.29,-1.942C-27.197,-1.483 -27.29,20.327 -27.29,31.774C-27.29,31.9 -27.274,32.036 -27.303,32.157C-27.358,32.412 -27.422,32.671 -27.54,32.893C-27.646,33.091 -27.796,33.262 -27.959,33.418C-28.11,33.566 -28.287,33.689 -28.472,33.794C-28.666,33.91 -28.876,34.002 -29.089,34.081C-29.243,34.14 -29.407,34.174 -29.575,34.211C-29.708,34.248 -29.851,34.26 -29.851,34.26L-29.851,42.014L0,42.004L0,30.91Z" style="fill:rgb(0,83,155);fill-rule:nonzero;"/>
        </g>
        <g transform="matrix(1,0,0,1,275.828,273.517)">
            <path d="M0,-34.915C0,-34.915 0.361,-34.913 0.721,-34.91C1.107,-34.906 1.5,-34.925 1.885,-34.906C2.236,-34.884 2.591,-34.851 2.934,-34.776C3.254,-34.709 3.566,-34.604 3.868,-34.475C4.128,-34.372 4.372,-34.228 4.609,-34.085C4.766,-33.99 4.908,-33.88 5.05,-33.759C5.195,-33.629 5.337,-33.488 5.463,-33.336C5.596,-33.176 5.716,-33.013 5.812,-32.833C5.936,-32.59 6.087,-32.364 6.087,-32.121L6.087,-21.011C6.087,-20.768 6.083,-20.506 6.007,-20.253C5.92,-20.012 5.833,-19.765 5.713,-19.54C5.64,-19.407 5.525,-19.297 5.423,-19.178C5.276,-19.003 5.14,-18.825 4.97,-18.673C4.782,-18.506 4.572,-18.361 4.353,-18.239C4.128,-18.103 3.899,-17.986 3.65,-17.892C3.313,-17.769 2.977,-17.659 2.623,-17.602C2.246,-17.543 1.857,-17.56 1.458,-17.55C1.088,-17.541 0.715,-17.541 0.343,-17.541C0.167,-17.541 -0.006,-17.55 -0.006,-17.55L0,-34.915ZM2.054,1.629C2.054,1.629 1.811,1.602 1.576,1.54C1.422,1.5 1.271,1.459 1.126,1.391C0.879,1.268 0.632,1.138 0.417,0.975C0.25,0.851 0.095,0.707 -0.009,0.534C-0.154,0.318 -0.247,0.075 -0.331,-0.176C-0.367,-0.27 -0.367,-0.375 -0.361,-0.48C-0.361,-0.604 -0.324,-0.728 -0.324,-0.855L-0.324,-9.273L6.781,-9.273C6.953,-9.273 7.132,-9.243 7.306,-9.24C7.842,-9.233 8.373,-9.186 8.894,-9.251C10.091,-9.412 11.285,-9.595 12.435,-9.917C13.194,-10.131 13.917,-10.476 14.62,-10.862C15.234,-11.192 15.811,-11.599 16.351,-12.046C16.808,-12.429 17.224,-12.858 17.584,-13.327C17.948,-13.802 18.284,-14.292 18.504,-14.832C18.779,-15.501 18.899,-16.232 19.065,-16.958C19.093,-17.082 19.081,-17.208 19.084,-17.337C19.09,-17.506 19.075,-17.676 19.075,-17.85L19.075,-34.419C19.075,-34.604 19.105,-34.789 19.099,-34.977C19.068,-35.425 19.071,-35.87 18.952,-36.289C18.745,-37.054 18.482,-37.803 18.118,-38.5C17.844,-39.038 17.458,-39.516 17.051,-39.973C16.48,-40.595 15.888,-41.203 15.219,-41.712C14.487,-42.264 13.741,-42.798 12.908,-43.106C11.776,-43.517 10.535,-43.668 9.311,-43.859C8.69,-43.952 8.055,-43.927 7.423,-43.952C7.241,-43.961 7.062,-43.961 6.879,-43.961L-16.15,-43.961L-16.15,-36.471C-16.15,-36.471 -15.774,-36.505 -15.404,-36.486C-15.16,-36.476 -14.913,-36.471 -14.684,-36.406C-14.45,-36.335 -14.231,-36.217 -14.021,-36.092C-13.888,-36.005 -13.771,-35.897 -13.667,-35.777C-13.565,-35.656 -13.472,-35.526 -13.417,-35.378C-13.373,-35.255 -13.373,-35.11 -13.364,-34.965C-13.355,-34.83 -13.364,-34.687 -13.364,-34.545L-13.364,-1.082C-13.361,-0.802 -13.39,-0.509 -13.506,-0.246C-13.61,-0.033 -13.726,0.179 -13.879,0.359C-14.046,0.558 -14.24,0.738 -14.459,0.88C-14.716,1.052 -15.002,1.189 -15.296,1.298C-15.502,1.386 -15.725,1.425 -15.946,1.475C-16.073,1.506 -16.209,1.512 -16.338,1.53C-16.446,1.54 -16.551,1.543 -16.551,1.543L-16.551,9.046L2.054,9.04L2.054,1.629Z" style="fill:rgb(0,83,155);fill-rule:nonzero;"/>
        </g>
        <g transform="matrix(1,0,0,1,334.876,271.957)">
            <path d="M0,-31.796C0.08,-31.957 0.173,-32.117 0.284,-32.252C0.454,-32.465 0.639,-32.671 0.849,-32.838C1.107,-33.045 1.386,-33.233 1.687,-33.366C2.117,-33.551 2.561,-33.684 3.021,-33.776C3.342,-33.844 3.674,-33.844 4.011,-33.853C4.166,-33.859 4.325,-33.841 4.48,-33.831C4.604,-33.817 4.72,-33.803 4.72,-33.803L4.72,0.074C4.72,0.245 4.745,0.418 4.717,0.582C4.684,0.814 4.64,1.039 4.551,1.239C4.458,1.439 4.325,1.624 4.174,1.788C4.017,1.958 3.845,2.105 3.653,2.228C3.418,2.374 3.163,2.494 2.903,2.59C2.688,2.671 2.462,2.713 2.234,2.76C2.11,2.785 1.981,2.794 1.854,2.806C1.737,2.815 1.617,2.815 1.617,2.815L1.617,10.59L20.306,10.67L20.306,3.063C20.306,3.063 19.822,3.087 19.359,2.994C19.066,2.933 18.785,2.825 18.517,2.695C18.316,2.593 18.14,2.457 17.974,2.309C17.841,2.19 17.733,2.054 17.64,1.903C17.508,1.678 17.433,1.418 17.433,1.418L17.402,0.928C17.402,0.928 17.523,0.696 17.526,0.453C17.585,-16.673 17.526,-33.814 17.526,-33.814C17.526,-33.814 17.656,-33.844 17.786,-33.857C17.995,-33.88 18.199,-33.93 18.402,-33.908C18.976,-33.853 19.55,-33.787 20.093,-33.636C20.42,-33.538 20.717,-33.362 21.003,-33.162C21.253,-32.981 21.469,-32.754 21.667,-32.517C21.787,-32.373 21.867,-32.212 21.944,-32.042C22.003,-31.912 22.04,-31.773 22.077,-31.635C22.108,-31.509 22.114,-31.376 22.114,-31.376L29.262,-31.376L29.262,-42.466L-6.951,-42.466L-6.951,-31.385L-0.151,-31.385C-0.151,-31.385 -0.091,-31.601 0,-31.796" style="fill:rgb(0,83,155);fill-rule:nonzero;"/>
        </g>
        <g transform="matrix(1,0,0,1,518.179,237.705)">
            <path d="M0,37.377C0,37.377 -0.257,37.396 -0.493,37.343C-0.763,37.288 -1.032,37.21 -1.28,37.096C-1.447,37.019 -1.599,36.896 -1.743,36.772C-1.843,36.687 -1.925,36.578 -1.993,36.466C-2.095,36.302 -2.153,36.106 -2.153,36.106L-2.187,35.738C-2.187,35.738 -2.113,35.565 -2.113,35.379C-2.07,27.193 -2.113,19.01 -2.113,19.01L10.507,45.116L23.141,45.116L23.141,2.362C23.141,2.1 23.115,1.828 23.203,1.578C23.313,1.286 23.415,0.993 23.582,0.743C23.739,0.499 23.943,0.286 24.165,0.1C24.418,-0.102 24.698,-0.273 24.982,-0.423C25.183,-0.532 25.396,-0.606 25.611,-0.683C25.763,-0.732 25.917,-0.769 26.068,-0.807C26.216,-0.84 26.361,-0.865 26.361,-0.865L26.361,-7.803L8.092,-7.803L8.092,-1.01C8.092,-1.01 8.274,-1.031 8.454,-1.01C8.699,-0.991 8.95,-0.973 9.188,-0.902C9.48,-0.816 9.765,-0.705 10.025,-0.553C10.233,-0.43 10.412,-0.266 10.569,-0.091C10.702,0.055 10.791,0.225 10.881,0.403C10.93,0.502 10.961,0.613 10.98,0.724C10.995,0.869 10.995,1.014 10.995,1.162L10.995,15.769L-0.763,-7.704L-17.158,-7.704L-17.158,0.024C-17.158,0.024 -16.919,0.014 -16.693,0.069C-16.478,0.126 -16.259,0.19 -16.066,0.298C-15.891,0.393 -15.74,0.52 -15.607,0.669C-15.508,0.786 -15.444,0.933 -15.382,1.081C-15.313,1.254 -15.349,1.427 -15.351,1.587C-15.357,12.848 -15.342,34.835 -15.351,35.379L-15.369,35.915C-15.369,35.915 -15.382,36.007 -15.422,36.084C-15.512,36.27 -15.586,36.455 -15.7,36.606C-15.813,36.753 -15.958,36.875 -16.105,36.985C-16.268,37.103 -16.44,37.197 -16.623,37.278C-16.798,37.356 -16.986,37.407 -17.175,37.456C-17.316,37.49 -17.461,37.506 -17.606,37.526C-17.729,37.537 -17.854,37.537 -17.854,37.537L-17.854,45.18L0,45.116L0,37.377Z" style="fill:rgb(0,83,155);fill-rule:nonzero;"/>
        </g>
        <g transform="matrix(1,0,0,1,495.537,237.605)">
            <path d="M0,37.586C0,37.586 -0.296,37.506 -0.549,37.353C-0.768,37.22 -0.972,37.076 -1.154,36.896C-1.279,36.759 -1.381,36.598 -1.475,36.427C-1.536,36.325 -1.572,36.213 -1.595,36.1C-1.622,35.967 -1.632,35.834 -1.632,35.701C-1.649,24.05 -1.739,2.153 -1.632,1.687L-1.533,1.224C-1.533,1.224 -1.439,0.996 -1.289,0.811C-1.178,0.669 -1.045,0.545 -0.897,0.438C-0.749,0.329 -0.588,0.25 -0.419,0.166C-0.164,0.052 0.099,-0.016 0.354,-0.056C0.56,-0.084 0.759,-0.091 0.759,-0.091L0.759,-7.629L-16.989,-7.629L-16.989,-0.099C-16.989,-0.099 -16.767,-0.149 -16.555,-0.124C-16.289,-0.096 -16.029,-0.056 -15.782,0.033C-15.598,0.092 -15.427,0.203 -15.273,0.317C-15.165,0.391 -15.073,0.489 -14.993,0.591C-14.912,0.697 -14.848,0.811 -14.802,0.932C-14.758,1.039 -14.745,1.162 -14.736,1.282C-14.724,1.4 -14.74,1.518 -14.74,1.638L-14.74,35.285C-14.74,35.468 -14.728,35.653 -14.74,35.837C-14.745,35.919 -14.765,35.998 -14.792,36.069C-14.866,36.254 -14.931,36.439 -15.039,36.598C-15.141,36.748 -15.273,36.884 -15.418,37.001C-15.578,37.131 -15.755,37.236 -15.939,37.335C-16.094,37.411 -16.257,37.466 -16.418,37.523C-16.548,37.559 -16.684,37.589 -16.818,37.619C-16.942,37.64 -17.068,37.653 -17.068,37.653L-17.068,45.215L0,45.177L0,37.586Z" style="fill:rgb(0,83,155);fill-rule:nonzero;"/>
        </g>
        <g transform="matrix(1,0,0,1,466.644,241.113)">
            <path d="M0,30.572C0,30.572 -0.021,30.854 -0.147,31.091C-0.266,31.31 -0.42,31.51 -0.599,31.684C-0.752,31.831 -0.929,31.948 -1.12,32.032C-1.428,32.169 -1.762,32.251 -2.094,32.337C-2.196,32.361 -2.302,32.361 -2.41,32.368C-2.561,32.371 -2.711,32.36 -2.869,32.36L-5.21,32.36L-5.98,32.308C-5.984,32.27 -5.99,32.233 -5.99,32.194C-6.009,20.543 -6.098,-1.354 -5.99,-1.821L-5.892,-2.283C-5.892,-2.283 -5.799,-2.511 -5.647,-2.696C-5.537,-2.838 -5.403,-2.962 -5.257,-3.07C-5.107,-3.178 -4.947,-3.258 -4.777,-3.342C-4.522,-3.455 -4.26,-3.523 -4.004,-3.563C-3.8,-3.592 -3.6,-3.598 -3.6,-3.598L-3.6,-11.136L-21.348,-11.136L-21.348,-3.606C-21.348,-3.606 -21.125,-3.657 -20.913,-3.631C-20.647,-3.603 -20.388,-3.563 -20.141,-3.474C-19.956,-3.415 -19.786,-3.304 -19.632,-3.19C-19.523,-3.116 -19.432,-3.018 -19.352,-2.916C-19.271,-2.81 -19.206,-2.696 -19.16,-2.575C-19.117,-2.469 -19.104,-2.345 -19.096,-2.225C-19.083,-2.107 -19.099,-1.99 -19.099,-1.869L-19.099,31.778C-19.099,31.961 -19.086,32.146 -19.099,32.33C-19.104,32.411 -19.123,32.49 -19.151,32.562C-19.225,32.747 -19.289,32.932 -19.397,33.091C-19.499,33.241 -19.632,33.377 -19.776,33.494C-19.937,33.624 -20.113,33.729 -20.298,33.828C-20.453,33.904 -20.615,33.959 -20.776,34.016C-20.906,34.051 -21.042,34.082 -21.177,34.112C-21.301,34.133 -21.428,34.146 -21.428,34.146L-21.428,41.708L-20.783,41.707L-4.806,41.671L8.602,41.666L8.602,30.572L0,30.572Z" style="fill:rgb(0,83,155);fill-rule:nonzero;"/>
        </g>
        <g transform="matrix(1,0,0,1,420.835,271.085)">
            <path d="M0,-29.098C0,-29.264 0.071,-29.431 0.133,-29.594C0.191,-29.749 0.259,-29.9 0.352,-30.027C0.497,-30.243 0.65,-30.446 0.838,-30.628C1.021,-30.807 1.218,-30.962 1.441,-31.091C1.731,-31.263 2.033,-31.427 2.35,-31.526C2.823,-31.662 3.3,-31.77 3.786,-31.795C4.319,-31.829 4.856,-31.795 5.376,-31.693C5.776,-31.612 6.158,-31.436 6.534,-31.252C6.781,-31.131 7.006,-30.974 7.222,-30.798C7.418,-30.638 7.598,-30.446 7.753,-30.248C7.894,-30.06 8.011,-29.85 8.104,-29.638C8.177,-29.467 8.25,-29.298 8.25,-29.119L8.25,0.327C8.25,0.499 8.191,0.673 8.135,0.842C8.083,1.016 8.011,1.181 7.914,1.334C7.774,1.552 7.614,1.765 7.425,1.949C7.253,2.13 7.061,2.286 6.852,2.416C6.581,2.585 6.293,2.747 5.991,2.844C5.543,2.995 5.09,3.137 4.636,3.15C3.97,3.177 3.303,3.1 2.646,2.98C2.327,2.915 2.021,2.768 1.725,2.614C1.453,2.474 1.207,2.295 0.969,2.103C0.821,1.986 0.681,1.844 0.571,1.693C0.407,1.468 0.256,1.235 0.148,0.98C0.059,0.778 -0.015,0.559 -0.015,0.337L0,-29.098ZM-13.158,4.11C-12.957,4.769 -12.767,5.43 -12.455,6.028C-12.121,6.663 -11.689,7.247 -11.221,7.793C-10.807,8.264 -10.335,8.688 -9.826,9.07C-9.23,9.514 -8.607,9.921 -7.94,10.248C-7.145,10.64 -6.334,11.002 -5.479,11.22C-4.288,11.525 -3.04,11.645 -1.802,11.835C-1.666,11.856 -1.524,11.838 -1.386,11.853C-1.209,11.868 -1.033,11.92 -0.861,11.92L8.151,11.92C8.324,11.92 8.496,11.875 8.671,11.865C8.845,11.853 9.021,11.883 9.193,11.856C10.474,11.674 11.766,11.569 12.994,11.257C13.864,11.039 14.691,10.668 15.502,10.261C16.163,9.927 16.782,9.514 17.369,9.057C17.872,8.667 18.277,8.145 18.751,7.718C18.872,7.616 19.06,7.595 19.136,7.475C19.417,7.049 19.63,6.561 19.831,6.066C20.077,5.46 20.269,4.84 20.458,4.215C20.506,4.048 20.51,3.875 20.535,3.701C20.549,3.523 20.562,3.344 20.562,3.165L20.562,-32.461C20.562,-32.631 20.572,-32.806 20.549,-32.973C20.479,-33.454 20.444,-33.945 20.287,-34.389C20.046,-35.073 19.747,-35.734 19.377,-36.348C19.078,-36.839 18.69,-37.27 18.286,-37.683C17.854,-38.134 17.372,-38.541 16.875,-38.924C16.415,-39.276 15.947,-39.62 15.437,-39.884C14.761,-40.229 14.071,-40.537 13.342,-40.747C12.782,-40.907 12.183,-40.929 11.582,-40.994C11.412,-41.012 11.238,-41 11.069,-41L-2.156,-41C-2.4,-41 -2.644,-41.018 -2.879,-40.975C-3.627,-40.843 -4.375,-40.709 -5.097,-40.475C-6,-40.185 -6.895,-39.837 -7.743,-39.408C-8.469,-39.035 -9.153,-38.578 -9.795,-38.078C-10.344,-37.65 -10.847,-37.165 -11.295,-36.634C-11.736,-36.117 -12.127,-35.552 -12.439,-34.95C-12.75,-34.339 -12.935,-33.66 -13.158,-32.997C-13.208,-32.852 -13.223,-32.701 -13.247,-32.55C-13.271,-32.384 -13.31,-32.214 -13.31,-32.044L-13.31,2.878C-13.31,3.001 -13.303,3.124 -13.288,3.249C-13.25,3.539 -13.235,3.834 -13.158,4.11" style="fill:rgb(0,83,155);fill-rule:nonzero;"/>
        </g>
        <g transform="matrix(1,0,0,1,561.817,250.447)">
            <path d="M0,11.878L2.846,-2.538L5.564,11.878L0,11.878ZM12.65,-11.037C12.663,-11.3 12.682,-11.564 12.763,-11.803C12.823,-11.994 12.941,-12.166 13.076,-12.324C13.226,-12.497 13.4,-12.65 13.589,-12.783C13.768,-12.906 13.965,-13.005 14.169,-13.086C14.319,-13.153 14.489,-13.199 14.656,-13.247C14.811,-13.286 14.977,-13.302 14.977,-13.302L14.977,-20.595L-9.058,-20.595L-9.058,-13.52C-9.058,-13.52 -8.559,-13.41 -8.114,-13.184C-7.904,-13.083 -7.729,-12.926 -7.56,-12.762C-7.43,-12.639 -7.327,-12.493 -7.244,-12.339C-7.17,-12.203 -7.121,-12.049 -7.09,-11.898C-7.061,-11.74 -7.035,-11.58 -7.071,-11.429L-15.22,22.092C-15.247,22.232 -15.284,22.371 -15.327,22.504C-15.361,22.607 -15.393,22.712 -15.444,22.808C-15.547,22.983 -15.652,23.156 -15.791,23.301C-15.96,23.478 -16.153,23.632 -16.364,23.756C-16.58,23.887 -16.82,23.986 -17.066,24.071C-17.289,24.14 -17.527,24.181 -17.759,24.218C-17.912,24.236 -18.07,24.236 -18.221,24.236C-18.319,24.243 -18.422,24.236 -18.422,24.236L-18.422,32.473L0.246,32.374L0.246,24.737C0.246,24.737 -0.02,24.78 -0.284,24.743C-0.575,24.706 -0.868,24.648 -1.139,24.545C-1.34,24.478 -1.519,24.36 -1.694,24.236C-1.814,24.15 -1.913,24.046 -2.007,23.928C-2.096,23.815 -2.173,23.688 -2.228,23.559C-2.278,23.432 -2.306,23.296 -2.317,23.167C-2.324,23.037 -2.296,22.904 -2.285,22.771L-2.03,20.756L7.403,20.756L7.875,22.92C7.933,23.213 7.878,23.518 7.739,23.771C7.662,23.917 7.566,24.048 7.452,24.166C7.342,24.279 7.205,24.378 7.07,24.468C6.961,24.536 6.852,24.591 6.733,24.641C6.622,24.69 6.505,24.727 6.385,24.761C6.202,24.812 6.019,24.836 6.019,24.836L6.019,32.461L22.279,32.461L22.279,24.545C22.279,24.545 22.094,24.557 21.915,24.536C21.735,24.524 21.558,24.515 21.394,24.464C21.066,24.364 20.733,24.252 20.435,24.092C20.224,23.98 20.036,23.819 19.866,23.645C19.719,23.487 19.613,23.29 19.506,23.092C19.456,23.003 19.435,22.898 19.404,22.798C19.37,22.669 19.336,22.54 19.309,22.41L12.709,-10.655C12.682,-10.785 12.648,-10.912 12.65,-11.037" style="fill:rgb(0,83,155);fill-rule:nonzero;"/>
        </g>
        <g transform="matrix(1,0,0,1,382.647,256.496)">
            <path d="M0,-0.182L0.006,-17.549C0.006,-17.549 0.367,-17.546 0.728,-17.543C1.113,-17.54 1.506,-17.558 1.891,-17.54C2.243,-17.518 2.598,-17.485 2.941,-17.41C3.261,-17.343 3.573,-17.237 3.875,-17.108C4.134,-17.006 4.378,-16.861 4.615,-16.719C4.772,-16.623 4.914,-16.513 5.056,-16.392C5.202,-16.263 5.343,-16.121 5.469,-15.969C5.602,-15.809 5.723,-15.646 5.819,-15.467C5.942,-15.223 6.093,-14.998 6.093,-14.754L6.093,-3.645C6.093,-3.401 6.09,-3.138 6.013,-2.886C5.926,-2.645 5.84,-2.397 5.72,-2.172C5.646,-2.039 5.532,-1.93 5.43,-1.813C5.282,-1.636 5.146,-1.457 4.976,-1.305C4.788,-1.14 4.578,-0.994 4.359,-0.871C4.134,-0.735 3.906,-0.618 3.656,-0.526C3.32,-0.403 2.983,-0.291 2.628,-0.236C2.252,-0.176 1.864,-0.192 1.465,-0.182C1.095,-0.174 0.722,-0.174 0.349,-0.174C0.173,-0.174 0,-0.182 0,-0.182M19.988,18.267C19.77,17.23 19.988,11.322 19.988,11.322C19.988,11.322 20.064,8.032 16.337,5.334C16.344,5.329 16.35,5.326 16.357,5.319C16.813,4.937 17.23,4.507 17.591,4.039C17.955,3.564 18.291,3.073 18.51,2.534C18.785,1.864 18.905,1.133 19.071,0.409C19.1,0.286 19.087,0.16 19.091,0.03C19.096,-0.14 19.081,-0.309 19.081,-0.482L19.081,-17.053C19.081,-17.237 19.112,-17.422 19.105,-17.611C19.074,-18.058 19.078,-18.503 18.958,-18.922C18.751,-19.687 18.489,-20.436 18.125,-21.134C17.85,-21.671 17.465,-22.149 17.057,-22.606C16.486,-23.228 15.894,-23.836 15.225,-24.345C14.493,-24.898 13.747,-25.432 12.914,-25.741C11.782,-26.15 10.542,-26.301 9.317,-26.492C8.697,-26.585 8.062,-26.56 7.429,-26.585C7.247,-26.594 7.068,-26.594 6.886,-26.594L-16.144,-26.594L-16.144,-19.104C-16.144,-19.104 -15.768,-19.139 -15.397,-19.119C-15.154,-19.11 -14.907,-19.104 -14.678,-19.039C-14.444,-18.968 -14.225,-18.851 -14.016,-18.725C-13.883,-18.638 -13.765,-18.531 -13.661,-18.41C-13.559,-18.289 -13.466,-18.16 -13.411,-18.012C-13.368,-17.889 -13.368,-17.744 -13.358,-17.599C-13.349,-17.463 -13.358,-17.321 -13.358,-17.179L-13.358,16.284C-13.355,16.564 -13.383,16.857 -13.5,17.12C-13.605,17.332 -13.719,17.545 -13.873,17.724C-14.04,17.925 -14.234,18.104 -14.453,18.246C-14.709,18.42 -14.996,18.554 -15.29,18.666C-15.496,18.752 -15.718,18.793 -15.94,18.841C-16.067,18.872 -16.203,18.878 -16.332,18.896C-16.44,18.906 -16.545,18.909 -16.545,18.909L-16.545,26.412L2.061,26.405L2.061,18.996C2.061,18.996 1.818,18.967 1.583,18.906C1.429,18.865 1.277,18.825 1.133,18.758C0.886,18.635 0.639,18.505 0.423,18.342C0.256,18.218 0.102,18.073 -0.003,17.901C-0.147,17.684 -0.24,17.441 -0.324,17.191C-0.36,17.096 -0.36,16.99 -0.355,16.885C-0.355,16.762 -0.317,16.639 -0.317,16.512L-0.317,8.094L3.831,8.094C5.08,8.784 6.758,10.171 6.62,12.599L6.62,21.622C6.62,21.622 7.055,26.412 12.38,26.331C17.706,26.252 22.813,26.331 22.813,26.331L22.813,20.504C22.813,20.504 20.205,19.306 19.988,18.267" style="fill:rgb(0,83,155);fill-rule:nonzero;"/>
        </g>
        <g transform="matrix(1,0,0,1,611.371,359.046)">
            <path d="M0,-123.724C-0.127,-123.517 -0.219,-123.342 -0.41,-123.052C-0.608,-122.758 -0.904,-122.349 -1.185,-121.518C-1.472,-120.692 -1.743,-119.445 -1.919,-118.529C-2.095,-117.621 -2.184,-117.048 -2.239,-116.703C-2.295,-116.357 -2.327,-116.24 -2.336,-116.129C-2.341,-116.011 -2.33,-115.904 -2.327,-115.818C-2.319,-115.737 -2.319,-115.682 -2.319,-115.61C-2.313,-115.545 -2.312,-115.466 -2.308,-115.391C-2.305,-115.308 -2.301,-115.234 -2.305,-115.16L-4.233,-71.357L-4.293,-71.357L-4.563,-63.814L-190.588,23.279L-375.286,-62.952L-377.584,-115.16C-377.587,-115.234 -377.584,-115.308 -377.581,-115.391C-377.578,-115.466 -377.575,-115.546 -377.569,-115.61C-377.569,-115.681 -377.569,-115.737 -377.562,-115.817C-377.559,-115.904 -377.547,-116.011 -377.553,-116.128C-377.562,-116.24 -377.593,-116.357 -377.648,-116.703C-377.705,-117.048 -377.793,-117.622 -377.97,-118.529C-378.146,-119.445 -378.417,-120.692 -378.704,-121.518C-378.985,-122.349 -379.281,-122.759 -379.478,-123.051C-379.669,-123.341 -379.762,-123.517 -379.888,-123.724C-380.015,-123.933 -380.178,-124.184 -380.345,-124.421L-350.164,-145.958L-350.06,-145.878C-349.964,-145.798 -349.766,-145.64 -349.606,-145.517C-349.446,-145.396 -349.313,-145.307 -349.097,-145.141C-348.88,-144.974 -348.572,-144.734 -348.326,-144.582C-348.082,-144.428 -347.9,-144.369 -347.462,-144.157C-347.021,-143.947 -346.32,-143.588 -345.215,-143.187C-344.111,-142.781 -342.6,-142.339 -341.313,-142.13C-340.795,-142.047 -340.326,-142.008 -339.887,-141.985L-335.475,-141.985L-335.458,-141.988L-44.431,-141.988L-44.413,-141.985L-40.002,-141.985C-39.563,-142.008 -39.093,-142.047 -38.575,-142.13C-37.288,-142.339 -35.777,-142.781 -34.673,-143.187C-33.568,-143.588 -32.867,-143.947 -32.427,-144.157C-31.988,-144.369 -31.806,-144.428 -31.563,-144.582C-31.315,-144.734 -31.008,-144.974 -30.791,-145.141C-30.575,-145.307 -30.442,-145.396 -30.282,-145.517C-30.122,-145.64 -29.925,-145.798 -29.829,-145.878L-29.725,-145.958L0.457,-124.421C0.29,-124.184 0.126,-123.933 0,-123.724M-29.965,-154.698L-33.947,-151.511C-33.981,-151.483 -34.019,-151.453 -34.09,-151.4C-34.163,-151.338 -34.269,-151.251 -34.373,-151.168C-34.59,-151.002 -34.817,-150.841 -35.062,-150.65C-36.249,-149.95 -37.533,-149.416 -38.665,-149.163C-39.723,-148.922 -40.631,-148.93 -41.398,-148.934L-41.849,-148.934C-42.501,-148.933 -43.046,-148.921 -43.592,-148.911C-43.694,-148.919 -43.793,-148.927 -43.893,-148.934L-335.996,-148.934C-336.095,-148.927 -336.194,-148.919 -336.297,-148.911C-336.842,-148.921 -337.388,-148.933 -338.04,-148.934L-338.49,-148.934C-339.258,-148.93 -340.167,-148.922 -341.223,-149.163C-342.355,-149.416 -343.64,-149.95 -344.827,-150.65C-345.071,-150.841 -345.299,-151.002 -345.515,-151.168C-345.62,-151.251 -345.725,-151.338 -345.799,-151.4C-345.87,-151.453 -345.908,-151.483 -345.941,-151.511L-349.924,-154.698L-390.711,-125.591L-385.874,-120.149C-385.811,-120.047 -385.75,-119.942 -385.679,-119.831C-385.608,-119.714 -385.531,-119.584 -385.457,-119.454C-385.38,-119.328 -385.303,-119.199 -385.225,-119.072C-385.167,-118.912 -385.114,-118.754 -385,-118.189C-384.889,-117.625 -384.717,-116.65 -384.547,-115.679C-384.559,-115.401 -384.562,-115.135 -384.55,-114.892L-382.066,-58.424L-190.582,30.974L2.257,-59.303L2.433,-64.212L4.661,-114.892C4.674,-115.136 4.671,-115.401 4.658,-115.679C4.828,-116.651 5.001,-117.625 5.111,-118.189C5.226,-118.754 5.278,-118.912 5.337,-119.072C5.415,-119.198 5.492,-119.328 5.568,-119.454C5.643,-119.584 5.719,-119.713 5.791,-119.831C5.862,-119.942 5.923,-120.047 5.984,-120.149L10.822,-125.591L-29.965,-154.698Z" style="fill:rgb(0,83,155);fill-rule:nonzero;"/>
        </g>
    </g>
</svg>
