<?xml version="1.0" encoding="utf-8"?>
<!-- Generator: Adobe Illustrator 17.0.0, SVG Export Plug-In . SVG Version: 6.00 Build 0)  -->
<!DOCTYPE svg PUBLIC "-//W3C//DTD SVG 1.1//EN" "http://www.w3.org/Graphics/SVG/1.1/DTD/svg11.dtd">
<svg version="1.1" id="Layer_1" xmlns="http://www.w3.org/2000/svg" xmlns:xlink="http://www.w3.org/1999/xlink" x="0px" y="0px"
	 width="178.079px" height="74px" viewBox="53.769 -21 178.079 74" enable-background="new 53.769 -21 178.079 74"
	 xml:space="preserve">
<g>
	<path fill="#BCA262" d="M53.769,12.232c1.037,0.001,2.073,0.002,3.11,0.003c0.223,0.465,0.409,0.947,0.609,1.422
		c0.795,1.886,1.595,3.77,2.388,5.657c0.094,0.224,0.165,0.457,0.244,0.686c0.03,0.086,0.097,0.205-0.076,0.232
		c-0.726-1.165-1.448-2.333-2.18-3.494c-0.624-0.989-1.217-2-1.942-2.921c-0.474-0.602-1.003-1.148-1.808-1.295
		c-0.113-0.021-0.229-0.025-0.344-0.037C53.769,12.401,53.769,12.316,53.769,12.232z"/>
	<path fill="#EBDFC2" d="M231.847,25.876c-0.019,0.001-0.039,0.002-0.058,0.004c-0.162-0.321-0.166-0.641,0.003-0.961
		c0.019-0.001,0.037,0.001,0.055,0.005C231.847,25.242,231.847,25.559,231.847,25.876z"/>
	<path fill="#F2E6C6" d="M99.086,52.474c-0.003,0.019-0.004,0.038-0.004,0.057c-0.317,0-0.635,0-0.952,0
		c0.001-0.02,0-0.039-0.003-0.059C98.447,52.311,98.766,52.309,99.086,52.474z"/>
	<path fill="#FAEECA" d="M117.169,52.531c0.001-0.02,0-0.04-0.003-0.059c0.276-0.171,0.572-0.097,0.864-0.068
		c0.039,0.014,0.07,0.038,0.095,0.07c-0.002,0.019-0.003,0.038-0.004,0.057C117.803,52.531,117.486,52.531,117.169,52.531z"/>
	<path fill="#F5E8C6" d="M128.025,52.474c-0.003,0.019-0.004,0.038-0.004,0.057c-0.317,0-0.635,0-0.952,0
		c0-0.019-0.001-0.039-0.004-0.058C127.385,52.31,127.705,52.309,128.025,52.474z"/>
	<path fill="#EEDFBA" d="M136.525,52.531c0.001-0.019-0.001-0.038-0.005-0.057c0.32-0.165,0.64-0.162,0.96-0.002
		c-0.005,0.02-0.006,0.04-0.003,0.06C137.16,52.531,136.842,52.531,136.525,52.531z"/>
	<path fill="#F0E2C2" d="M192.188,52.477c-0.002,0.018-0.004,0.036-0.005,0.055c-0.296,0-0.592,0-0.888,0
		c0-0.019-0.002-0.037-0.005-0.056C191.589,52.313,191.889,52.312,192.188,52.477z"/>
	<path fill="#D6B66C" d="M131.646,26.257c-0.298-0.801-0.604-1.599-0.89-2.404c-0.072-0.203-0.168-0.28-0.387-0.267
		c-0.316,0.019-0.634-0.001-0.951-0.004c-0.126-0.154-0.249-0.309-0.125-0.522c0.192-0.106,0.402-0.043,0.604-0.062
		c0.12-0.011,0.247,0.035,0.356-0.045c0.04-0.215-0.087-0.388-0.157-0.568c-0.857-2.21-1.718-4.419-2.588-6.625
		c-0.027-0.07-0.038-0.147-0.141-0.129c-0.221-0.087-0.316-0.252-0.301-0.485c0.169-0.302,0.024-0.567-0.109-0.827
		c-0.08-0.156-0.093-0.251,0.101-0.341c0.959-0.446,1.72-1.137,2.371-1.959c0.065-0.082,0.118-0.179,0.249-0.165
		c0.158,0.017,0.154,0.155,0.192,0.256c1.817,4.852,3.627,9.707,5.451,14.557c0.312,0.829,0.629,1.663,1.132,2.4
		c0.471,0.69,1.148,1.073,1.977,1.183c0.111,0.015,0.242-0.018,0.239,0.168c-0.003,0.181-0.125,0.164-0.242,0.163
		c-1.607-0.004-3.213-0.007-4.82-0.011c-0.338-0.541-0.512-1.155-0.778-1.728c-0.368-0.794-0.641-1.631-1.052-2.406
		C131.741,26.368,131.695,26.312,131.646,26.257z"/>
	<path fill="#BEA464" d="M60.043,20.233c0.059-0.305-0.113-0.56-0.218-0.814c-0.805-1.947-1.642-3.882-2.448-5.828
		c-0.184-0.443-0.466-0.855-0.498-1.356c0.888,0,1.777,0,2.665,0c0.158,0.338,0.299,0.682,0.46,1.018
		c-0.069,0.326,0.018,0.622,0.155,0.917c0.376,0.804,0.866,1.543,1.286,2.322c0.467,1.392,1.105,2.713,1.664,4.067
		c0.508,1.228,1.013,2.458,1.565,3.667c0.006,1.174,0.006,2.348,0.023,3.521c0.005,0.326,0.062,0.65,0.091,0.976
		c0.051,0.567,0.397,0.913,0.871,1.16c0.388,0.202,0.807,0.306,1.236,0.379c0.114,0.019,0.286,0,0.274,0.188
		c-0.013,0.206-0.19,0.126-0.296,0.126c-0.835,0.004-1.671-0.003-2.506-0.007c-0.304-0.592-0.532-1.216-0.792-1.827
		c-0.681-1.603-1.36-3.207-2.033-4.813c-0.04-0.097-0.077-0.198-0.154-0.274c0.145-0.915-0.189-1.68-0.72-2.398
		C60.43,20.937,60.249,20.576,60.043,20.233z"/>
	<path fill="#F2D484" d="M206.145,30.57c-1.574,0.003-3.148,0.006-4.722,0.007c-0.087,0-0.203,0.036-0.226-0.106
		c-0.026-0.16,0.105-0.167,0.201-0.183c0.281-0.047,0.56-0.097,0.829-0.192c0.751-0.266,0.967-0.659,0.777-1.435
		c-0.284-1.159-0.703-2.275-1.105-3.396c-0.157-0.437-0.34-0.864-0.48-1.306c-0.086-0.27-0.209-0.386-0.513-0.374
		c-0.643,0.025-1.288,0.002-1.933-0.001c-0.178-0.369-0.487-0.416-0.862-0.408c-0.935,0.021-1.871,0.012-2.806,0.003
		c-0.138-0.001-0.323,0.058-0.384-0.155c0.143-0.128,0.32-0.086,0.484-0.087c1.722-0.003,3.443-0.001,5.165-0.002
		c0.334,0,0.353-0.018,0.239-0.312c-0.876-2.243-1.745-4.488-2.635-6.725c-0.015-0.039-0.03-0.08-0.075-0.107
		c-0.112,0.043-0.118,0.161-0.157,0.251c-0.295,0.678-0.58,1.36-0.86,2.044c-0.048,0.117-0.087,0.24-0.205,0.311
		c-0.233-0.06-0.234-0.311-0.371-0.451c0.365-0.882,0.717-1.771,1.104-2.644c0.148-0.334,0.207-0.629-0.013-0.943
		c-0.137-0.196-0.072-0.315,0.144-0.404c0.382-0.156,0.706-0.412,1.044-0.642c0.234-0.066,0.257,0.143,0.311,0.266
		c0.207,0.474,0.406,0.952,0.607,1.428c1.408,3.336,2.815,6.674,4.226,10.009c0.724,1.711,1.455,3.42,2.161,5.139
		C206.142,30.284,206.243,30.416,206.145,30.57z"/>
	<path fill="#C2A05A" d="M145.03,12.235c0.632-0.004,1.265-0.004,1.897-0.015c0.147-0.003,0.233,0.069,0.318,0.168
		c0.954,1.112,1.914,2.218,2.859,3.337c0.235,0.278,0.451,0.573,0.7,0.84c1.164,3.02,2.508,5.965,3.732,8.96
		c0.044,0.107,0.098,0.212,0.109,0.329c0.006,0.069,0.025,0.158-0.097,0.149c-2.5-2.916-5-5.831-7.5-8.748
		c-0.02-0.023-0.032-0.053-0.048-0.08c-0.526-1.322-1.105-2.621-1.644-3.937C145.222,12.915,145.007,12.612,145.03,12.235z"/>
	<path fill="#C4A35B" d="M154.547,26.004c0.113-0.103,0.011-0.205-0.022-0.285c-0.454-1.098-0.917-2.192-1.38-3.286
		c-0.545-1.288-1.092-2.575-1.636-3.862c-0.192-0.455-0.367-0.918-0.574-1.366c-0.097-0.209-0.148-0.413-0.131-0.639
		c0.652,0.745,1.309,1.487,1.956,2.237c1.668,1.935,3.332,3.875,4.997,5.813c0.034,0.039,0.06,0.086,0.089,0.129
		c0.451,1.101,0.856,2.222,1.403,3.282c0.02,0.039,0.028,0.079,0.027,0.121c-0.016,0.747,0.035,1.495-0.027,2.242
		c-0.072,0.348-0.283,0.463-0.585,0.306c-0.1-0.052-0.199-0.125-0.272-0.21C157.108,28.995,155.828,27.499,154.547,26.004z"/>
	<path fill="#F5D887" d="M206.145,30.57c-0.297-0.925-0.731-1.794-1.097-2.69c-0.529-1.297-1.085-2.583-1.632-3.873
		c-0.563-1.329-1.128-2.657-1.691-3.986c-0.538-1.271-1.073-2.543-1.608-3.815c-0.364-0.864-0.722-1.73-1.092-2.592
		c-0.05-0.115-0.067-0.279-0.242-0.303c0.447-0.403,0.892-0.807,1.262-1.285c0.07-0.09,0.14-0.196,0.281-0.169
		c0.135,0.026,0.127,0.157,0.161,0.248c1.845,4.917,3.682,9.838,5.533,14.753c0.238,0.631,0.512,1.252,0.824,1.849
		c0.453,0.866,1.187,1.381,2.158,1.542c0.119,0.02,0.27-0.022,0.254,0.185c-0.014,0.188-0.154,0.142-0.26,0.142
		C208.047,30.576,207.096,30.572,206.145,30.57z"/>
	<path fill="#E3C377" d="M180.827,12.788c1.095,0.31,2.055,0.877,2.931,1.587c1.737,1.409,2.686,3.249,2.912,5.464
		c0.178,1.739,0.082,3.456-0.515,5.12c-0.035,0.098-0.085,0.19-0.128,0.285c-0.157-0.111-0.21-0.29-0.278-0.452
		c-1.614-3.813-3.224-7.628-4.831-11.445C180.846,13.175,180.684,13.001,180.827,12.788z"/>
	<path fill="#D6B66C" d="M169.219,17.692c-0.006-0.708-0.01-1.417-0.018-2.125c-0.005-0.454-0.055-0.904-0.094-1.356
		c-0.075-0.872-0.637-1.291-1.393-1.527c-0.27-0.084-0.556-0.121-0.834-0.181c-0.096-0.021-0.232,0.003-0.21-0.165
		c0.022-0.166,0.157-0.107,0.25-0.112c0.148-0.008,0.296,0.001,0.444,0.002c0.427-0.061,0.856-0.02,1.283-0.026
		c0.639-0.008,1.278-0.002,1.916-0.002c0.194-0.007,0.238,0.147,0.294,0.282c0.419,1.016,0.864,2.021,1.277,3.039
		c0.124,0.306,0.303,0.577,0.453,0.868c0.031,0.147,0.026,0.295,0.026,0.443c0.001,2.557,0.001,5.113,0,7.67
		c0,0.148,0.008,0.296-0.028,0.441c-0.083,0.209-0.19,0.115-0.275,0.009c-0.106-0.133-0.157-0.299-0.222-0.454
		c-0.921-2.18-1.84-4.362-2.767-6.539C169.281,17.871,169.269,17.775,169.219,17.692z"/>
	<path fill="#F9DC8A" d="M101.375,27.466c0.069-1.381,0.017-2.764,0.069-4.144c0.069-1.825-0.054-3.648-0.009-5.473
		c0.023-0.939,0.006-1.879,0.007-2.819c0.202,0.082,0.134,0.265,0.135,0.406c0.007,1.088,0.008,2.176,0.001,3.264
		c-0.002,0.261,0.063,0.49,0.176,0.726c0.498,1.038,0.91,2.115,1.363,3.173c0.515,1.204,1.021,2.412,1.534,3.617
		c0.05,0.117,0.072,0.243,0.134,0.355c0.012,0.78,0.024,1.559,0.131,2.334c0.067,0.483,0.313,0.77,0.781,0.924
		c0.74,0.242,1.506,0.293,2.27,0.368c0.119,0.107,0.171,0.226,0.063,0.372c-1.756,0-3.512,0-5.269,0
		c-0.105-0.05-0.145-0.148-0.185-0.247C102.193,29.364,101.77,28.421,101.375,27.466z"/>
	<path fill="#D3B369" d="M169.219,17.692c0.294,0.321,0.386,0.742,0.55,1.125c0.643,1.5,1.273,3.006,1.91,4.509
		c0.209,0.495,0.427,0.986,0.63,1.483c0.043,0.105,0.098,0.183,0.189,0.242c0.138,0.125,0.097,0.292,0.099,0.445
		c0.009,0.894-0.017,1.786,0.122,2.677c0.175,1.125,0.555,1.565,1.661,1.811c0.123,0.027,0.25,0.044,0.356,0.12
		c0.094,0.146,0.162,0.295,0.057,0.465c-1.015,0-2.031,0-3.046,0c-0.221-0.203-0.278-0.493-0.388-0.752
		c-0.342-0.806-0.685-1.612-1.025-2.419c-0.336-0.797-0.662-1.599-1.042-2.449c-0.001,0.444,0.006,0.827-0.004,1.21
		c-0.003,0.124,0.05,0.282-0.129,0.346c0.016-2.24,0.033-4.481,0.049-6.721C169.214,19.088,169.216,18.39,169.219,17.692z"/>
	<path fill="#D5B973" d="M75.202,19.205c0.192-0.976,0.535-1.893,1.077-2.732c0.225-0.024,0.241,0.169,0.297,0.303
		c0.575,1.359,1.154,2.716,1.723,4.077c0.098,0.234,0.201,0.464,0.383,0.648c0.079,0.404,0.069,0.816,0.109,1.223
		c0.181,1.848,0.599,3.618,1.669,5.178c0.203,0.296,0.428,0.574,0.683,0.828c0.141,0.141,0.3,0.267,0.402,0.444
		c0.059,0.302,0.195,0.578,0.295,0.867c0.071,0.205,0.04,0.243-0.153,0.28c-0.821-0.207-1.582-0.547-2.29-1.011
		c-0.039-0.309-0.186-0.581-0.305-0.862c-1.267-2.98-2.518-5.966-3.784-8.946C75.268,19.405,75.236,19.305,75.202,19.205z"/>
	<path fill="#EDD083" d="M87.848,12.365c0.646,0.173,1.273,0.393,1.84,0.757c0.087,0.08,0.147,0.177,0.193,0.286
		c1.357,3.237,2.728,6.468,4.094,9.701c0.057,0.135,0.119,0.271,0.097,0.425c-0.189,0.937-0.553,1.801-1.074,2.6
		c-0.187,0.021-0.219-0.133-0.269-0.251c-0.564-1.345-1.143-2.683-1.703-4.03c-0.081-0.195-0.167-0.387-0.293-0.579
		c-0.001-0.022-0.043,0.042-0.005,0.022c0.015-0.008,0.018,0.001,0.018,0.027c0,0.089,0.045,0.212-0.129,0.16
		c-0.105-0.199-0.05-0.414-0.06-0.622c-0.103-1.971-0.49-3.865-1.508-5.591c-0.176-0.299-0.42-0.555-0.548-0.883
		c-0.116-0.549-0.394-1.036-0.593-1.553C87.849,12.686,87.728,12.538,87.848,12.365z"/>
	<path fill="#E1C174" d="M170.67,12.238c-1.102-0.003-2.204-0.006-3.307-0.009c0.081-0.071,0.18-0.047,0.273-0.047
		c3.135-0.001,6.27-0.019,9.405,0.01c1.243,0.011,2.481,0.148,3.674,0.542c0.039,0.013,0.074,0.036,0.111,0.054
		c0.081,0.484,0.325,0.907,0.51,1.351c0.67,1.613,1.355,3.219,2.035,4.827c0.713,1.686,1.428,3.371,2.142,5.057
		c0.172,0.406,0.343,0.813,0.514,1.22c-0.327,0.808-0.719,1.577-1.338,2.208c-0.179-0.073-0.217-0.25-0.282-0.399
		c-0.423-0.973-0.824-1.956-1.238-2.933c-0.083-0.195-0.183-0.377-0.3-0.552c-0.079-0.228-0.003-0.445,0.046-0.664
		c0.051-0.133,0.044-0.272,0.038-0.41c-0.001-0.145-0.001-0.29,0.027-0.433c0.071-0.487,0.049-0.975,0.013-1.462
		c-0.135-1.105-0.336-2.195-0.787-3.223c-0.546-1.246-1.281-2.35-2.341-3.23c-1.052-0.874-2.272-1.278-3.612-1.383
		c-0.211-0.017-0.427-0.008-0.584-0.19c-0.107-0.239-0.318-0.24-0.535-0.239c-1.315,0.001-2.63,0.001-3.945,0.001
		C171.011,12.331,170.83,12.339,170.67,12.238z"/>
	<path fill="#F6D988" d="M104.785,26.572c-0.297-0.319-0.387-0.74-0.551-1.123c-0.648-1.509-1.278-3.024-1.923-4.534
		c-0.244-0.571-0.44-1.163-0.771-1.694c-0.068-0.108-0.045-0.225-0.045-0.339c-0.002-1.172,0-2.345-0.003-3.517
		c0-0.112,0.039-0.234-0.05-0.334c-0.026-0.262-0.054-0.524-0.079-0.786c-0.066-0.687-0.479-1.101-1.076-1.369
		c-0.407-0.183-0.835-0.292-1.272-0.375c-0.092-0.018-0.202-0.016-0.185-0.158c0.018-0.144,0.133-0.112,0.221-0.112
		c0.645,0,1.29,0.003,1.935,0.006c0.128,0.061,0.161,0.189,0.21,0.304c1.169,2.761,2.325,5.528,3.509,8.283
		c0.029,0.068,0.06,0.136,0.055,0.213c-0.001,1.699-0.001,3.398,0.001,5.097c0,0.104-0.02,0.211,0.022,0.313
		C104.784,26.486,104.784,26.529,104.785,26.572z"/>
	<path fill="#C4A35B" d="M143.629-7.641c-0.716,0.78-1.519,1.466-2.315,2.158c-1.596,1.388-3.266,2.681-5.009,3.88
		c-0.069,0.048-0.144,0.087-0.216,0.131c-0.101,0.029-0.167-0.032-0.197-0.108c-0.095-0.235-0.269-0.446-0.247-0.721
		c0.033-0.122,0.13-0.188,0.225-0.256c1.326-0.946,2.629-1.922,3.88-2.966c0.803-0.671,1.595-1.354,2.358-2.07
		c0.073-0.068,0.168-0.124,0.201-0.253c-0.965,0.112-1.915,0.232-2.863,0.38c-2.027,0.317-4.042,0.696-6.035,1.188
		c-0.123,0.03-0.246,0.07-0.373,0.015c-0.193-0.25-0.36-0.51-0.319-0.848c1.572-0.413,3.163-0.738,4.762-1.027
		c1.703-0.307,3.416-0.55,5.136-0.749c0.125-0.015,0.253-0.011,0.38-0.016c0.063-0.046,0.134-0.033,0.161,0.026
		C143.341-8.476,143.563-8.088,143.629-7.641z"/>
	<path fill="#DEC177" d="M224.169,22.754c-0.816-0.281-1.643-0.535-2.413-0.938c-0.303-0.464-0.46-0.995-0.677-1.498
		c-0.631-1.465-1.247-2.936-1.861-4.409c-0.052-0.125-0.12-0.249-0.07-0.393c0.195-0.726,0.631-1.301,1.149-1.824
		c0.141,0.046,0.166,0.179,0.216,0.292c0.355,0.797,0.663,1.613,1.028,2.405c0.026,0.056,0.038,0.122,0.101,0.154
		c0.131,0.408,0.335,0.781,0.549,1.15c0.295,0.813,0.657,1.599,0.989,2.396c0.313,0.751,0.627,1.502,0.952,2.248
		C224.188,22.467,224.279,22.605,224.169,22.754z"/>
	<path fill="#F0D385" d="M94.072,23.535c-0.445-1.046-0.89-2.091-1.334-3.137c-0.611-1.443-1.224-2.887-1.83-4.332
		c-0.411-0.979-0.813-1.962-1.22-2.943c0.848,0.409,1.568,0.994,2.2,1.678c1.094,1.186,1.835,2.571,2.201,4.146
		c0.343,1.477,0.393,2.961,0.041,4.446C94.119,23.441,94.092,23.487,94.072,23.535z"/>
	<path fill="#D2B771" d="M75.202,19.205c0.208,0.143,0.238,0.389,0.326,0.594c0.619,1.442,1.226,2.889,1.836,4.335
		c0.598,1.417,1.194,2.834,1.791,4.251c0.086,0.204,0.171,0.408,0.258,0.611c0.046,0.108,0.109,0.214-0.015,0.313
		c-0.865-0.463-1.574-1.117-2.213-1.849c-1.192-1.366-1.883-2.965-2.13-4.75C74.893,21.538,74.914,20.363,75.202,19.205z"/>
	<path fill="#C2A15A" d="M162.228,49.247c0,0.951-0.005,1.903,0.004,2.854c0.002,0.211-0.034,0.316-0.279,0.274
		c-0.185-0.031-0.381-0.028-0.569-0.011c-0.249,0.023-0.323-0.064-0.323-0.318c0.003-1.86-0.01-3.72-0.018-5.58
		c-0.002-0.417,0-0.417-0.431-0.417c-0.55,0-1.099-0.005-1.649,0.002c-0.168,0.002-0.241-0.04-0.249-0.227
		c-0.035-0.782-0.042-0.782,0.734-0.782c1.607,0,3.213,0.005,4.82-0.005c0.23-0.001,0.31,0.048,0.307,0.294
		c-0.009,0.717,0.003,0.717-0.706,0.717c-0.465,0-0.93,0.009-1.395-0.004c-0.198-0.006-0.25,0.061-0.249,0.253
		C162.233,47.282,162.228,48.265,162.228,49.247z"/>
	<path fill="#D7B76C" d="M181.013,45.053c1.053,0.003,2.108-0.074,3.157,0.109c0.941,0.165,1.545,0.721,1.66,1.574
		c0.151,1.113-0.211,1.852-1.136,2.26c-0.211,0.093-0.206,0.175-0.116,0.349c0.473,0.907,0.933,1.822,1.407,2.728
		c0.119,0.227,0.126,0.284-0.177,0.33c-0.751,0.112-1.181-0.154-1.44-0.877c-0.211-0.592-0.576-1.127-0.83-1.706
		c-0.165-0.378-0.368-0.619-0.813-0.535c-0.222-0.284-0.447-0.568-0.315-0.968c0.398-0.13,0.815-0.046,1.222-0.118
		c0.722-0.128,1.067-0.604,0.898-1.316c-0.104-0.438-0.416-0.649-0.832-0.717c-0.606-0.098-1.22-0.093-1.832-0.083
		c-0.122,0.002-0.226,0.045-0.325,0.109c-0.031,0.009-0.064,0.018-0.092,0.002C181.217,46.063,180.933,45.318,181.013,45.053z"/>
	<path fill="#C8A75F" d="M152.577,47.256c0.252-0.694,0.505-1.387,0.753-2.082c0.035-0.097,0.087-0.137,0.184-0.131
		c0.021,0.001,0.042-0.001,0.063,0c0.348,0.004,0.752-0.098,1.03,0.044c0.27,0.138,0.285,0.582,0.403,0.894
		c0.776,2.043,1.539,4.091,2.319,6.132c0.097,0.254,0.018,0.275-0.203,0.276c-0.955,0.005-0.955,0.01-1.279-0.862
		c-0.284-0.765-0.284-0.764-1.108-0.766c-0.232,0-0.465-0.007-0.697-0.01c-0.156-0.304-0.376-0.586-0.331-0.96
		c0.312-0.143,0.643-0.056,0.964-0.069c0.413-0.017,0.429-0.027,0.286-0.408c-0.289-0.77-0.55-1.549-0.835-2.32
		c-0.039-0.104-0.048-0.226-0.176-0.326c-0.191,0.492-0.335,0.985-0.522,1.461c-0.049,0.126-0.067,0.269-0.195,0.352
		c-0.1,0.026-0.169-0.033-0.203-0.107C152.863,48.008,152.652,47.659,152.577,47.256z"/>
	<path fill="#D4B76E" d="M231.52,27.084c-0.189,0.603-0.506,1.13-0.946,1.583c-0.222,0.077-0.242-0.126-0.295-0.238
		c-0.183-0.392-0.34-0.795-0.508-1.194c-0.935-2.217-1.878-4.43-2.804-6.651c-0.064-0.153-0.207-0.313-0.066-0.5
		c0.668,0.231,1.359,0.403,1.972,0.774c0.228,0.738,0.58,1.426,0.874,2.137c0.525,1.268,1.064,2.531,1.601,3.794
		C231.392,26.893,231.414,27.014,231.52,27.084z"/>
	<path fill="#D9BD75" d="M78.643,21.498c-0.164-0.004-0.2-0.141-0.248-0.253c-0.404-0.937-0.806-1.876-1.205-2.815
		c-0.247-0.581-0.487-1.165-0.731-1.747c-0.037-0.089-0.081-0.173-0.18-0.209c0.514-0.928,1.216-1.691,2.051-2.337
		c0.138-0.029,0.192,0.077,0.231,0.169c0.325,0.763,0.665,1.52,0.968,2.293c-0.016,0.225-0.115,0.428-0.179,0.64
		c-0.326,1.078-0.507,2.179-0.56,3.305C78.775,20.86,78.81,21.198,78.643,21.498z"/>
	<path fill="#E0C073" d="M137.48,52.472c-0.32,0.001-0.64,0.001-0.96,0.002c-1.212-0.136-2.124-0.741-2.593-1.86
		c-0.661-1.578-0.612-3.134,0.449-4.552c0.359-0.48,0.854-0.81,1.451-0.957c0.209,0.273,0.326,0.586,0.404,0.916
		c-0.023,0.077-0.082,0.123-0.148,0.156c-0.755,0.372-1.115,1.027-1.211,1.816c-0.097,0.796-0.113,1.596,0.295,2.345
		c0.551,1.012,1.746,1.395,2.772,0.866c0.111-0.057,0.208-0.148,0.342-0.155c0.32,0.249,0.369,0.63,0.477,0.983
		C138.381,52.32,137.934,52.405,137.48,52.472z"/>
	<path fill="#BCA261" d="M61.387,23.655c0.163,0.007,0.194,0.14,0.243,0.254c0.788,1.866,1.582,3.73,2.357,5.601
		c0.143,0.345,0.356,0.669,0.38,1.058c-0.783,0-1.566,0-2.348,0c-0.094-0.075-0.148-0.176-0.189-0.286
		c-0.193-0.523-0.456-1.018-0.629-1.549C61.385,27.046,61.318,25.348,61.387,23.655z"/>
	<path fill="#EBCE80" d="M212.429,16.298c0.296-0.459,0.456-0.943,0.323-1.5c-0.05-0.21-0.099-0.222-0.289-0.124
		c-0.471,0.241-0.963,0.318-1.44,0.006c-0.457-0.298-0.591-0.752-0.559-1.266c0.045-0.725,0.713-1.329,1.502-1.372
		c1.238-0.068,2.035,0.616,2.215,1.974c0.144,1.084-0.383,2.318-1.492,2.928C212.479,16.778,212.34,16.584,212.429,16.298z"/>
	<path fill="#D6B870" d="M226.901,20.085c0.08,0.484,0.325,0.908,0.51,1.352c0.67,1.614,1.356,3.221,2.036,4.831
		c0.291,0.689,0.576,1.38,0.875,2.065c0.054,0.125,0.068,0.3,0.253,0.334c-0.296,0.251-0.545,0.554-0.872,0.77
		c-0.121,0.033-0.18-0.052-0.221-0.135c-0.267-0.539-0.496-1.095-0.698-1.662c-0.015-0.042-0.01-0.082,0.017-0.119
		c0.047-0.451,0.107-0.901,0.037-1.354c-0.148-0.954-0.687-1.634-1.493-2.126c-0.171-0.104-0.343-0.205-0.515-0.307
		c-0.451-0.984-0.842-1.993-1.27-2.987c-0.121-0.28-0.246-0.558-0.359-0.841c-0.057-0.141-0.141-0.292-0.014-0.443
		C225.738,19.722,226.353,19.811,226.901,20.085z"/>
	<path fill="#F4D686" d="M104.726,20.925c-0.248-0.197-0.291-0.509-0.404-0.773c-0.679-1.576-1.337-3.162-2.001-4.744
		c-0.445-1.058-0.889-2.116-1.334-3.174c0.507,0,1.015,0,1.522,0c0.215,0.328,0.331,0.702,0.482,1.058
		c0.572,1.346,1.13,2.697,1.714,4.038c0.029,0.068,0.06,0.135,0.055,0.212c-0.001,1.025,0.001,2.05-0.002,3.074
		C104.759,20.72,104.79,20.829,104.726,20.925z"/>
	<path fill="#E9CC7F" d="M90.655,21.498c0.085-0.071,0.019-0.185,0.094-0.295c0.259,0.247,0.329,0.581,0.456,0.88
		c0.549,1.287,1.088,2.577,1.632,3.866c0.033,0.079,0.074,0.152,0.161,0.186c-0.468,0.82-1.055,1.541-1.79,2.137
		c-0.15-0.03-0.183-0.161-0.235-0.275c-0.223-0.49-0.413-0.994-0.63-1.486c-0.131-0.298-0.239-0.606-0.431-0.875
		c-0.005-0.261,0.119-0.49,0.18-0.734c0.253-1.004,0.435-2.018,0.461-3.056C90.554,21.723,90.535,21.588,90.655,21.498z"/>
	<path fill="#D9BC73" d="M225.184,19.463c0.038,0.531,0.343,0.964,0.532,1.438c0.343,0.858,0.717,1.704,1.08,2.554
		c0.04,0.092,0.036,0.184,0.031,0.279c-0.871-0.369-1.772-0.654-2.659-0.98c-0.141-0.597-0.439-1.132-0.669-1.694
		c-0.416-1.021-0.861-2.03-1.284-3.048c-0.038-0.092-0.141-0.204-0.025-0.319c0.636,0.757,1.496,1.16,2.386,1.518
		C224.781,19.292,224.982,19.379,225.184,19.463z"/>
	<path fill="#DABA6F" d="M136.216,45.998c-0.178-0.277-0.305-0.576-0.389-0.894c1.49-0.516,3.505-0.053,4.259,1.78
		c0.552,1.342,0.509,2.68-0.165,3.974c-0.262,0.502-0.646,0.91-1.162,1.173c-0.225-0.28-0.255-0.654-0.455-0.946
		c0.003-0.117,0.087-0.189,0.157-0.266c0.836-0.919,0.95-2.814,0.21-3.949c-0.426-0.653-1.258-1.011-2.029-0.872
		C136.502,46.024,136.357,46.104,136.216,45.998z"/>
	<path fill="#EBCC7D" d="M128.025,52.474c-0.32,0-0.64,0-0.96,0c-1.062-0.123-1.901-0.63-2.361-1.591
		c-0.754-1.574-0.759-3.156,0.199-4.671c0.233-0.369,0.565-0.653,0.957-0.857c0.298,0.224,0.319,0.602,0.495,0.893
		c-1.175,1.184-1.175,2.579-0.652,4.019c0.363,1,1.33,1.417,2.509,1.197c0.179,0.271,0.266,0.581,0.383,0.879
		C128.418,52.443,128.222,52.459,128.025,52.474z"/>
	<path fill="#D1B066" d="M169.16,26.506c0.109-0.371,0.025-0.75,0.048-1.125c0.012-0.196,0.002-0.392,0.002-0.645
		c0.245,0.24,0.302,0.511,0.405,0.753c0.715,1.692,1.423,3.387,2.133,5.081c-1.659,0.004-3.319,0.008-4.978,0.01
		c-0.084,0-0.2,0.042-0.223-0.106c-0.024-0.158,0.094-0.17,0.195-0.188c0.555-0.1,1.085-0.265,1.572-0.558
		c0.354-0.214,0.575-0.503,0.652-0.922C169.103,28.044,169.123,27.275,169.16,26.506z"/>
	<path fill="#C4A25B" d="M145.03,12.235c0.649,1.55,1.297,3.1,1.948,4.649c0.041,0.099,0.098,0.189,0.022,0.293
		c-0.742-0.845-1.483-1.69-2.225-2.535c-0.066,0.085-0.03,0.183-0.03,0.274c-0.002,1.461-0.002,2.923-0.002,4.384
		c-0.032,0.21-0.13,0.105-0.196,0.031c-0.141-0.16-0.193-0.367-0.269-0.561c-0.006-1.152,0.003-2.305-0.023-3.457
		c-0.023-1.048-0.398-1.92-1.375-2.434c-0.357-0.188-0.746-0.288-1.143-0.361c-0.095-0.017-0.264,0.016-0.246-0.171
		c0.018-0.189,0.174-0.119,0.273-0.119C142.852,12.226,143.941,12.232,145.03,12.235z"/>
	<path fill="#D3B369" d="M181.013,45.053c0.093,0.411,0.205,0.813,0.505,1.132c0.121,0.117,0.098,0.271,0.1,0.415
		c0.006,0.441,0.005,0.883,0.001,1.324c-0.002,0.224,0.086,0.326,0.316,0.323c0.162-0.002,0.341-0.038,0.474,0.106
		c0,0.347,0.233,0.614,0.317,0.931c-0.317,0.003-0.633,0.017-0.95,0.006c-0.194-0.007-0.254,0.058-0.252,0.252
		c0.009,0.845-0.006,1.689,0.01,2.534c0.005,0.256-0.076,0.319-0.322,0.317c-0.834-0.007-0.834,0.002-0.834-0.841
		c0-2.017-0.002-4.033,0.002-6.05c0.001-0.521-0.096-0.453,0.475-0.459C180.908,45.043,180.96,45.049,181.013,45.053z"/>
	<path fill="#C7A65E" d="M167.376,48.692c0-1.121,0.005-2.242-0.004-3.363c-0.002-0.214,0.045-0.31,0.278-0.29
		c0.22,0.019,0.444,0.012,0.666,0.002c0.169-0.008,0.216,0.063,0.216,0.223c0.005,2.295,0.013,4.59,0.025,6.884
		c0.001,0.179-0.067,0.233-0.242,0.241c-0.94,0.045-0.94,0.05-0.94-0.873C167.376,50.574,167.376,49.633,167.376,48.692z"/>
	<path fill="#F1D483" d="M104.728,17.435c-0.26-0.215-0.306-0.546-0.429-0.829c-0.566-1.302-1.109-2.613-1.66-3.921
		c-0.061-0.145-0.13-0.288-0.131-0.451c1.605-0.003,3.21-0.007,4.816-0.006c0.094,0,0.229-0.049,0.249,0.115
		c0.02,0.166-0.122,0.147-0.215,0.164c-0.572,0.105-1.135,0.229-1.634,0.554c-0.579,0.378-0.846,0.922-0.871,1.596
		c-0.028,0.758-0.049,1.517-0.072,2.276C104.721,17.096,104.807,17.274,104.728,17.435z"/>
	<path fill="#E8CB7E" d="M222.264,30.512c-0.759-0.116-1.467-0.39-2.133-0.756c-0.306-0.168-0.477-0.09-0.647,0.163
		c-0.124,0.183-0.267,0.353-0.395,0.533c-0.063,0.088-0.137,0.135-0.241,0.1c-0.11-0.036-0.076-0.139-0.077-0.217
		c-0.023-1.635-0.046-3.269-0.062-4.904c-0.001-0.106-0.087-0.276,0.111-0.309c0.181-0.03,0.189,0.141,0.232,0.247
		c0.551,1.369,1.353,2.57,2.409,3.601c0.158,0.154,0.326,0.297,0.49,0.446c0.109,0.235,0.2,0.477,0.3,0.715
		C222.303,30.253,222.369,30.382,222.264,30.512z"/>
	<path fill="#F6D988" d="M118.055,52.459c-0.297,0.004-0.593,0.009-0.89,0.013c-1.188-0.154-2.089-0.747-2.562-1.849
		c-0.651-1.515-0.593-3.01,0.334-4.422c0.087-0.133,0.19-0.252,0.324-0.341c0.137,0.097,0.184,0.252,0.239,0.395
		c0.09,0.235,0.199,0.457,0.359,0.652c-0.115,0.448-0.322,0.867-0.36,1.34c-0.059,0.732,0.003,1.435,0.353,2.095
		c0.363,0.684,0.928,1.05,1.703,1.089c0.095,0.005,0.191,0.001,0.279,0.045C117.796,51.828,118.095,52.105,118.055,52.459z"/>
	<path fill="#CCAC62" d="M158.811,16.675c-0.032-0.59-0.054-1.179-0.123-1.767c-0.131-1.132-0.79-1.807-1.826-2.159
		c-0.308-0.105-0.632-0.161-0.95-0.238c-0.101-0.025-0.226-0.025-0.197-0.183c0.025-0.139,0.142-0.102,0.229-0.102
		c1.997-0.001,3.995-0.001,5.992,0.002c0.084,0,0.201-0.043,0.222,0.106c0.023,0.166-0.106,0.153-0.203,0.173
		c-0.531,0.107-1.049,0.248-1.494,0.575c-0.724,0.532-0.918,1.305-0.964,2.144c-0.042,0.779-0.087,1.559-0.131,2.338
		c-0.191,0.019-0.235-0.135-0.296-0.26C158.972,17.098,158.919,16.875,158.811,16.675z"/>
	<path fill="#C4A25B" d="M139.634-15.2c-0.627,0.513-1.293,0.977-1.891,1.526c-0.2,0.184-0.407,0.362-0.558,0.635
		c0.494,0.119,0.955,0.004,1.408-0.085c0.71-0.14,1.414-0.314,2.12-0.474c0.333,0.134,0.513,0.623,0.321,0.872
		c-1.106,0.309-2.215,0.607-3.367,0.685c-0.217,0.015-0.444-0.012-0.658-0.06c-0.76-0.172-1.022-0.799-0.626-1.471
		c0.201-0.341,0.483-0.613,0.778-0.868c0.646-0.559,1.311-1.093,2.016-1.576c0.081-0.03,0.153,0.004,0.188,0.065
		C139.501-15.718,139.69-15.501,139.634-15.2z"/>
	<path fill="#DFBF73" d="M182.912,23.592c0.224,0.077,0.243,0.298,0.319,0.472c0.493,1.126,0.926,2.278,1.458,3.388
		c-0.547,0.665-1.205,1.193-1.963,1.598c-0.171-0.067-0.202-0.235-0.262-0.377c-0.246-0.583-0.464-1.179-0.776-1.733
		c0.49-1.017,0.896-2.063,1.091-3.182C182.793,23.684,182.835,23.62,182.912,23.592z"/>
	<path fill="#E0C57B" d="M99.086,52.474c-0.32-0.001-0.64-0.001-0.96-0.002c-1.299-0.173-2.183-0.884-2.587-2.117
		c-0.455-1.387-0.423-2.757,0.366-4.045c0.096-0.066,0.169-0.012,0.203,0.067c0.168,0.389,0.392,0.758,0.462,1.185
		c0.008,0.051,0.01,0.104-0.026,0.148c-0.098,0.714-0.138,1.429,0.07,2.131c0.274,0.924,0.835,1.547,1.837,1.685
		c0.446,0.053,0.747,0.501,0.629,0.937L99.086,52.474z"/>
	<path fill="#CCAC62" d="M172.194,52.329c-0.085-0.09-0.046-0.201-0.046-0.302c-0.002-2.22,0.003-4.44-0.008-6.66
		c-0.001-0.269,0.079-0.345,0.338-0.329c0.39,0.023,0.782,0.012,1.173,0.015c0.187,0.197,0.256,0.454,0.344,0.699
		c0.063,0.174,0.016,0.28-0.2,0.277c-0.153-0.002-0.312-0.044-0.461,0.032c0,0.592,0.008,1.184-0.005,1.775
		c-0.005,0.212,0.067,0.266,0.271,0.264c1.036-0.009,2.071,0.005,3.107-0.01c0.259-0.004,0.316,0.08,0.312,0.322
		c-0.011,0.683-0.001,0.682-0.674,0.684c-1.004,0.002-2.008,0.007-3.011,0.01c-0.346-0.678-0.601-1.396-0.908-2.091
		c-0.034-0.077-0.061-0.158-0.105-0.233c-0.076,0.06-0.036,0.143-0.036,0.212c-0.002,1.617-0.001,3.233-0.004,4.85
		C172.281,52.009,172.322,52.186,172.194,52.329z"/>
	<path fill="#CBAA63" d="M172.194,52.329c0-1.943,0-3.886,0-5.878c0.254,0.227,0.301,0.515,0.412,0.762
		c0.255,0.566,0.488,1.142,0.735,1.713c0.029,0.068,0.016,0.121-0.007,0.181c0,0.662,0.011,1.323-0.006,1.984
		c-0.006,0.244,0.075,0.3,0.304,0.295c0.556-0.012,1.113,0.002,1.669,0.006c0.213,0.197,0.272,0.47,0.353,0.729
		c0.043,0.137,0.011,0.253-0.176,0.251c-1.084-0.012-2.168,0.023-3.252-0.019c-0.009,0-0.018-0.01-0.027-0.016L172.194,52.329z"/>
	<path fill="#CBAE68" d="M227.786,12.292c0.638,0.135,1.216,0.415,1.762,0.76c0.23,0.145,0.388,0.161,0.541-0.094
		c0.125-0.207,0.291-0.389,0.42-0.594c0.076-0.12,0.17-0.15,0.292-0.127c0.145,0.027,0.092,0.149,0.092,0.231
		c0.003,1.532,0.003,3.063,0,4.595c0,0.094,0.045,0.22-0.126,0.238c-0.152,0.017-0.201-0.073-0.246-0.189
		c-0.421-1.094-1.003-2.092-1.782-2.969c-0.182-0.205-0.381-0.395-0.572-0.592c-0.178-0.295-0.277-0.624-0.405-0.94
		C227.72,12.504,227.689,12.391,227.786,12.292z"/>
	<path fill="#DBBB6F" d="M122.373,4.987c-1.579,0.082-3.213-0.917-3.757-2.299c-0.22-0.558-0.258-1.137-0.106-1.708
		c0.237-0.891,0.566-1.744,1.257-2.402c0.276,0.245,0.346,0.597,0.477,0.918c-0.133,0.368-0.349,0.696-0.505,1.053
		c-0.336,0.767-0.424,1.519,0.118,2.244c0.447,0.597,1.064,0.91,1.766,1.089c0.153,0.039,0.314,0.049,0.452,0.136
		C122.244,4.318,122.512,4.59,122.373,4.987z"/>
	<path fill="#F0D485" d="M104.929,48.662c-0.003-1.127-0.004-2.254-0.012-3.381c-0.001-0.171,0.043-0.251,0.229-0.241
		c0.304,0.016,0.61,0.014,0.915,0.02c0.071,0.44,0.021,0.882,0.029,1.323c0.01,0.496,0.01,0.992-0.002,1.488
		c-0.004,0.191,0.048,0.26,0.247,0.254c0.453-0.014,0.908,0.009,1.361-0.01c0.24-0.01,0.366,0.081,0.457,0.294
		c0.329,0.77,0.187,0.669-0.402,0.663c-0.475-0.006-0.95,0.005-1.425-0.004c-0.178-0.004-0.241,0.054-0.237,0.234
		c0.01,0.496,0.003,0.992,0.004,1.488c-0.084,0.227-0.183,0.101-0.248-0.003c-0.129-0.206-0.209-0.439-0.3-0.663
		C105.346,49.634,105.134,49.15,104.929,48.662z"/>
	<path fill="#F0D282" d="M117.804,44.925c0.044,0.001,0.087,0.001,0.131,0.002c0.1,0.054,0.219-0.015,0.317,0.051
		c1.162,0.13,1.982,0.766,2.46,1.796c0.548,1.181,0.542,2.409,0.098,3.632c-0.08,0.219-0.211,0.41-0.34,0.602
		c-0.137,0.03-0.191-0.074-0.229-0.164c-0.156-0.372-0.332-0.736-0.482-1.111c0.03-0.481,0.101-0.96,0.054-1.444
		c-0.054-0.553-0.199-1.069-0.536-1.524c-0.221-0.297-0.511-0.493-0.841-0.642c-0.114-0.051-0.241-0.08-0.334-0.172
		c-0.113-0.258-0.19-0.531-0.299-0.791C117.772,45.085,117.737,45.003,117.804,44.925z"/>
	<path fill="#C8A75F" d="M143.629-7.641c-0.16-0.364-0.321-0.727-0.479-1.092c-0.033-0.076-0.042-0.168-0.154-0.169
		c0.009-0.006,0.018-0.018,0.026-0.017c0.56,0.052,0.856-0.322,1.18-0.691c0.55-0.624,1.031-1.299,1.543-1.951
		c0.071-0.019,0.135,0.012,0.164,0.066c0.14,0.266,0.315,0.518,0.335,0.832c-0.397,0.469-0.704,1.005-1.179,1.511
		c0.864-0.006,1.647-0.149,2.437-0.13c0.561-0.085,0.804,0.101,0.863,0.656c0.014,0.128-0.017,0.201-0.162,0.203
		c-0.146,0.001-0.294-0.02-0.44,0.017c-1.115,0.087-2.229,0.179-3.344,0.255c-0.195,0.013-0.34,0.069-0.466,0.214
		C143.856-7.83,143.737-7.74,143.629-7.641z"/>
	<path fill="#D0B36C" d="M231.52,27.084c-0.105,0.057-0.142,0.005-0.182-0.091c-0.609-1.458-1.222-2.915-1.835-4.372
		c-0.208-0.495-0.42-0.989-0.628-1.485c-0.038-0.091-0.131-0.185-0.002-0.279c0.737,0.388,1.444,0.808,1.966,1.488
		c0.586,0.763,0.889,1.621,0.953,2.573c-0.001,0.32-0.002,0.64-0.003,0.96C231.7,26.281,231.61,26.683,231.52,27.084z"/>
	<path fill="#CCAB62" d="M144.91,28.399c0.28,1.285,1.266,1.66,2.392,1.854c0.093,0.016,0.187,0.03,0.28,0.046
		c0.09,0.016,0.114,0.075,0.112,0.16c-0.003,0.101-0.065,0.12-0.146,0.12c-0.042,0-0.084,0.001-0.127,0.001
		c-1.932-0.001-3.863-0.001-5.795-0.002c-0.042,0-0.084,0-0.127-0.001c-0.076-0.002-0.149-0.006-0.161-0.108
		c-0.013-0.107,0.04-0.152,0.138-0.171c0.155-0.03,0.309-0.065,0.462-0.102c1.23-0.295,1.818-0.932,2.01-2.177
		c0.048-0.312,0.09-0.625,0.136-0.938c0.211-0.075,0.279,0.092,0.343,0.223c0.13,0.262,0.246,0.531,0.343,0.808
		C144.805,28.212,144.798,28.336,144.91,28.399z"/>
	<path fill="#F5D989" d="M106.058,50.881c0.001-0.518,0.012-1.036,0-1.554c-0.005-0.219,0.062-0.297,0.287-0.291
		c0.549,0.014,1.1-0.01,1.649,0.01c0.291,0.011,0.296-0.101,0.199-0.31c-0.058-0.124-0.124-0.247-0.164-0.377
		c-0.049-0.157-0.14-0.213-0.303-0.21c-0.465,0.008-0.931-0.006-1.396,0.007c-0.208,0.005-0.274-0.066-0.272-0.273
		c0.009-0.941,0.004-1.882,0.003-2.823c0.097,0.085,0.052,0.198,0.052,0.298c0.004,0.793,0.013,1.586-0.003,2.379
		c-0.005,0.266,0.05,0.369,0.344,0.363c0.993-0.019,1.988-0.017,2.981,0c0.263,0.004,0.333-0.086,0.311-0.326
		c-0.015-0.167,0.002-0.338,0.005-0.507c0.181-0.005,0.217,0.145,0.269,0.265c0.279,0.648,0.539,1.304,0.831,1.946
		c0.044,0.096,0.066,0.197,0.066,0.306c-0.003,0.811-0.001,1.622-0.001,2.433c0,0.043-0.005,0.083-0.034,0.118l-0.004,0.004
		c-0.373,0.058-0.746,0.052-1.119,0.003c-0.006-0.971-0.02-1.941-0.01-2.911c0.003-0.263-0.07-0.34-0.335-0.336
		c-0.992,0.015-1.984,0.016-2.976,0c-0.275-0.004-0.332,0.092-0.328,0.345c0.014,0.855,0.007,1.71,0.003,2.565
		c-0.001,0.111,0.045,0.234-0.053,0.331C105.898,51.85,105.908,51.366,106.058,50.881z"/>
	<path fill="#E2C57A" d="M219.148,15.516c0.373,0.894,0.742,1.79,1.119,2.682c0.488,1.155,0.982,2.307,1.47,3.462
		c0.02,0.046,0.013,0.104,0.019,0.156c-1.508-0.718-2.515-1.859-2.843-3.514C218.727,17.366,218.762,16.419,219.148,15.516z"/>
	<path fill="#C3A966" d="M64.674,24.227c-0.314-0.214-0.348-0.587-0.482-0.894c-0.694-1.592-1.361-3.196-2.036-4.797
		c-0.209-0.495-0.411-0.992-0.616-1.488c-0.074-0.178-0.107-0.363-0.095-0.556c0.813,1.308,1.627,2.615,2.44,3.922
		c0.167,0.268,0.336,0.536,0.537,0.854c0.53-0.809,1.041-1.59,1.552-2.37c0.283-0.017,0.246,0.225,0.312,0.384
		c-0.508,0.788-1.014,1.576-1.524,2.363c-0.074,0.114-0.078,0.236-0.078,0.364C64.682,22.748,64.677,23.487,64.674,24.227z"/>
	<path fill="#DFBF73" d="M192.246,51.515c0.289-0.096,0.585-0.171,0.819-0.389c0.515-0.483,0.448-1.203-0.144-1.589
		c-0.381-0.249-0.824-0.308-1.245-0.437c-0.169-0.282-0.259-0.6-0.392-0.898c-0.034-0.075-0.057-0.162,0.011-0.239
		c0.679,0.1,1.352,0.231,1.989,0.494c0.799,0.33,1.303,0.897,1.305,1.801c0.002,0.913-0.48,1.525-1.274,1.915
		c-0.236,0.116-0.481,0.217-0.751,0.229C192.392,52.13,192.179,51.873,192.246,51.515z"/>
	<path fill="#CDAC62" d="M153.724,49.806c0.05,0.334,0.303,0.599,0.317,0.945c-0.453,0.004-0.907,0.02-1.36,0.006
		c-0.206-0.006-0.299,0.066-0.359,0.255c-0.121,0.381-0.262,0.756-0.399,1.132c-0.024,0.067-0.057,0.176-0.101,0.183
		c-0.354,0.061-0.715,0.05-1.069,0.01c-0.135-0.015-0.02-0.162,0.007-0.234c0.357-0.98,0.718-1.957,1.084-2.934
		c0.24-0.64,0.488-1.276,0.733-1.914c0.191,0.267,0.281,0.582,0.413,0.877c0.054,0.122,0.087,0.263,0.219,0.336
		c0.096,0.11,0.031,0.22-0.007,0.323c-0.065,0.177-0.134,0.352-0.193,0.531c-0.127,0.384-0.124,0.385,0.269,0.395
		C153.429,49.723,153.594,49.678,153.724,49.806z"/>
	<path fill="#CBAA61" d="M146.243-10.664c-0.107-0.22-0.222-0.437-0.316-0.662c-0.042-0.101-0.094-0.179-0.183-0.236
		c0.323-0.516,0.651-1.029,0.963-1.552c0.084-0.141,0.287-0.303,0.16-0.463c-0.146-0.185-0.375-0.299-0.644-0.261
		c-0.509,0.072-1.017,0.15-1.519,0.266c-0.081,0.019-0.165,0.021-0.248,0.03c-0.191-0.263-0.373-0.529-0.315-0.881
		c0.686-0.17,1.378-0.309,2.082-0.367c0.556-0.046,1.012,0.195,1.384,0.581c0.33,0.342,0.37,0.764,0.147,1.173
		C147.304-12.213,146.829-11.402,146.243-10.664z"/>
	<path fill="#C9A85F" d="M158.811,16.675c0.233,0.094,0.202,0.342,0.294,0.517c0.073,0.138,0.112,0.29,0.263,0.37
		c-0.04,2.007-0.135,4.013-0.124,6.021c0.008,1.364-0.016,2.729,0.018,4.092c0.019,0.792,0.019,1.584,0.026,2.377
		c0.001,0.114,0.031,0.234-0.04,0.34c-0.001-0.687-0.006-1.373-0.002-2.06c0.001-0.144-0.051-0.25-0.123-0.374
		c-0.342-0.582-0.562-1.222-0.823-1.841c-0.187-0.444-0.423-0.874-0.455-1.37c0.301,0.337,0.602,0.674,0.919,1.029
		c0.062-0.114,0.035-0.229,0.035-0.335c0.002-2.795,0.002-5.59,0.003-8.385C158.802,16.928,158.808,16.801,158.811,16.675z"/>
	<path fill="#DBBB6F" d="M181.729,26.956c0.297,0.234,0.331,0.609,0.484,0.919c0.189,0.382,0.344,0.782,0.513,1.174
		c-0.982,0.617-2.07,0.957-3.192,1.204c-0.245,0.054-0.495,0.082-0.743,0.123c-0.114-0.211-0.248-0.416-0.246-0.67
		c0.029-0.121,0.134-0.155,0.229-0.199c1.138-0.517,2.031-1.317,2.73-2.346C181.562,27.077,181.605,26.97,181.729,26.956z"/>
	<path fill="#DFC379" d="M79.472,16.548c-0.295-0.49-0.46-1.039-0.702-1.552c-0.137-0.291-0.178-0.633-0.44-0.86
		c0.946-0.765,2.002-1.318,3.173-1.649c0.247,0.19,0.291,0.477,0.36,0.752c-0.012,0.115-0.093,0.183-0.175,0.251
		c-0.902,0.747-1.549,1.677-1.991,2.757C79.651,16.362,79.651,16.528,79.472,16.548z"/>
	<path fill="#E6C679" d="M122.301,28.16c-0.054,0.246-0.117,0.491-0.16,0.739c-0.066,0.378,0.061,0.685,0.378,0.906
		c0.4,0.279,0.861,0.383,1.334,0.452c0.093,0.014,0.186,0.033,0.279,0.048c0.086,0.014,0.131,0.059,0.126,0.149
		c-0.005,0.096-0.065,0.123-0.149,0.123c-0.042,0-0.084,0.001-0.127,0.001c-1.657,0-3.314-0.001-4.971-0.002
		c-0.082,0-0.196,0.031-0.236-0.047c-0.063-0.124-0.058-0.24,0.131-0.275c0.206-0.039,0.406-0.107,0.609-0.162
		c0.919-0.25,1.346-0.992,1.753-1.754c0.178-0.334,0.356-0.668,0.534-1.003C122.074,27.547,122.125,27.892,122.301,28.16z"/>
	<path fill="#D0B56F" d="M68.698,14.076c0.037-0.865-0.207-1.194-1.064-1.4c-0.297-0.072-0.6-0.116-0.9-0.172
		c-0.093-0.017-0.2-0.016-0.188-0.158c0.012-0.145,0.122-0.121,0.213-0.121c1.819,0,3.637,0,5.456,0.002
		c0.088,0,0.201-0.031,0.22,0.113c0.015,0.114-0.058,0.146-0.149,0.162c-1.398,0.237-2.281,1.159-3.02,2.272
		c-0.017,0.025-0.045,0.043-0.069,0.064c-0.17,0.027-0.207-0.114-0.258-0.218C68.853,14.441,68.78,14.257,68.698,14.076z"/>
	<path fill="#E6C679" d="M192.828,28.483c-0.023,0.133-0.058,0.266-0.066,0.4c-0.036,0.587,0.168,0.898,0.72,1.118
		c0.374,0.149,0.765,0.23,1.16,0.296c0.1,0.017,0.228,0.01,0.205,0.172c-0.02,0.143-0.138,0.107-0.224,0.107
		c-1.688,0.003-3.377,0.003-5.065,0.002c-0.088,0-0.202,0.03-0.218-0.114c-0.018-0.158,0.084-0.185,0.211-0.212
		c0.205-0.043,0.407-0.104,0.608-0.166c0.773-0.238,1.236-0.805,1.591-1.491c0.164-0.317,0.342-0.627,0.514-0.939
		c0.162-0.072,0.194,0.072,0.241,0.16C192.62,28.033,192.732,28.254,192.828,28.483z"/>
	<path fill="#DFBF73" d="M166.289-8.765c0.765,0.064,1.532,0.118,2.295,0.196c1.141,0.117,2.28,0.252,3.42,0.379
		c0.24,0.198,0.295,0.491,0.364,0.765c0.043,0.172-0.075,0.244-0.249,0.176c-0.932-0.09-1.863-0.179-2.795-0.269
		c-0.859-0.083-1.717-0.166-2.576-0.249c-0.073-0.007-0.149,0.001-0.21-0.053c-0.078-0.218-0.165-0.433-0.248-0.649
		C166.254-8.566,166.2-8.666,166.289-8.765z"/>
	<path fill="#D6B76C" d="M144.892,49.8c0.004,0.439,0.017,0.878,0.006,1.316c-0.005,0.199,0.052,0.295,0.258,0.276
		c0.116,0.104,0.165,0.247,0.207,0.387c0.106,0.355,0.32,0.491,0.701,0.475c0.717-0.029,1.435-0.01,2.153-0.007
		c0.145,0.001,0.299-0.024,0.42,0.092c-0.067,0.076-0.157,0.049-0.238,0.049c-1.459,0.001-2.918-0.003-4.377,0.004
		c-0.229,0.001-0.315-0.06-0.314-0.303c0.008-2.273,0.004-4.546,0.005-6.819c0-0.07-0.025-0.15,0.047-0.205
		c0.112,0.111,0.099,0.257,0.085,0.388c-0.143,1.298,0.136,2.506,0.754,3.647C144.72,49.322,144.796,49.566,144.892,49.8z"/>
	<path fill="#E6C679" d="M126.356,46.247c-0.237-0.1-0.205-0.359-0.314-0.536c-0.07-0.113-0.122-0.238-0.182-0.357
		c1.504-0.867,4.142-0.591,4.766,1.807c0.058,0.223,0.037,0.322-0.212,0.289c-0.042-0.005-0.085-0.005-0.127,0
		c-0.458,0.054-0.738-0.037-0.964-0.552c-0.446-1.019-1.674-1.225-2.642-0.834C126.567,46.109,126.464,46.185,126.356,46.247z"/>
	<path fill="#DDBD71" d="M191.294,47.964c0.053,0.289,0.215,0.535,0.314,0.806c0.04,0.109,0.075,0.213,0.067,0.33
		c-0.809-0.113-1.606-0.255-2.207-0.887c-0.489-0.514-0.619-1.123-0.417-1.786c0.202-0.664,0.681-1.069,1.34-1.267
		c0.274,0.097,0.478,0.554,0.395,0.885c-0.382,0.124-0.574,0.414-0.621,0.787c-0.049,0.395,0.147,0.679,0.488,0.877
		C190.856,47.827,191.081,47.88,191.294,47.964z"/>
	<path fill="#EECF80" d="M194.969,23.022c0.064,0.121,0.176,0.059,0.263,0.059c1.055,0.005,2.11,0.003,3.166,0.003
		c0.473,0,0.483,0.009,0.576,0.498c-1.307,0.003-2.613,0.006-3.92,0.011c-0.134,0-0.277-0.034-0.391,0.075
		c-0.177-0.183-0.228-0.429-0.329-0.651c0.724-1.691,1.448-3.382,2.172-5.073c0.243,0.056,0.245,0.28,0.316,0.455
		c0.083,0.101,0.032,0.2-0.008,0.297c-0.554,1.346-1.11,2.692-1.649,4.044C195.12,22.85,195.063,22.948,194.969,23.022z"/>
	<path fill="#E9CA7C" d="M176.954-7.558c1.095,0.153,2.19,0.304,3.285,0.46c0.636,0.091,1.269,0.198,1.906,0.281
		c0.168,0.022,0.211,0.082,0.201,0.24c-0.045,0.724-0.076,0.747-0.753,0.648c-1.459-0.215-2.919-0.419-4.378-0.63
		c-0.05-0.007-0.097-0.035-0.145-0.053c0.112-0.136,0.065-0.27,0.004-0.41C176.998-7.192,176.887-7.356,176.954-7.558z"/>
	<path fill="#EDCE7F" d="M114.054,28.406c0.806-0.848,1.302-1.883,1.778-2.931c0.035-0.077,0.068-0.154,0.101-0.232
		c0.037-0.086,0.084-0.143,0.192-0.104c0.108,0.039,0.134,0.094,0.112,0.214c-0.127,0.693-0.241,1.388-0.361,2.082
		c-0.12,0.694-0.235,1.389-0.365,2.081c-0.058,0.306-0.147,0.604-0.183,0.916c-0.03,0.259-0.247,0.105-0.38,0.137
		C114.615,29.863,114.254,29.168,114.054,28.406z"/>
	<path fill="#DFBE72" d="M130.432,23.019c-0.371,0.154-0.761,0.02-1.138,0.071c-0.117,0.095-0.257,0.087-0.394,0.087
		c-0.476,0.002-0.952,0.001-1.427,0.001c-0.476,0-0.476,0-0.594,0.404c-0.84,0.003-1.68,0.012-2.52,0.005
		c-0.195-0.002-0.303,0.047-0.369,0.245c-0.103,0.307-0.242,0.601-0.365,0.9c-0.153,0.078-0.206-0.047-0.255-0.141
		c-0.063-0.119-0.121-0.241-0.174-0.365c0.411-0.968,0.82-1.938,1.235-2.905c0.303-0.705,0.613-1.407,0.92-2.111
		c0.254,0.041,0.319,0.258,0.417,0.445c-0.161,0.593-0.434,1.142-0.661,1.709c-0.181,0.451-0.36,0.902-0.545,1.351
		c-0.079,0.193-0.024,0.284,0.189,0.263c1.138-0.108,2.278-0.029,3.418-0.049c0.612-0.011,1.225-0.002,1.837-0.002
		C130.154,22.929,130.302,22.928,130.432,23.019z"/>
	<path fill="#E5C578" d="M176.954-7.558c0.09,0.24,0.173,0.482,0.272,0.718c0.073,0.173,0.006,0.228-0.157,0.227
		c-0.749-0.09-1.498-0.178-2.246-0.27c-0.842-0.103-1.685-0.207-2.526-0.312c-0.06-0.008-0.118-0.035-0.177-0.053
		c0.193,0.003,0.234-0.091,0.166-0.257c-0.094-0.228-0.188-0.456-0.281-0.684c1.076,0.131,2.153,0.258,3.229,0.393
		C175.807-7.724,176.38-7.638,176.954-7.558z"/>
	<path fill="#C7A65E" d="M139.634-15.2c-0.146-0.276-0.155-0.627-0.456-0.817c0.362-0.344,0.802-0.6,1.212-1.032
		c-0.44,0.081-0.788,0.145-1.136,0.208c-0.199-0.258-0.372-0.525-0.317-0.875c0.66-0.19,1.338-0.292,2.016-0.39
		c0.302-0.044,0.554,0.041,0.705,0.308c0.152,0.267,0.128,0.546-0.032,0.811c-0.257,0.425-0.637,0.73-1.013,1.036
		C140.294-15.69,139.961-15.449,139.634-15.2z"/>
	<path fill="#F5D888" d="M101.375,27.466c0.23,0.22,0.307,0.521,0.425,0.8c0.323,0.767,0.642,1.536,0.962,2.304
		c-1.29,0.003-2.58,0.006-3.87,0.006c-0.094,0-0.231,0.051-0.252-0.111c-0.022-0.169,0.119-0.182,0.228-0.201
		c0.323-0.056,0.635-0.152,0.948-0.244c0.937-0.275,1.408-0.909,1.482-1.866C101.317,27.925,101.349,27.695,101.375,27.466z"/>
	<path fill="#CEAD63" d="M147.763-8.409c0.079-0.075,0.18-0.057,0.269-0.046c0.309,0.038,0.29-0.109,0.202-0.323
		c-0.206-0.498-0.202-0.5-0.732-0.506c0.625-0.094,1.256-0.093,1.886-0.117c1.17-0.045,2.34-0.102,3.511-0.061
		c0.144,0.162,0.204,0.367,0.272,0.564c0.092,0.27,0.035,0.339-0.247,0.345c-0.536,0.011-1.072-0.023-1.607,0.019
		C150.132-8.493,148.947-8.451,147.763-8.409z"/>
	<path fill="#D2B268" d="M151.316-8.535c0.476-0.114,0.96-0.029,1.439-0.047c0.443-0.016,0.461-0.029,0.274-0.435
		c-0.066-0.143-0.155-0.277-0.132-0.446c1.545-0.043,3.089,0.009,4.633,0.066c0.149,0.203,0.183,0.456,0.292,0.676
		c0.043,0.086,0.033,0.181-0.038,0.259C155.63-8.548,153.473-8.522,151.316-8.535z"/>
	<path fill="#C8A861" d="M144.91,28.399c-0.029,0.155-0.072,0.086-0.105,0.004c-0.121-0.297-0.23-0.599-0.362-0.891
		c-0.077-0.172-0.115-0.391-0.359-0.43c0.003-0.065,0.006-0.131,0.009-0.196c0.054-0.165-0.026-0.343,0.047-0.506
		c0.004-0.233,0.008-0.466,0.013-0.699c0.064-0.337-0.025-0.682,0.05-1.018c0.025-1.965,0.051-3.929,0.076-5.894
		c0.222,0.156,0.201,0.476,0.425,0.63c0.075,0.105,0.037,0.225,0.037,0.338c0.003,2.226,0.002,4.452,0.003,6.678
		c0,0.115-0.018,0.232,0.019,0.346c0.005,0.19,0.01,0.38,0.015,0.569c0.067,0.121-0.003,0.259,0.047,0.382
		C144.863,27.94,144.822,28.178,144.91,28.399z"/>
	<path fill="#DCBC70" d="M192.246,51.515c0.106,0.296,0.212,0.591,0.317,0.887c-0.116,0.071-0.248,0.06-0.375,0.074
		c-0.3,0-0.599-0.001-0.899-0.001c-1.307-0.12-2.244-0.942-2.506-2.178c-0.049-0.234,0.009-0.318,0.241-0.29
		c0.031,0.004,0.064,0.003,0.095,0c0.472-0.047,0.824-0.015,1.003,0.58c0.185,0.615,0.77,0.863,1.396,0.924
		C191.759,51.535,192.003,51.515,192.246,51.515z"/>
	<path fill="#D6B66C" d="M157.785-8.461c0.034-0.223-0.123-0.385-0.184-0.577c-0.037-0.117-0.086-0.231-0.07-0.359
		c1.264,0.032,2.526,0.102,3.786,0.213c0.199,0.018,0.399,0.03,0.599,0.044c0.165,0.085,0.462,0.678,0.421,0.846
		c-0.035,0.141-0.129,0.143-0.24,0.091C160.659-8.288,159.222-8.374,157.785-8.461z"/>
	<path fill="#F8DB8A" d="M110.883,52.334c0.001-0.348-0.038-0.701,0.01-1.042c0.163-1.161-0.231-2.186-0.733-3.188
		c-0.139-0.278-0.161-0.613-0.408-0.838c-0.003-0.665-0.001-1.33-0.012-1.995c-0.003-0.184,0.066-0.24,0.241-0.232
		c0.232,0.011,0.465,0.01,0.696,0.001c0.166-0.006,0.216,0.06,0.221,0.222c0.065,2.3,0.035,4.6,0.041,6.9
		C110.939,52.225,110.943,52.29,110.883,52.334z"/>
	<path fill="#E0C073" d="M190.786,46.046c-0.08-0.318-0.132-0.649-0.395-0.885c1.223-0.557,2.827-0.215,3.598,0.77
		c0.204,0.261,0.329,0.562,0.414,0.88c0.039,0.147,0.008,0.218-0.16,0.2c-0.104-0.011-0.212-0.012-0.316,0
		c-0.366,0.043-0.613-0.023-0.817-0.413c-0.319-0.607-0.958-0.709-1.587-0.707C191.277,45.892,191.022,45.945,190.786,46.046z"/>
	<path fill="#D3B369" d="M144.892,49.8c-0.304-0.285-0.356-0.701-0.538-1.049c-0.208-0.398-0.306-0.848-0.551-1.232
		c-0.062-0.097-0.041-0.204-0.041-0.307c-0.002-0.715-0.001-1.431-0.001-2.146c0.031-0.007,0.062-0.02,0.092-0.019
		c0.335,0.007,0.761-0.137,0.981,0.051c0.211,0.181,0.064,0.616,0.066,0.938C144.904,47.29,144.896,48.545,144.892,49.8z"/>
	<path fill="#DBBB6F" d="M162.096-8.202c0.093-0.008,0.238-0.009,0.174-0.144c-0.124-0.262-0.155-0.566-0.354-0.794
		c0.871,0.066,1.743,0.128,2.613,0.201c0.587,0.049,1.173,0.115,1.76,0.174c0.018,0.221,0.151,0.403,0.209,0.609
		c0.03,0.106,0.159,0.209,0.041,0.336c-0.106-0.005-0.211-0.009-0.317-0.014c-0.122-0.058-0.262,0.018-0.382-0.05
		c-0.988-0.076-1.978-0.141-2.965-0.234C162.616-8.143,162.346-8.088,162.096-8.202z"/>
	<path fill="#EACD80" d="M98.121,44.975c1.545-0.306,3.202,0.492,3.598,2.278c0.031,0.141,0.001,0.198-0.144,0.196
		c-0.264-0.003-0.528-0.005-0.792,0.001c-0.119,0.003-0.163-0.056-0.196-0.159c-0.322-1.012-1.069-1.407-2.076-1.422
		C98.323,45.596,98.258,45.27,98.121,44.975z"/>
	<path fill="#CBAA61" d="M132.719-7.111c0.106,0.272,0.211,0.545,0.317,0.817c-0.02,0.157-0.16,0.15-0.262,0.177
		c-1.188,0.315-2.372,0.644-3.537,1.035c-0.1,0.033-0.201,0.064-0.308,0.029c-0.231-0.241-0.335-0.531-0.335-0.862
		c1.029-0.382,2.089-0.659,3.144-0.953C132.062-6.958,132.391-7.03,132.719-7.111z"/>
	<path fill="#EFD181" d="M114.054,28.406c0.327,0.709,0.682,1.407,0.894,2.164c-0.868,0-1.735,0-2.603,0
		c-0.23-0.249-0.344-0.547-0.378-0.88C112.751,29.407,113.446,28.977,114.054,28.406z"/>
	<path fill="#CDAD63" d="M132.794,0.626c-1.126,0.71-2.294,1.344-3.498,1.912c-0.251-0.224-0.331-0.531-0.41-0.839
		c0.18-0.24,0.467-0.321,0.712-0.453c0.836-0.45,1.667-0.909,2.488-1.387c0.098-0.057,0.192-0.14,0.321-0.086
		C132.579,0.038,132.697,0.327,132.794,0.626z"/>
	<path fill="#E5C97E" d="M89.955,25.686c0.222,0.043,0.235,0.248,0.301,0.403c0.286,0.674,0.563,1.351,0.846,2.026
		c0.024,0.057,0.07,0.104,0.106,0.155c-0.379,0.376-0.797,0.701-1.265,0.96c-0.25-0.232-0.298-0.57-0.44-0.858
		c-0.139-0.281-0.23-0.584-0.406-0.848c-0.019-0.123,0.045-0.223,0.096-0.324c0.215-0.429,0.435-0.856,0.591-1.312
		C89.812,25.802,89.843,25.708,89.955,25.686z"/>
	<path fill="#C9A85F" d="M132.794,0.626c-0.221-0.236-0.309-0.535-0.395-0.835c-0.013-0.141,0.112-0.168,0.194-0.217
		c0.947-0.571,1.868-1.183,2.787-1.796c0.092-0.061,0.182-0.155,0.314-0.095c0.08,0.306,0.152,0.616,0.395,0.846
		C135.033-0.707,133.931-0.013,132.794,0.626z"/>
	<path fill="#DABC74" d="M221.643,16.543c-0.237-0.061-0.249-0.288-0.323-0.459c-0.347-0.795-0.682-1.594-1.022-2.392
		c0.501-0.482,1.067-0.865,1.714-1.125c0.218,0.276,0.322,0.604,0.431,0.93c-0.407,0.533-0.719,1.111-0.823,1.784
		c-0.059,0.121,0.019,0.261-0.052,0.38c0.001,0.124,0.001,0.247,0.002,0.371c0.063,0.1-0.003,0.219,0.049,0.32
		C221.626,16.416,221.634,16.48,221.643,16.543z"/>
	<path fill="#D3B268" d="M128.91,1.704c0.129,0.278,0.258,0.556,0.386,0.834c-1.092,0.591-2.219,1.109-3.372,1.57
		c-0.093,0.065-0.178,0.013-0.215-0.055c-0.125-0.237-0.296-0.462-0.267-0.755c0.037-0.082,0.105-0.134,0.184-0.165
		c1.028-0.414,2.002-0.944,3.015-1.391C128.725,1.704,128.811,1.647,128.91,1.704z"/>
	<path fill="#CFAF65" d="M173.334,46.061c0.123-0.124,0.278-0.059,0.418-0.063c0.191-0.005,0.234-0.057,0.164-0.247
		c-0.085-0.234-0.248-0.439-0.266-0.698c1.118-0.003,2.236-0.004,3.354-0.012c0.164-0.001,0.213,0.057,0.221,0.219
		c0.041,0.791,0.046,0.789-0.727,0.791C175.444,46.053,174.389,46.057,173.334,46.061z"/>
	<path fill="#E9CA7C" d="M194.333,23.017c0.225,0.158,0.254,0.416,0.329,0.651c-0.572,1.587-1.311,3.111-1.788,4.734
		c-0.008,0.029-0.031,0.054-0.047,0.08c-0.19-0.067-0.186-0.265-0.275-0.401c-0.094-0.144-0.096-0.352-0.291-0.427
		C192.953,26.109,193.643,24.563,194.333,23.017z"/>
	<path fill="#E6CA7E" d="M99.079,52.463c-0.003-0.293-0.189-0.523-0.278-0.786c-0.055-0.163-0.258-0.042-0.351-0.151
		c0.703,0.026,1.341-0.117,1.808-0.701c0.153-0.191,0.275-0.401,0.338-0.637c0.039-0.148,0.115-0.208,0.267-0.203
		c0.221,0.008,0.443,0.01,0.664,0c0.185-0.009,0.258,0.061,0.21,0.241C101.42,51.395,100.552,52.347,99.079,52.463z"/>
	<path fill="#E2C67C" d="M89.113,27.525c0.226,0.064,0.218,0.282,0.289,0.445c0.183,0.419,0.36,0.841,0.54,1.261
		c-0.727,0.478-1.508,0.839-2.345,1.077c-0.083-0.267-0.194-0.521-0.34-0.76c0.014-0.107,0.102-0.157,0.175-0.214
		c0.585-0.463,1.08-1.007,1.482-1.636C88.961,27.623,88.987,27.513,89.113,27.525z"/>
	<path fill="#D3B268" d="M122.631-3.431c1.065-0.583,2.161-1.098,3.3-1.522c0.262,0.215,0.32,0.528,0.402,0.83
		c-0.036,0.117-0.141,0.148-0.237,0.188c-0.923,0.386-1.835,0.795-2.724,1.254c-0.093,0.048-0.186,0.101-0.296,0.102
		C122.755-2.772,122.641-3.074,122.631-3.431z"/>
	<path fill="#D7B76C" d="M125.483,3.291c0.113,0.29,0.106,0.646,0.441,0.816c-1.128,0.516-2.29,0.898-3.551,0.879
		c0.007-0.35-0.221-0.621-0.317-0.936c0.077-0.093,0.186-0.093,0.29-0.092c0.946,0.01,1.823-0.286,2.695-0.604
		C125.18,3.304,125.317,3.181,125.483,3.291z"/>
	<path fill="#D6B66C" d="M122.631-3.431c0.135,0.278,0.194,0.597,0.442,0.813c0.019,0.112-0.074,0.142-0.142,0.181
		c-0.953,0.544-1.864,1.145-2.671,1.895c-0.015,0.014-0.038,0.015-0.06,0.017c-0.185-0.279-0.286-0.6-0.433-0.897
		c0.655-0.723,1.483-1.214,2.307-1.708C122.255-3.239,122.445-3.331,122.631-3.431z"/>
	<path fill="#C4A35B" d="M138.937-17.715c0.106,0.292,0.211,0.583,0.317,0.875c-1.058,0.284-2.105,0.601-3.111,1.04
		c-0.029,0.013-0.067,0.042-0.087,0.033c-0.29-0.141-0.271-0.466-0.407-0.7c-0.089-0.153,0.067-0.193,0.17-0.236
		c0.925-0.387,1.872-0.709,2.843-0.957C138.752-17.683,138.845-17.697,138.937-17.715z"/>
	<path fill="#F2D484" d="M189.735-5.866c0.607,0.002,1.003,0.405,0.999,1.017c-0.004,0.58-0.447,1.021-1.024,1.019
		c-0.545-0.002-1.021-0.491-1.016-1.045C188.699-5.457,189.132-5.868,189.735-5.866z"/>
	<path fill="#C8A75E" d="M144.141-14.422c0.105,0.294,0.21,0.587,0.315,0.881c-1.157,0.205-2.284,0.532-3.422,0.815
		c0.094-0.365-0.112-0.619-0.321-0.872c1.017-0.31,2.042-0.591,3.092-0.767C143.917-14.384,144.029-14.403,144.141-14.422z"/>
	<path fill="#D4B46A" d="M148.637,52.339c-0.945,0.001-1.891-0.004-2.836,0.006c-0.217,0.002-0.348-0.039-0.413-0.275
		c-0.063-0.229-0.224-0.427-0.232-0.678c1.106-0.004,2.213-0.005,3.319-0.013c0.164-0.001,0.236,0.057,0.218,0.22
		C148.667,51.845,148.755,52.1,148.637,52.339z"/>
	<path fill="#DABA6E" d="M131.646,26.257c0.211,0.04,0.271,0.232,0.337,0.385c0.545,1.264,1.078,2.534,1.612,3.803
		c0.016,0.037,0.008,0.083,0.012,0.125c-0.94,0.003-1.88,0.007-2.819,0.008c-0.086,0-0.204,0.04-0.227-0.104
		c-0.025-0.16,0.096-0.158,0.2-0.176c0.363-0.065,0.727-0.12,1.063-0.29c0.531-0.268,0.699-0.601,0.589-1.179
		c-0.149-0.78-0.434-1.518-0.679-2.269C131.701,26.459,131.675,26.358,131.646,26.257z"/>
	<path fill="#F2D584" d="M119.829,49.728c0.259,0.404,0.307,0.914,0.641,1.281c-0.401,0.769-1.081,1.164-1.882,1.389
		c-0.15,0.042-0.309,0.052-0.463,0.076c-0.023-0.005-0.046-0.01-0.069-0.015c-0.087-0.215-0.161-0.436-0.264-0.642
		c-0.069-0.137-0.031-0.216,0.076-0.291c0.066-0.098,0.178-0.105,0.276-0.132c0.747-0.207,1.218-0.702,1.495-1.408
		C119.677,49.885,119.678,49.748,119.829,49.728z"/>
	<path fill="#CBB06C" d="M68.698,14.076c0.17,0.097,0.205,0.276,0.274,0.438c0.051,0.12,0.084,0.262,0.226,0.324
		c-0.971,1.482-1.941,2.963-2.912,4.445c-0.161-0.082-0.115-0.331-0.312-0.384c0.713-1.155,1.429-2.307,2.137-3.465
		C68.37,15.01,68.572,14.559,68.698,14.076z"/>
	<path fill="#D9BB73" d="M228.799,27.522c0.246,0.577,0.493,1.155,0.74,1.732c0.034,0.079,0.077,0.15,0.162,0.183
		c-0.625,0.496-1.343,0.796-2.106,1.002c-0.146-0.227-0.305-0.449-0.253-0.743C228.121,29.168,228.555,28.408,228.799,27.522z"/>
	<path fill="#EDD184" d="M106.058,50.881c0.001,0.484,0.002,0.968,0.003,1.453c0,0-0.005,0.004-0.005,0.004
		c-0.372,0.058-0.745,0.052-1.117,0.003c-0.003-1.226-0.006-2.452-0.009-3.678c0.315,0.302,0.371,0.736,0.556,1.104
		c0.145,0.288,0.248,0.598,0.376,0.895C105.901,50.753,105.924,50.87,106.058,50.881z"/>
	<path fill="#E7C87A" d="M128.594,52.342c-0.247-0.241-0.308-0.563-0.383-0.879c0.681-0.2,1.11-0.654,1.329-1.32
		c0.013-0.039,0.021-0.084,0.046-0.115c0.046-0.055,1.002-0.064,1.057-0.016c0.057,0.05,0.042,0.116,0.026,0.175
		C130.406,51.202,129.697,52.095,128.594,52.342z"/>
	<path fill="#F3D585" d="M117.804,44.925c0.084,0.34,0.319,0.632,0.317,0.999c-0.058,0.079-0.143,0.08-0.227,0.072
		c-0.737-0.069-1.36,0.141-1.832,0.734c-0.058,0.073-0.126,0.142-0.229,0.152c-0.12-0.006-0.195-0.078-0.237-0.179
		c-0.115-0.28-0.223-0.562-0.334-0.844C115.956,45.13,116.827,44.883,117.804,44.925z"/>
	<path fill="#EACD81" d="M87.848,12.365c0.125,0.586,0.454,1.093,0.639,1.656c0.033,0.101,0.128,0.194,0.043,0.311
		c-0.269-0.038-0.392-0.272-0.558-0.438c-0.525-0.525-1.125-0.924-1.831-1.159c-0.444-0.148-0.898-0.236-1.369-0.232
		c-0.156,0.002-0.318,0.03-0.466-0.054c0.032-0.181,0.224-0.28,0.241-0.468C85.669,11.93,86.774,12.013,87.848,12.365z"/>
	<path fill="#CEAD64" d="M126.318-4.137c-0.178-0.248-0.24-0.552-0.387-0.816c0.873-0.362,1.755-0.698,2.663-0.962
		c0.105,0.274,0.211,0.548,0.316,0.823c0.001,0.146-0.126,0.157-0.217,0.186c-0.7,0.228-1.386,0.496-2.075,0.754
		C126.522-4.116,126.421-4.066,126.318-4.137z"/>
	<path fill="#E4C87D" d="M98.121,44.975c0.267,0.238,0.312,0.573,0.389,0.894c-0.827,0.093-1.39,0.555-1.77,1.271
		c-0.176,0.031-0.245-0.102-0.287-0.222c-0.103-0.294-0.253-0.568-0.357-0.861C96.623,45.419,97.293,45.049,98.121,44.975z"/>
	<path fill="#B79E5F" d="M61.201,28.734c0.237,0.237,0.29,0.566,0.419,0.856c0.144,0.322,0.266,0.653,0.398,0.98
		c-1.034,0.004-2.067,0.009-3.101,0.011c-0.089,0-0.197,0.024-0.206-0.126c-0.008-0.141,0.091-0.146,0.183-0.162
		c0.269-0.047,0.544-0.064,0.805-0.157C60.403,29.886,60.979,29.499,61.201,28.734z"/>
	<path fill="#E3C477" d="M123.196,24.226c0.148,0.015,0.159,0.14,0.199,0.245c0.044,0.114,0.071,0.247,0.23,0.261
		c-0.445,1.141-0.922,2.27-1.324,3.428c-0.285-0.203-0.323-0.555-0.499-0.824C122.267,26.3,122.731,25.263,123.196,24.226z"/>
	<path fill="#F2D584" d="M111.967,29.69c0.126,0.293,0.252,0.587,0.378,0.88c-1.438,0-2.876,0-4.315,0
		c0.021-0.131-0.041-0.248-0.063-0.372C109.32,30.185,110.662,30.085,111.967,29.69z"/>
	<path fill="#DABA6F" d="M125.721,19.593c-0.198-0.055-0.194-0.306-0.37-0.383c0.302-0.864,0.705-1.685,1.051-2.531
		c0.21-0.516,0.442-1.023,0.664-1.534c0.094,0.16,0.131,0.361,0.324,0.451c0.072,0.093,0.021,0.183-0.013,0.269
		c-0.488,1.217-1.043,2.405-1.553,3.613C125.803,19.527,125.773,19.571,125.721,19.593z"/>
	<path fill="#D9BD75" d="M81.688,30.321c0.264-0.085,0.073-0.253,0.039-0.351c-0.09-0.256-0.25-0.488-0.225-0.777
		c0.122-0.063,0.199,0.033,0.279,0.089c0.906,0.636,1.907,0.968,3.018,0.954c0.084-0.001,0.168,0.006,0.247,0.041
		c0.237,0.275,0.225,0.394-0.049,0.473C83.868,30.806,82.763,30.683,81.688,30.321z"/>
	<path fill="#D0B36C" d="M227.786,12.292c-0.002,0.345,0.209,0.62,0.31,0.931c0.035,0.109,0.08,0.212,0.071,0.328
		c-0.691-0.572-1.439-1.027-2.348-1.164c-0.337-0.051-0.674-0.014-1.011-0.027c-0.391,0.057-0.487-0.024-0.449-0.377
		c1.112-0.146,2.205-0.024,3.286,0.247C227.694,12.243,227.739,12.271,227.786,12.292z"/>
	<path fill="#CEAD63" d="M172.2,52.337c1.044,0.001,2.088-0.002,3.133,0.007c0.247,0.002,0.335-0.046,0.207-0.302
		c-0.103-0.205-0.161-0.432-0.238-0.649c0.571-0.004,1.141-0.008,1.712-0.01c0.052,0,0.135-0.012,0.152,0.015
		c0.176,0.267,0.068,0.566,0.073,0.85c0.004,0.19-0.181,0.136-0.297,0.137c-1.343,0.003-2.685,0.007-4.028-0.001
		C172.677,52.382,172.432,52.446,172.2,52.337z"/>
	<path fill="#D7B76C" d="M178.602,29.685c-0.017,0.252,0.238,0.429,0.19,0.69c-1.019,0.195-2.049,0.212-3.081,0.205
		c-0.306-0.002-0.611-0.007-0.917-0.01c-0.021-0.142-0.043-0.283-0.064-0.425c0.074-0.104,0.182-0.091,0.287-0.081
		c1.087,0.094,2.149-0.032,3.192-0.343C178.335,29.682,178.462,29.592,178.602,29.685z"/>
	<path fill="#E4C67B" d="M222.264,30.512c-0.007-0.238-0.132-0.433-0.221-0.643c-0.06-0.142-0.119-0.29-0.092-0.452
		c0.927,0.598,1.925,0.971,3.042,0.975c0.082,0.272,0.367,0.262,0.548,0.396c-0.864,0.094-1.72,0-2.573-0.122
		C222.732,30.633,222.488,30.615,222.264,30.512z"/>
	<path fill="#D6B971" d="M224.359,11.984c0.048,0.246,0.153,0.425,0.449,0.377c-0.37,0.109-0.756,0.15-1.115,0.308
		c-0.467,0.205-0.877,0.487-1.25,0.829c-0.233-0.269-0.314-0.608-0.431-0.93C222.761,12.241,223.538,12.023,224.359,11.984z"/>
	<path fill="#E4C87D" d="M84.548,11.981c0.037,0.215,0.053,0.418-0.254,0.429c-0.078,0.111-0.205,0.099-0.315,0.117
		c-0.662,0.109-1.293,0.3-1.863,0.668c-0.085,0.055-0.176,0.125-0.292,0.067c-0.107-0.258-0.215-0.516-0.322-0.774
		C82.488,12.137,83.506,11.987,84.548,11.981z"/>
	<path fill="#DEC279" d="M84.997,30.749c0.248-0.111,0.111-0.275,0.059-0.427c0.059-0.104,0.161-0.128,0.266-0.141
		c0.612-0.077,1.184-0.268,1.716-0.58c0.072-0.042,0.148-0.083,0.237-0.044c0.239,0.194,0.368,0.435,0.322,0.751
		C86.751,30.576,85.887,30.742,84.997,30.749z"/>
	<path fill="#DEC177" d="M225.542,30.788c-0.256-0.031-0.573,0.023-0.548-0.396c0.842-0.031,1.629-0.251,2.349-0.695
		c0.06,0.256,0.231,0.474,0.253,0.743C226.931,30.672,226.24,30.753,225.542,30.788z"/>
	<path fill="#C3A966" d="M60.004,13.253c-0.284-0.281-0.422-0.627-0.46-1.018c0.81-0.004,1.62-0.008,2.429-0.01
		c0.098,0,0.227-0.032,0.224,0.139c-0.003,0.148-0.121,0.115-0.208,0.128c-0.436,0.063-0.876,0.096-1.297,0.242
		C60.404,12.834,60.164,12.989,60.004,13.253z"/>
	<path fill="#DCBC73" d="M126.879,23.582c-0.089-0.498-0.089-0.499,0.432-0.498c0.661,0.001,1.322,0.004,1.983,0.006
		c-0.03,0.182,0.147,0.311,0.125,0.492C128.572,23.582,127.725,23.582,126.879,23.582z"/>
	<path fill="#EFD284" d="M212.429,16.298c0.001,0.25,0.179,0.428,0.259,0.646c-0.535,0.401-1.165,0.496-1.805,0.552
		c-0.082,0.007-0.202,0.045-0.226-0.099c-0.024-0.143,0.08-0.181,0.186-0.204c0.383-0.083,0.739-0.227,1.068-0.443
		C212.106,16.622,212.277,16.472,212.429,16.298z"/>
	<path fill="#CCAB62" d="M144.763,26.761c-0.091-0.112-0.049-0.244-0.049-0.366c-0.005-2.331-0.007-4.663-0.01-6.994
		c0.002-1.554,0.004-3.107,0.007-4.661c0-0.03,0.004-0.062,0.013-0.09c0.002-0.007,0.033-0.005,0.051-0.006
		c-0.005,0.137-0.016,0.274-0.016,0.412c-0.001,3.596-0.002,7.192-0.001,10.787C144.758,26.148,144.761,26.454,144.763,26.761z"/>
	<path fill="#F9DC8A" d="M104.728,17.435c0.026-0.167-0.052-0.344,0.053-0.503c0.001,1.384,0.002,2.769,0.003,4.153
		c0.001,1.786,0,3.572,0,5.358c-0.097-0.11-0.052-0.242-0.052-0.364c-0.004-1.718-0.005-3.436-0.006-5.154
		C104.727,19.762,104.727,18.599,104.728,17.435z"/>
	<path fill="#E4C87D" d="M96.544,47.711c-0.084-0.487-0.35-0.902-0.531-1.351c-0.011-0.027-0.071-0.033-0.108-0.049
		c0.04-0.047,0.081-0.093,0.121-0.14c0.145,0.027,0.209,0.147,0.252,0.261c0.115,0.305,0.266,0.593,0.388,0.895
		C96.636,47.458,96.623,47.595,96.544,47.711z"/>
	<path fill="#E0C57B" d="M96.666,47.326c-0.213-0.14-0.217-0.395-0.314-0.595c-0.095-0.197-0.188-0.39-0.326-0.561
		c0.006-0.048,0.016-0.095,0.071-0.113c0.22,0.174,0.277,0.439,0.366,0.681c0.059,0.162,0.109,0.32,0.277,0.402
		C96.716,47.202,96.691,47.264,96.666,47.326z"/>
	<path fill="#F0D485" d="M104.938,52.341c0.372-0.001,0.745-0.002,1.117-0.003C105.683,52.429,105.311,52.425,104.938,52.341z"/>
	<path fill="#F8DB8A" d="M109.76,52.341c0.373-0.001,0.746-0.002,1.119-0.003C110.506,52.43,110.133,52.427,109.76,52.341z"/>
	<path fill="#CCAB62" d="M144.202,24.664c-0.024,0.339,0.062,0.683-0.05,1.018C144.16,25.342,144.113,25,144.202,24.664z"/>
	<path fill="#CCAB62" d="M144.14,26.381c-0.02,0.168,0.051,0.345-0.047,0.506C144.092,26.716,144.061,26.543,144.14,26.381z"/>
	<path fill="#CCAB62" d="M144.824,27.712c-0.091-0.118-0.033-0.254-0.047-0.382C144.849,27.451,144.828,27.582,144.824,27.712z"/>
	<path fill="#DFBF73" d="M165.84-7.884c0.128,0.013,0.266-0.047,0.382,0.05C166.093-7.834,165.959-7.802,165.84-7.884z"/>
	<path fill="#DEC177" d="M221.567,15.662c0.015-0.127-0.046-0.264,0.052-0.38C221.616,15.41,221.65,15.544,221.567,15.662z"/>
	<path fill="#DEC177" d="M221.618,16.353c-0.089-0.096-0.04-0.212-0.049-0.32C221.643,16.131,221.62,16.243,221.618,16.353z"/>
	<path fill="#F3D585" d="M118.252,44.977c-0.107-0.011-0.223,0.039-0.317-0.051C118.043,44.925,118.157,44.893,118.252,44.977z"/>
	<path fill="#DABA6E" d="M175.745,12.61c-0.904-0.003-1.808,0-2.707,0.126c-0.282,0.04-0.41,0.111-0.415,0.439
		c-0.015,1.04-0.075,2.079-0.118,3.119c-0.369-0.256-0.416-0.696-0.579-1.06c-0.441-0.988-0.841-1.995-1.257-2.994
		c1.581-0.002,3.161,0.005,4.741-0.013C175.725,12.222,175.686,12.437,175.745,12.61z"/>
	<path fill="#E3C377" d="M183.054,22.065c0.001-0.505,0.001-1.01,0.002-1.515C183.141,21.055,183.143,21.56,183.054,22.065z"/>
	<path fill="#E3C377" d="M182.991,22.89c0.001-0.13-0.031-0.264,0.051-0.383C183.028,22.635,183.089,22.773,182.991,22.89z"/>
</g>
</svg>
